<?xml version="1.0" encoding="utf-8"?>
<svg xmlns="http://www.w3.org/2000/svg" xmlns:xlink="http://www.w3.org/1999/xlink" width="600" height="400" viewBox="0 0 2400 1600">
<defs>
  <clipPath id="clip670">
    <rect x="0" y="0" width="2400" height="1600"/>
  </clipPath>
</defs>
<path clip-path="url(#clip670)" d="M0 1600 L2400 1600 L2400 0 L0 0  Z" fill="#ffffff" fill-rule="evenodd" fill-opacity="1"/>
<defs>
  <clipPath id="clip671">
    <rect x="480" y="0" width="1681" height="1600"/>
  </clipPath>
</defs>
<path clip-path="url(#clip670)" d="M205.121 1423.18 L2352.76 1423.18 L2352.76 123.472 L205.121 123.472  Z" fill="#ffffff" fill-rule="evenodd" fill-opacity="1"/>
<defs>
  <clipPath id="clip672">
    <rect x="205" y="123" width="2149" height="1301"/>
  </clipPath>
</defs>
<polyline clip-path="url(#clip672)" style="stroke:#000000; stroke-linecap:round; stroke-linejoin:round; stroke-width:2; stroke-opacity:0.1; fill:none" points="262.851,1423.18 262.851,123.472 "/>
<polyline clip-path="url(#clip672)" style="stroke:#000000; stroke-linecap:round; stroke-linejoin:round; stroke-width:2; stroke-opacity:0.1; fill:none" points="666.398,1423.18 666.398,123.472 "/>
<polyline clip-path="url(#clip672)" style="stroke:#000000; stroke-linecap:round; stroke-linejoin:round; stroke-width:2; stroke-opacity:0.1; fill:none" points="1069.95,1423.18 1069.95,123.472 "/>
<polyline clip-path="url(#clip672)" style="stroke:#000000; stroke-linecap:round; stroke-linejoin:round; stroke-width:2; stroke-opacity:0.1; fill:none" points="1473.49,1423.18 1473.49,123.472 "/>
<polyline clip-path="url(#clip672)" style="stroke:#000000; stroke-linecap:round; stroke-linejoin:round; stroke-width:2; stroke-opacity:0.1; fill:none" points="1877.04,1423.18 1877.04,123.472 "/>
<polyline clip-path="url(#clip672)" style="stroke:#000000; stroke-linecap:round; stroke-linejoin:round; stroke-width:2; stroke-opacity:0.1; fill:none" points="2280.59,1423.18 2280.59,123.472 "/>
<polyline clip-path="url(#clip670)" style="stroke:#000000; stroke-linecap:round; stroke-linejoin:round; stroke-width:4; stroke-opacity:1; fill:none" points="205.121,1423.18 2352.76,1423.18 "/>
<polyline clip-path="url(#clip670)" style="stroke:#000000; stroke-linecap:round; stroke-linejoin:round; stroke-width:4; stroke-opacity:1; fill:none" points="262.851,1423.18 262.851,1404.28 "/>
<polyline clip-path="url(#clip670)" style="stroke:#000000; stroke-linecap:round; stroke-linejoin:round; stroke-width:4; stroke-opacity:1; fill:none" points="666.398,1423.18 666.398,1404.28 "/>
<polyline clip-path="url(#clip670)" style="stroke:#000000; stroke-linecap:round; stroke-linejoin:round; stroke-width:4; stroke-opacity:1; fill:none" points="1069.95,1423.18 1069.95,1404.28 "/>
<polyline clip-path="url(#clip670)" style="stroke:#000000; stroke-linecap:round; stroke-linejoin:round; stroke-width:4; stroke-opacity:1; fill:none" points="1473.49,1423.18 1473.49,1404.28 "/>
<polyline clip-path="url(#clip670)" style="stroke:#000000; stroke-linecap:round; stroke-linejoin:round; stroke-width:4; stroke-opacity:1; fill:none" points="1877.04,1423.18 1877.04,1404.28 "/>
<polyline clip-path="url(#clip670)" style="stroke:#000000; stroke-linecap:round; stroke-linejoin:round; stroke-width:4; stroke-opacity:1; fill:none" points="2280.59,1423.18 2280.59,1404.28 "/>
<path clip-path="url(#clip670)" d="M262.851 1454.1 Q259.24 1454.1 257.411 1457.66 Q255.606 1461.2 255.606 1468.33 Q255.606 1475.44 257.411 1479.01 Q259.24 1482.55 262.851 1482.55 Q266.485 1482.55 268.291 1479.01 Q270.119 1475.44 270.119 1468.33 Q270.119 1461.2 268.291 1457.66 Q266.485 1454.1 262.851 1454.1 M262.851 1450.39 Q268.661 1450.39 271.717 1455 Q274.795 1459.58 274.795 1468.33 Q274.795 1477.06 271.717 1481.67 Q268.661 1486.25 262.851 1486.25 Q257.041 1486.25 253.962 1481.67 Q250.906 1477.06 250.906 1468.33 Q250.906 1459.58 253.962 1455 Q257.041 1450.39 262.851 1450.39 Z" fill="#000000" fill-rule="nonzero" fill-opacity="1" /><path clip-path="url(#clip670)" d="M656.78 1481.64 L664.419 1481.64 L664.419 1455.28 L656.109 1456.95 L656.109 1452.69 L664.373 1451.02 L669.048 1451.02 L669.048 1481.64 L676.687 1481.64 L676.687 1485.58 L656.78 1485.58 L656.78 1481.64 Z" fill="#000000" fill-rule="nonzero" fill-opacity="1" /><path clip-path="url(#clip670)" d="M1064.6 1481.64 L1080.92 1481.64 L1080.92 1485.58 L1058.97 1485.58 L1058.97 1481.64 Q1061.64 1478.89 1066.22 1474.26 Q1070.82 1469.61 1072.01 1468.27 Q1074.25 1465.74 1075.13 1464.01 Q1076.03 1462.25 1076.03 1460.56 Q1076.03 1457.8 1074.09 1456.07 Q1072.17 1454.33 1069.07 1454.33 Q1066.87 1454.33 1064.41 1455.09 Q1061.98 1455.86 1059.2 1457.41 L1059.2 1452.69 Q1062.03 1451.55 1064.48 1450.97 Q1066.94 1450.39 1068.97 1450.39 Q1074.34 1450.39 1077.54 1453.08 Q1080.73 1455.77 1080.73 1460.26 Q1080.73 1462.39 1079.92 1464.31 Q1079.13 1466.2 1077.03 1468.8 Q1076.45 1469.47 1073.35 1472.69 Q1070.25 1475.88 1064.6 1481.64 Z" fill="#000000" fill-rule="nonzero" fill-opacity="1" /><path clip-path="url(#clip670)" d="M1477.74 1466.95 Q1481.1 1467.66 1482.97 1469.93 Q1484.87 1472.2 1484.87 1475.53 Q1484.87 1480.65 1481.35 1483.45 Q1477.83 1486.25 1471.35 1486.25 Q1469.18 1486.25 1466.86 1485.81 Q1464.57 1485.39 1462.12 1484.54 L1462.12 1480.02 Q1464.06 1481.16 1466.37 1481.74 Q1468.69 1482.32 1471.21 1482.32 Q1475.61 1482.32 1477.9 1480.58 Q1480.22 1478.84 1480.22 1475.53 Q1480.22 1472.48 1478.06 1470.77 Q1475.93 1469.03 1472.12 1469.03 L1468.09 1469.03 L1468.09 1465.19 L1472.3 1465.19 Q1475.75 1465.19 1477.58 1463.82 Q1479.41 1462.43 1479.41 1459.84 Q1479.41 1457.18 1477.51 1455.77 Q1475.63 1454.33 1472.12 1454.33 Q1470.19 1454.33 1467.99 1454.75 Q1465.8 1455.16 1463.16 1456.04 L1463.16 1451.88 Q1465.82 1451.14 1468.13 1450.77 Q1470.47 1450.39 1472.53 1450.39 Q1477.86 1450.39 1480.96 1452.83 Q1484.06 1455.23 1484.06 1459.35 Q1484.06 1462.22 1482.42 1464.21 Q1480.77 1466.18 1477.74 1466.95 Z" fill="#000000" fill-rule="nonzero" fill-opacity="1" /><path clip-path="url(#clip670)" d="M1880.05 1455.09 L1868.24 1473.54 L1880.05 1473.54 L1880.05 1455.09 M1878.82 1451.02 L1884.7 1451.02 L1884.7 1473.54 L1889.63 1473.54 L1889.63 1477.43 L1884.7 1477.43 L1884.7 1485.58 L1880.05 1485.58 L1880.05 1477.43 L1864.45 1477.43 L1864.45 1472.92 L1878.82 1451.02 Z" fill="#000000" fill-rule="nonzero" fill-opacity="1" /><path clip-path="url(#clip670)" d="M2270.86 1451.02 L2289.22 1451.02 L2289.22 1454.96 L2275.15 1454.96 L2275.15 1463.43 Q2276.17 1463.08 2277.18 1462.92 Q2278.2 1462.73 2279.22 1462.73 Q2285.01 1462.73 2288.39 1465.9 Q2291.77 1469.08 2291.77 1474.49 Q2291.77 1480.07 2288.3 1483.17 Q2284.82 1486.25 2278.5 1486.25 Q2276.33 1486.25 2274.06 1485.88 Q2271.81 1485.51 2269.41 1484.77 L2269.41 1480.07 Q2271.49 1481.2 2273.71 1481.76 Q2275.93 1482.32 2278.41 1482.32 Q2282.42 1482.32 2284.75 1480.21 Q2287.09 1478.1 2287.09 1474.49 Q2287.09 1470.88 2284.75 1468.77 Q2282.42 1466.67 2278.41 1466.67 Q2276.54 1466.67 2274.66 1467.08 Q2272.81 1467.5 2270.86 1468.38 L2270.86 1451.02 Z" fill="#000000" fill-rule="nonzero" fill-opacity="1" /><path clip-path="url(#clip670)" d="M1200.82 1520.52 L1241.01 1520.52 L1241.01 1525.93 L1224.15 1525.93 L1224.15 1568.04 L1217.68 1568.04 L1217.68 1525.93 L1200.82 1525.93 L1200.82 1520.52 Z" fill="#000000" fill-rule="nonzero" fill-opacity="1" /><path clip-path="url(#clip670)" d="M1244.96 1532.4 L1250.82 1532.4 L1250.82 1568.04 L1244.96 1568.04 L1244.96 1532.4 M1244.96 1518.52 L1250.82 1518.52 L1250.82 1525.93 L1244.96 1525.93 L1244.96 1518.52 Z" fill="#000000" fill-rule="nonzero" fill-opacity="1" /><path clip-path="url(#clip670)" d="M1290.83 1539.24 Q1293.02 1535.29 1296.08 1533.41 Q1299.13 1531.54 1303.27 1531.54 Q1308.84 1531.54 1311.87 1535.45 Q1314.89 1539.33 1314.89 1546.53 L1314.89 1568.04 L1309 1568.04 L1309 1546.72 Q1309 1541.59 1307.19 1539.11 Q1305.37 1536.63 1301.65 1536.63 Q1297.1 1536.63 1294.45 1539.65 Q1291.81 1542.68 1291.81 1547.9 L1291.81 1568.04 L1285.92 1568.04 L1285.92 1546.72 Q1285.92 1541.56 1284.11 1539.11 Q1282.3 1536.63 1278.51 1536.63 Q1274.02 1536.63 1271.38 1539.68 Q1268.74 1542.71 1268.74 1547.9 L1268.74 1568.04 L1262.85 1568.04 L1262.85 1532.4 L1268.74 1532.4 L1268.74 1537.93 Q1270.74 1534.66 1273.54 1533.1 Q1276.34 1531.54 1280.2 1531.54 Q1284.08 1531.54 1286.78 1533.51 Q1289.52 1535.48 1290.83 1539.24 Z" fill="#000000" fill-rule="nonzero" fill-opacity="1" /><path clip-path="url(#clip670)" d="M1357.06 1548.76 L1357.06 1551.62 L1330.13 1551.62 Q1330.52 1557.67 1333.76 1560.85 Q1337.04 1564 1342.87 1564 Q1346.24 1564 1349.39 1563.17 Q1352.57 1562.35 1355.69 1560.69 L1355.69 1566.23 Q1352.54 1567.57 1349.23 1568.27 Q1345.92 1568.97 1342.52 1568.97 Q1333.99 1568.97 1328.99 1564 Q1324.02 1559.04 1324.02 1550.57 Q1324.02 1541.82 1328.73 1536.69 Q1333.48 1531.54 1341.5 1531.54 Q1348.69 1531.54 1352.86 1536.18 Q1357.06 1540.8 1357.06 1548.76 M1351.21 1547.04 Q1351.14 1542.23 1348.5 1539.37 Q1345.89 1536.5 1341.56 1536.5 Q1336.66 1536.5 1333.7 1539.27 Q1330.77 1542.04 1330.33 1547.07 L1351.21 1547.04 Z" fill="#000000" fill-rule="nonzero" fill-opacity="1" /><polyline clip-path="url(#clip672)" style="stroke:#000000; stroke-linecap:round; stroke-linejoin:round; stroke-width:2; stroke-opacity:0.1; fill:none" points="205.121,1404.61 2352.76,1404.61 "/>
<polyline clip-path="url(#clip672)" style="stroke:#000000; stroke-linecap:round; stroke-linejoin:round; stroke-width:2; stroke-opacity:0.1; fill:none" points="205.121,1184.78 2352.76,1184.78 "/>
<polyline clip-path="url(#clip672)" style="stroke:#000000; stroke-linecap:round; stroke-linejoin:round; stroke-width:2; stroke-opacity:0.1; fill:none" points="205.121,964.941 2352.76,964.941 "/>
<polyline clip-path="url(#clip672)" style="stroke:#000000; stroke-linecap:round; stroke-linejoin:round; stroke-width:2; stroke-opacity:0.1; fill:none" points="205.121,745.104 2352.76,745.104 "/>
<polyline clip-path="url(#clip672)" style="stroke:#000000; stroke-linecap:round; stroke-linejoin:round; stroke-width:2; stroke-opacity:0.1; fill:none" points="205.121,525.268 2352.76,525.268 "/>
<polyline clip-path="url(#clip672)" style="stroke:#000000; stroke-linecap:round; stroke-linejoin:round; stroke-width:2; stroke-opacity:0.1; fill:none" points="205.121,305.431 2352.76,305.431 "/>
<polyline clip-path="url(#clip670)" style="stroke:#000000; stroke-linecap:round; stroke-linejoin:round; stroke-width:4; stroke-opacity:1; fill:none" points="205.121,1423.18 205.121,123.472 "/>
<polyline clip-path="url(#clip670)" style="stroke:#000000; stroke-linecap:round; stroke-linejoin:round; stroke-width:4; stroke-opacity:1; fill:none" points="205.121,1404.61 224.019,1404.61 "/>
<polyline clip-path="url(#clip670)" style="stroke:#000000; stroke-linecap:round; stroke-linejoin:round; stroke-width:4; stroke-opacity:1; fill:none" points="205.121,1184.78 224.019,1184.78 "/>
<polyline clip-path="url(#clip670)" style="stroke:#000000; stroke-linecap:round; stroke-linejoin:round; stroke-width:4; stroke-opacity:1; fill:none" points="205.121,964.941 224.019,964.941 "/>
<polyline clip-path="url(#clip670)" style="stroke:#000000; stroke-linecap:round; stroke-linejoin:round; stroke-width:4; stroke-opacity:1; fill:none" points="205.121,745.104 224.019,745.104 "/>
<polyline clip-path="url(#clip670)" style="stroke:#000000; stroke-linecap:round; stroke-linejoin:round; stroke-width:4; stroke-opacity:1; fill:none" points="205.121,525.268 224.019,525.268 "/>
<polyline clip-path="url(#clip670)" style="stroke:#000000; stroke-linecap:round; stroke-linejoin:round; stroke-width:4; stroke-opacity:1; fill:none" points="205.121,305.431 224.019,305.431 "/>
<path clip-path="url(#clip670)" d="M157.177 1390.41 Q153.566 1390.41 151.737 1393.98 Q149.931 1397.52 149.931 1404.65 Q149.931 1411.76 151.737 1415.32 Q153.566 1418.86 157.177 1418.86 Q160.811 1418.86 162.616 1415.32 Q164.445 1411.76 164.445 1404.65 Q164.445 1397.52 162.616 1393.98 Q160.811 1390.41 157.177 1390.41 M157.177 1386.71 Q162.987 1386.71 166.042 1391.32 Q169.121 1395.9 169.121 1404.65 Q169.121 1413.38 166.042 1417.98 Q162.987 1422.57 157.177 1422.57 Q151.366 1422.57 148.288 1417.98 Q145.232 1413.38 145.232 1404.65 Q145.232 1395.9 148.288 1391.32 Q151.366 1386.71 157.177 1386.71 Z" fill="#000000" fill-rule="nonzero" fill-opacity="1" /><path clip-path="url(#clip670)" d="M117.825 1198.12 L125.464 1198.12 L125.464 1171.76 L117.154 1173.42 L117.154 1169.16 L125.418 1167.5 L130.093 1167.5 L130.093 1198.12 L137.732 1198.12 L137.732 1202.06 L117.825 1202.06 L117.825 1198.12 Z" fill="#000000" fill-rule="nonzero" fill-opacity="1" /><path clip-path="url(#clip670)" d="M157.177 1170.58 Q153.566 1170.58 151.737 1174.14 Q149.931 1177.68 149.931 1184.81 Q149.931 1191.92 151.737 1195.48 Q153.566 1199.03 157.177 1199.03 Q160.811 1199.03 162.616 1195.48 Q164.445 1191.92 164.445 1184.81 Q164.445 1177.68 162.616 1174.14 Q160.811 1170.58 157.177 1170.58 M157.177 1166.87 Q162.987 1166.87 166.042 1171.48 Q169.121 1176.06 169.121 1184.81 Q169.121 1193.54 166.042 1198.15 Q162.987 1202.73 157.177 1202.73 Q151.366 1202.73 148.288 1198.15 Q145.232 1193.54 145.232 1184.81 Q145.232 1176.06 148.288 1171.48 Q151.366 1166.87 157.177 1166.87 Z" fill="#000000" fill-rule="nonzero" fill-opacity="1" /><path clip-path="url(#clip670)" d="M121.043 978.286 L137.362 978.286 L137.362 982.221 L115.418 982.221 L115.418 978.286 Q118.08 975.531 122.663 970.902 Q127.269 966.249 128.45 964.906 Q130.695 962.383 131.575 960.647 Q132.478 958.888 132.478 957.198 Q132.478 954.443 130.533 952.707 Q128.612 950.971 125.51 950.971 Q123.311 950.971 120.857 951.735 Q118.427 952.499 115.649 954.05 L115.649 949.328 Q118.473 948.193 120.927 947.615 Q123.38 947.036 125.418 947.036 Q130.788 947.036 133.982 949.721 Q137.177 952.406 137.177 956.897 Q137.177 959.027 136.367 960.948 Q135.579 962.846 133.473 965.439 Q132.894 966.11 129.792 969.328 Q126.691 972.522 121.043 978.286 Z" fill="#000000" fill-rule="nonzero" fill-opacity="1" /><path clip-path="url(#clip670)" d="M157.177 950.74 Q153.566 950.74 151.737 954.304 Q149.931 957.846 149.931 964.976 Q149.931 972.082 151.737 975.647 Q153.566 979.189 157.177 979.189 Q160.811 979.189 162.616 975.647 Q164.445 972.082 164.445 964.976 Q164.445 957.846 162.616 954.304 Q160.811 950.74 157.177 950.74 M157.177 947.036 Q162.987 947.036 166.042 951.642 Q169.121 956.226 169.121 964.976 Q169.121 973.703 166.042 978.309 Q162.987 982.892 157.177 982.892 Q151.366 982.892 148.288 978.309 Q145.232 973.703 145.232 964.976 Q145.232 956.226 148.288 951.642 Q151.366 947.036 157.177 947.036 Z" fill="#000000" fill-rule="nonzero" fill-opacity="1" /><path clip-path="url(#clip670)" d="M131.181 743.75 Q134.538 744.468 136.413 746.736 Q138.311 749.005 138.311 752.338 Q138.311 757.454 134.792 760.255 Q131.274 763.056 124.793 763.056 Q122.617 763.056 120.302 762.616 Q118.01 762.199 115.556 761.343 L115.556 756.829 Q117.501 757.963 119.816 758.542 Q122.13 759.121 124.654 759.121 Q129.052 759.121 131.343 757.385 Q133.658 755.648 133.658 752.338 Q133.658 749.283 131.505 747.57 Q129.376 745.834 125.556 745.834 L121.529 745.834 L121.529 741.991 L125.742 741.991 Q129.191 741.991 131.019 740.625 Q132.848 739.236 132.848 736.644 Q132.848 733.982 130.95 732.57 Q129.075 731.135 125.556 731.135 Q123.635 731.135 121.436 731.551 Q119.237 731.968 116.598 732.848 L116.598 728.681 Q119.26 727.94 121.575 727.57 Q123.913 727.199 125.973 727.199 Q131.297 727.199 134.399 729.63 Q137.501 732.037 137.501 736.158 Q137.501 739.028 135.857 741.019 Q134.214 742.986 131.181 743.75 Z" fill="#000000" fill-rule="nonzero" fill-opacity="1" /><path clip-path="url(#clip670)" d="M157.177 730.903 Q153.566 730.903 151.737 734.468 Q149.931 738.01 149.931 745.139 Q149.931 752.246 151.737 755.81 Q153.566 759.352 157.177 759.352 Q160.811 759.352 162.616 755.81 Q164.445 752.246 164.445 745.139 Q164.445 738.01 162.616 734.468 Q160.811 730.903 157.177 730.903 M157.177 727.199 Q162.987 727.199 166.042 731.806 Q169.121 736.389 169.121 745.139 Q169.121 753.866 166.042 758.472 Q162.987 763.056 157.177 763.056 Q151.366 763.056 148.288 758.472 Q145.232 753.866 145.232 745.139 Q145.232 736.389 148.288 731.806 Q151.366 727.199 157.177 727.199 Z" fill="#000000" fill-rule="nonzero" fill-opacity="1" /><path clip-path="url(#clip670)" d="M129.862 512.062 L118.056 530.511 L129.862 530.511 L129.862 512.062 M128.635 507.988 L134.515 507.988 L134.515 530.511 L139.445 530.511 L139.445 534.4 L134.515 534.4 L134.515 542.548 L129.862 542.548 L129.862 534.4 L114.26 534.4 L114.26 529.886 L128.635 507.988 Z" fill="#000000" fill-rule="nonzero" fill-opacity="1" /><path clip-path="url(#clip670)" d="M157.177 511.067 Q153.566 511.067 151.737 514.631 Q149.931 518.173 149.931 525.303 Q149.931 532.409 151.737 535.974 Q153.566 539.516 157.177 539.516 Q160.811 539.516 162.616 535.974 Q164.445 532.409 164.445 525.303 Q164.445 518.173 162.616 514.631 Q160.811 511.067 157.177 511.067 M157.177 507.363 Q162.987 507.363 166.042 511.969 Q169.121 516.553 169.121 525.303 Q169.121 534.03 166.042 538.636 Q162.987 543.219 157.177 543.219 Q151.366 543.219 148.288 538.636 Q145.232 534.03 145.232 525.303 Q145.232 516.553 148.288 511.969 Q151.366 507.363 157.177 507.363 Z" fill="#000000" fill-rule="nonzero" fill-opacity="1" /><path clip-path="url(#clip670)" d="M117.061 288.151 L135.417 288.151 L135.417 292.087 L121.343 292.087 L121.343 300.559 Q122.362 300.212 123.38 300.05 Q124.399 299.864 125.418 299.864 Q131.205 299.864 134.584 303.036 Q137.964 306.207 137.964 311.624 Q137.964 317.202 134.492 320.304 Q131.019 323.383 124.7 323.383 Q122.524 323.383 120.255 323.012 Q118.01 322.642 115.603 321.901 L115.603 317.202 Q117.686 318.336 119.908 318.892 Q122.13 319.448 124.607 319.448 Q128.612 319.448 130.95 317.341 Q133.288 315.235 133.288 311.624 Q133.288 308.012 130.95 305.906 Q128.612 303.8 124.607 303.8 Q122.732 303.8 120.857 304.216 Q119.006 304.633 117.061 305.512 L117.061 288.151 Z" fill="#000000" fill-rule="nonzero" fill-opacity="1" /><path clip-path="url(#clip670)" d="M157.177 291.23 Q153.566 291.23 151.737 294.795 Q149.931 298.337 149.931 305.466 Q149.931 312.573 151.737 316.137 Q153.566 319.679 157.177 319.679 Q160.811 319.679 162.616 316.137 Q164.445 312.573 164.445 305.466 Q164.445 298.337 162.616 294.795 Q160.811 291.23 157.177 291.23 M157.177 287.526 Q162.987 287.526 166.042 292.133 Q169.121 296.716 169.121 305.466 Q169.121 314.193 166.042 318.799 Q162.987 323.383 157.177 323.383 Q151.366 323.383 148.288 318.799 Q145.232 314.193 145.232 305.466 Q145.232 296.716 148.288 292.133 Q151.366 287.526 157.177 287.526 Z" fill="#000000" fill-rule="nonzero" fill-opacity="1" /><path clip-path="url(#clip670)" d="M16.4842 1110.17 L16.4842 1101.51 L56.238 1080.44 L16.4842 1080.44 L16.4842 1074.2 L64.0042 1074.2 L64.0042 1082.86 L24.2503 1103.93 L64.0042 1103.93 L64.0042 1110.17 L16.4842 1110.17 Z" fill="#000000" fill-rule="nonzero" fill-opacity="1" /><path clip-path="url(#clip670)" d="M49.9359 1062.27 L28.3562 1062.27 L28.3562 1056.41 L49.7131 1056.41 Q54.7739 1056.41 57.3202 1054.44 Q59.8346 1052.46 59.8346 1048.52 Q59.8346 1043.77 56.8109 1041.04 Q53.7872 1038.27 48.5673 1038.27 L28.3562 1038.27 L28.3562 1032.41 L64.0042 1032.41 L64.0042 1038.27 L58.5296 1038.27 Q61.7762 1040.4 63.3676 1043.23 Q64.9272 1046.03 64.9272 1049.76 Q64.9272 1055.9 61.1078 1059.08 Q57.2883 1062.27 49.9359 1062.27 M27.4968 1047.53 L27.4968 1047.53 Z" fill="#000000" fill-rule="nonzero" fill-opacity="1" /><path clip-path="url(#clip670)" d="M35.1993 992.593 Q31.2526 990.397 29.3747 987.341 Q27.4968 984.286 27.4968 980.148 Q27.4968 974.578 31.4117 971.554 Q35.2948 968.53 42.4881 968.53 L64.0042 968.53 L64.0042 974.419 L42.679 974.419 Q37.5546 974.419 35.072 976.233 Q32.5894 978.047 32.5894 981.771 Q32.5894 986.323 35.6131 988.964 Q38.6368 991.606 43.8567 991.606 L64.0042 991.606 L64.0042 997.494 L42.679 997.494 Q37.5228 997.494 35.072 999.309 Q32.5894 1001.12 32.5894 1004.91 Q32.5894 1009.4 35.6449 1012.04 Q38.6686 1014.68 43.8567 1014.68 L64.0042 1014.68 L64.0042 1020.57 L28.3562 1020.57 L28.3562 1014.68 L33.8944 1014.68 Q30.616 1012.68 29.0564 1009.88 Q27.4968 1007.07 27.4968 1003.22 Q27.4968 999.34 29.4702 996.635 Q31.4436 993.898 35.1993 992.593 Z" fill="#000000" fill-rule="nonzero" fill-opacity="1" /><path clip-path="url(#clip670)" d="M46.212 931.259 Q39.7508 931.259 36.0905 933.933 Q32.3984 936.575 32.3984 941.221 Q32.3984 945.868 36.0905 948.542 Q39.7508 951.184 46.212 951.184 Q52.6732 951.184 56.3653 948.542 Q60.0256 945.868 60.0256 941.221 Q60.0256 936.575 56.3653 933.933 Q52.6732 931.259 46.212 931.259 M33.7671 951.184 Q30.5842 949.338 29.0564 946.537 Q27.4968 943.704 27.4968 939.789 Q27.4968 933.296 32.6531 929.254 Q37.8093 925.18 46.212 925.18 Q54.6147 925.18 59.771 929.254 Q64.9272 933.296 64.9272 939.789 Q64.9272 943.704 63.3994 946.537 Q61.8398 949.338 58.657 951.184 L64.0042 951.184 L64.0042 957.072 L14.479 957.072 L14.479 951.184 L33.7671 951.184 Z" fill="#000000" fill-rule="nonzero" fill-opacity="1" /><path clip-path="url(#clip670)" d="M44.7161 884.98 L47.5806 884.98 L47.5806 911.907 Q53.6281 911.525 56.8109 908.279 Q59.9619 905.001 59.9619 899.176 Q59.9619 895.802 59.1344 892.651 Q58.3069 889.468 56.6518 886.349 L62.1899 886.349 Q63.5267 889.5 64.227 892.81 Q64.9272 896.12 64.9272 899.526 Q64.9272 908.056 59.9619 913.053 Q54.9967 918.018 46.5303 918.018 Q37.7774 918.018 32.6531 913.308 Q27.4968 908.565 27.4968 900.545 Q27.4968 893.351 32.1438 889.182 Q36.7589 884.98 44.7161 884.98 M42.9973 890.837 Q38.1912 890.901 35.3266 893.542 Q32.4621 896.152 32.4621 900.481 Q32.4621 905.383 35.2312 908.343 Q38.0002 911.271 43.0292 911.716 L42.9973 890.837 Z" fill="#000000" fill-rule="nonzero" fill-opacity="1" /><path clip-path="url(#clip670)" d="M33.8307 854.712 Q33.2578 855.698 33.0032 856.876 Q32.7167 858.022 32.7167 859.422 Q32.7167 864.387 35.9632 867.061 Q39.1779 869.703 45.2253 869.703 L64.0042 869.703 L64.0042 875.591 L28.3562 875.591 L28.3562 869.703 L33.8944 869.703 Q30.6479 867.857 29.0883 864.897 Q27.4968 861.937 27.4968 857.703 Q27.4968 857.099 27.5923 856.367 Q27.656 855.635 27.8151 854.743 L33.8307 854.712 Z" fill="#000000" fill-rule="nonzero" fill-opacity="1" /><path clip-path="url(#clip670)" d="M32.4621 814.035 Q32.4621 818.745 36.1542 821.483 Q39.8145 824.22 46.212 824.22 Q52.6095 824.22 56.3017 821.514 Q59.9619 818.777 59.9619 814.035 Q59.9619 809.356 56.2698 806.619 Q52.5777 803.881 46.212 803.881 Q39.8781 803.881 36.186 806.619 Q32.4621 809.356 32.4621 814.035 M27.4968 814.035 Q27.4968 806.396 32.4621 802.035 Q37.4273 797.675 46.212 797.675 Q54.9649 797.675 59.9619 802.035 Q64.9272 806.396 64.9272 814.035 Q64.9272 821.705 59.9619 826.066 Q54.9649 830.395 46.212 830.395 Q37.4273 830.395 32.4621 826.066 Q27.4968 821.705 27.4968 814.035 Z" fill="#000000" fill-rule="nonzero" fill-opacity="1" /><path clip-path="url(#clip670)" d="M14.479 769.92 L19.3487 769.92 L19.3487 775.522 Q19.3487 778.673 20.6219 779.914 Q21.895 781.124 25.2052 781.124 L28.3562 781.124 L28.3562 771.48 L32.9077 771.48 L32.9077 781.124 L64.0042 781.124 L64.0042 787.012 L32.9077 787.012 L32.9077 792.614 L28.3562 792.614 L28.3562 787.012 L25.8736 787.012 Q19.9216 787.012 17.2162 784.243 Q14.479 781.474 14.479 775.458 L14.479 769.92 Z" fill="#000000" fill-rule="nonzero" fill-opacity="1" /><path clip-path="url(#clip670)" d="M28.3562 744.298 L28.3562 738.442 L64.0042 738.442 L64.0042 744.298 L28.3562 744.298 M14.479 744.298 L14.479 738.442 L21.895 738.442 L21.895 744.298 L14.479 744.298 Z" fill="#000000" fill-rule="nonzero" fill-opacity="1" /><path clip-path="url(#clip670)" d="M42.4881 696.556 L64.0042 696.556 L64.0042 702.412 L42.679 702.412 Q37.6183 702.412 35.1038 704.385 Q32.5894 706.359 32.5894 710.305 Q32.5894 715.048 35.6131 717.785 Q38.6368 720.522 43.8567 720.522 L64.0042 720.522 L64.0042 726.411 L28.3562 726.411 L28.3562 720.522 L33.8944 720.522 Q30.6797 718.422 29.0883 715.589 Q27.4968 712.724 27.4968 709.001 Q27.4968 702.858 31.3163 699.707 Q35.1038 696.556 42.4881 696.556 Z" fill="#000000" fill-rule="nonzero" fill-opacity="1" /><path clip-path="url(#clip670)" d="M14.479 666.828 L19.3487 666.828 L19.3487 672.43 Q19.3487 675.581 20.6219 676.822 Q21.895 678.031 25.2052 678.031 L28.3562 678.031 L28.3562 668.387 L32.9077 668.387 L32.9077 678.031 L64.0042 678.031 L64.0042 683.92 L32.9077 683.92 L32.9077 689.521 L28.3562 689.521 L28.3562 683.92 L25.8736 683.92 Q19.9216 683.92 17.2162 681.151 Q14.479 678.381 14.479 672.366 L14.479 666.828 Z" fill="#000000" fill-rule="nonzero" fill-opacity="1" /><path clip-path="url(#clip670)" d="M44.7161 631.434 L47.5806 631.434 L47.5806 658.361 Q53.6281 657.979 56.8109 654.733 Q59.9619 651.455 59.9619 645.63 Q59.9619 642.256 59.1344 639.105 Q58.3069 635.922 56.6518 632.803 L62.1899 632.803 Q63.5267 635.954 64.227 639.264 Q64.9272 642.574 64.9272 645.98 Q64.9272 654.51 59.9619 659.507 Q54.9967 664.472 46.5303 664.472 Q37.7774 664.472 32.6531 659.762 Q27.4968 655.019 27.4968 646.999 Q27.4968 639.805 32.1438 635.636 Q36.7589 631.434 44.7161 631.434 M42.9973 637.291 Q38.1912 637.354 35.3266 639.996 Q32.4621 642.606 32.4621 646.935 Q32.4621 651.836 35.2312 654.797 Q38.0002 657.725 43.0292 658.17 L42.9973 637.291 Z" fill="#000000" fill-rule="nonzero" fill-opacity="1" /><path clip-path="url(#clip670)" d="M29.7248 596.168 L35.1993 596.168 Q33.8307 598.651 33.1623 601.165 Q32.4621 603.648 32.4621 606.194 Q32.4621 611.892 36.0905 615.043 Q39.6872 618.194 46.212 618.194 Q52.7369 618.194 56.3653 615.043 Q59.9619 611.892 59.9619 606.194 Q59.9619 603.648 59.2935 601.165 Q58.5933 598.651 57.2247 596.168 L62.6355 596.168 Q63.7814 598.619 64.3543 601.261 Q64.9272 603.871 64.9272 606.831 Q64.9272 614.884 59.8664 619.626 Q54.8057 624.368 46.212 624.368 Q37.491 624.368 32.4939 619.594 Q27.4968 614.788 27.4968 606.449 Q27.4968 603.744 28.0697 601.165 Q28.6108 598.587 29.7248 596.168 Z" fill="#000000" fill-rule="nonzero" fill-opacity="1" /><path clip-path="url(#clip670)" d="M18.2347 580.19 L28.3562 580.19 L28.3562 568.127 L32.9077 568.127 L32.9077 580.19 L52.2594 580.19 Q56.6199 580.19 57.8613 579.013 Q59.1026 577.803 59.1026 574.143 L59.1026 568.127 L64.0042 568.127 L64.0042 574.143 Q64.0042 580.923 61.4897 583.501 Q58.9434 586.079 52.2594 586.079 L32.9077 586.079 L32.9077 590.376 L28.3562 590.376 L28.3562 586.079 L18.2347 586.079 L18.2347 580.19 Z" fill="#000000" fill-rule="nonzero" fill-opacity="1" /><path clip-path="url(#clip670)" d="M28.3562 560.425 L28.3562 554.568 L64.0042 554.568 L64.0042 560.425 L28.3562 560.425 M14.479 560.425 L14.479 554.568 L21.895 554.568 L21.895 560.425 L14.479 560.425 Z" fill="#000000" fill-rule="nonzero" fill-opacity="1" /><path clip-path="url(#clip670)" d="M32.4621 528.501 Q32.4621 533.212 36.1542 535.949 Q39.8145 538.686 46.212 538.686 Q52.6095 538.686 56.3017 535.981 Q59.9619 533.243 59.9619 528.501 Q59.9619 523.822 56.2698 521.085 Q52.5777 518.348 46.212 518.348 Q39.8781 518.348 36.186 521.085 Q32.4621 523.822 32.4621 528.501 M27.4968 528.501 Q27.4968 520.862 32.4621 516.502 Q37.4273 512.141 46.212 512.141 Q54.9649 512.141 59.9619 516.502 Q64.9272 520.862 64.9272 528.501 Q64.9272 536.172 59.9619 540.532 Q54.9649 544.861 46.212 544.861 Q37.4273 544.861 32.4621 540.532 Q27.4968 536.172 27.4968 528.501 Z" fill="#000000" fill-rule="nonzero" fill-opacity="1" /><path clip-path="url(#clip670)" d="M42.4881 472.801 L64.0042 472.801 L64.0042 478.657 L42.679 478.657 Q37.6183 478.657 35.1038 480.631 Q32.5894 482.604 32.5894 486.551 Q32.5894 491.293 35.6131 494.031 Q38.6368 496.768 43.8567 496.768 L64.0042 496.768 L64.0042 502.656 L28.3562 502.656 L28.3562 496.768 L33.8944 496.768 Q30.6797 494.667 29.0883 491.834 Q27.4968 488.97 27.4968 485.246 Q27.4968 479.103 31.3163 475.952 Q35.1038 472.801 42.4881 472.801 Z" fill="#000000" fill-rule="nonzero" fill-opacity="1" /><path clip-path="url(#clip670)" d="M29.4065 438.394 L34.9447 438.394 Q33.6716 440.877 33.035 443.551 Q32.3984 446.224 32.3984 449.089 Q32.3984 453.449 33.7352 455.645 Q35.072 457.81 37.7456 457.81 Q39.7826 457.81 40.9603 456.25 Q42.1061 454.691 43.1565 449.98 L43.6021 447.975 Q44.9389 441.736 47.3897 439.126 Q49.8086 436.485 54.1691 436.485 Q59.1344 436.485 62.0308 440.431 Q64.9272 444.346 64.9272 451.221 Q64.9272 454.086 64.3543 457.205 Q63.8132 460.292 62.6992 463.73 L56.6518 463.73 Q58.3387 460.483 59.198 457.332 Q60.0256 454.181 60.0256 451.094 Q60.0256 446.956 58.6251 444.728 Q57.1929 442.5 54.6147 442.5 Q52.2276 442.5 50.9545 444.123 Q49.6813 445.715 48.5037 451.158 L48.0262 453.195 Q46.8804 458.637 44.5251 461.056 Q42.138 463.475 38.0002 463.475 Q32.9713 463.475 30.2341 459.91 Q27.4968 456.346 27.4968 449.789 Q27.4968 446.542 27.9743 443.678 Q28.4517 440.813 29.4065 438.394 Z" fill="#000000" fill-rule="nonzero" fill-opacity="1" /><path clip-path="url(#clip670)" d="M453.708 20.1573 L442.609 50.2555 L464.848 50.2555 L453.708 20.1573 M449.09 12.096 L458.367 12.096 L481.417 72.576 L472.91 72.576 L467.401 57.061 L440.138 57.061 L434.629 72.576 L426 72.576 L449.09 12.096 Z" fill="#000000" fill-rule="nonzero" fill-opacity="1" /><path clip-path="url(#clip670)" d="M521.116 28.9478 L521.116 35.9153 Q517.956 34.1734 514.756 33.3227 Q511.596 32.4315 508.355 32.4315 Q501.104 32.4315 497.094 37.0496 Q493.083 41.6271 493.083 49.9314 Q493.083 58.2358 497.094 62.8538 Q501.104 67.4314 508.355 67.4314 Q511.596 67.4314 514.756 66.5807 Q517.956 65.6895 521.116 63.9476 L521.116 70.8341 Q517.996 72.2924 514.634 73.0216 Q511.312 73.7508 507.545 73.7508 Q497.296 73.7508 491.26 67.3098 Q485.225 60.8689 485.225 49.9314 Q485.225 38.832 491.301 32.472 Q497.418 26.1121 508.031 26.1121 Q511.474 26.1121 514.756 26.8413 Q518.037 27.5299 521.116 28.9478 Z" fill="#000000" fill-rule="nonzero" fill-opacity="1" /><path clip-path="url(#clip670)" d="M541.451 14.324 L541.451 27.2059 L556.804 27.2059 L556.804 32.9987 L541.451 32.9987 L541.451 57.6282 Q541.451 63.1779 542.95 64.7578 Q544.489 66.3376 549.148 66.3376 L556.804 66.3376 L556.804 72.576 L549.148 72.576 Q540.519 72.576 537.238 69.3758 Q533.957 66.1351 533.957 57.6282 L533.957 32.9987 L528.488 32.9987 L528.488 27.2059 L533.957 27.2059 L533.957 14.324 L541.451 14.324 Z" fill="#000000" fill-rule="nonzero" fill-opacity="1" /><path clip-path="url(#clip670)" d="M565.838 54.671 L565.838 27.2059 L573.291 27.2059 L573.291 54.3874 Q573.291 60.8284 575.803 64.0691 Q578.314 67.2693 583.337 67.2693 Q589.373 67.2693 592.857 63.421 Q596.381 59.5726 596.381 52.9291 L596.381 27.2059 L603.835 27.2059 L603.835 72.576 L596.381 72.576 L596.381 65.6084 Q593.667 69.7404 590.062 71.7658 Q586.497 73.7508 581.758 73.7508 Q573.939 73.7508 569.888 68.8897 Q565.838 64.0286 565.838 54.671 M584.593 26.1121 L584.593 26.1121 Z" fill="#000000" fill-rule="nonzero" fill-opacity="1" /><path clip-path="url(#clip670)" d="M639.807 49.7694 Q630.774 49.7694 627.29 51.8354 Q623.806 53.9013 623.806 58.8839 Q623.806 62.8538 626.399 65.2034 Q629.032 67.5124 633.528 67.5124 Q639.726 67.5124 643.453 63.1374 Q647.22 58.7219 647.22 51.4303 L647.22 49.7694 L639.807 49.7694 M654.674 46.6907 L654.674 72.576 L647.22 72.576 L647.22 65.6895 Q644.668 69.8214 640.86 71.8063 Q637.052 73.7508 631.543 73.7508 Q624.576 73.7508 620.444 69.8619 Q616.352 65.9325 616.352 59.3701 Q616.352 51.7138 621.456 47.825 Q626.601 43.9361 636.769 43.9361 L647.22 43.9361 L647.22 43.2069 Q647.22 38.0623 643.817 35.2672 Q640.455 32.4315 634.338 32.4315 Q630.449 32.4315 626.763 33.3632 Q623.077 34.295 619.674 36.1584 L619.674 29.2718 Q623.765 27.692 627.614 26.9223 Q631.462 26.1121 635.108 26.1121 Q644.952 26.1121 649.813 31.2163 Q654.674 36.3204 654.674 46.6907 Z" fill="#000000" fill-rule="nonzero" fill-opacity="1" /><path clip-path="url(#clip670)" d="M670.027 9.54393 L677.48 9.54393 L677.48 72.576 L670.027 72.576 L670.027 9.54393 Z" fill="#000000" fill-rule="nonzero" fill-opacity="1" /><path clip-path="url(#clip670)" d="M714.101 27.2059 L722 27.2059 L736.178 65.2844 L750.356 27.2059 L758.255 27.2059 L741.242 72.576 L731.114 72.576 L714.101 27.2059 Z" fill="#000000" fill-rule="nonzero" fill-opacity="1" /><path clip-path="url(#clip670)" d="M797.468 28.5427 L797.468 35.5912 Q794.309 33.9709 790.906 33.1607 Q787.503 32.3505 783.857 32.3505 Q778.307 32.3505 775.512 34.0519 Q772.758 35.7533 772.758 39.156 Q772.758 41.7486 774.743 43.2475 Q776.728 44.7058 782.723 46.0426 L785.275 46.6097 Q793.215 48.3111 796.537 51.4303 Q799.899 54.509 799.899 60.0587 Q799.899 66.3781 794.876 70.0644 Q789.893 73.7508 781.143 73.7508 Q777.497 73.7508 773.527 73.0216 Q769.598 72.3329 765.223 70.9151 L765.223 63.2184 Q769.355 65.3654 773.365 66.4591 Q777.376 67.5124 781.305 67.5124 Q786.571 67.5124 789.407 65.73 Q792.243 63.9071 792.243 60.6258 Q792.243 57.5877 790.177 55.9673 Q788.151 54.3469 781.224 52.8481 L778.632 52.2405 Q771.704 50.7821 768.626 47.7845 Q765.547 44.7463 765.547 39.4801 Q765.547 33.0797 770.084 29.5959 Q774.621 26.1121 782.966 26.1121 Q787.098 26.1121 790.744 26.7198 Q794.39 27.3274 797.468 28.5427 Z" fill="#000000" fill-rule="nonzero" fill-opacity="1" /><path clip-path="url(#clip670)" d="M838.463 12.096 L876.704 12.096 L876.704 18.9825 L846.646 18.9825 L846.646 36.8875 L875.448 36.8875 L875.448 43.7741 L846.646 43.7741 L846.646 65.6895 L877.433 65.6895 L877.433 72.576 L838.463 72.576 L838.463 12.096 Z" fill="#000000" fill-rule="nonzero" fill-opacity="1" /><path clip-path="url(#clip670)" d="M919.481 28.5427 L919.481 35.5912 Q916.322 33.9709 912.919 33.1607 Q909.516 32.3505 905.87 32.3505 Q900.321 32.3505 897.526 34.0519 Q894.771 35.7533 894.771 39.156 Q894.771 41.7486 896.756 43.2475 Q898.741 44.7058 904.736 46.0426 L907.288 46.6097 Q915.228 48.3111 918.55 51.4303 Q921.912 54.509 921.912 60.0587 Q921.912 66.3781 916.889 70.0644 Q911.906 73.7508 903.156 73.7508 Q899.51 73.7508 895.541 73.0216 Q891.611 72.3329 887.236 70.9151 L887.236 63.2184 Q891.368 65.3654 895.379 66.4591 Q899.389 67.5124 903.318 67.5124 Q908.585 67.5124 911.42 65.73 Q914.256 63.9071 914.256 60.6258 Q914.256 57.5877 912.19 55.9673 Q910.164 54.3469 903.237 52.8481 L900.645 52.2405 Q893.718 50.7821 890.639 47.7845 Q887.56 44.7463 887.56 39.4801 Q887.56 33.0797 892.097 29.5959 Q896.634 26.1121 904.979 26.1121 Q909.111 26.1121 912.757 26.7198 Q916.403 27.3274 919.481 28.5427 Z" fill="#000000" fill-rule="nonzero" fill-opacity="1" /><path clip-path="url(#clip670)" d="M941.154 14.324 L941.154 27.2059 L956.507 27.2059 L956.507 32.9987 L941.154 32.9987 L941.154 57.6282 Q941.154 63.1779 942.653 64.7578 Q944.192 66.3376 948.851 66.3376 L956.507 66.3376 L956.507 72.576 L948.851 72.576 Q940.222 72.576 936.941 69.3758 Q933.66 66.1351 933.66 57.6282 L933.66 32.9987 L928.191 32.9987 L928.191 27.2059 L933.66 27.2059 L933.66 14.324 L941.154 14.324 Z" fill="#000000" fill-rule="nonzero" fill-opacity="1" /><path clip-path="url(#clip670)" d="M966.31 27.2059 L973.764 27.2059 L973.764 72.576 L966.31 72.576 L966.31 27.2059 M966.31 9.54393 L973.764 9.54393 L973.764 18.9825 L966.31 18.9825 L966.31 9.54393 Z" fill="#000000" fill-rule="nonzero" fill-opacity="1" /><path clip-path="url(#clip670)" d="M1024.68 35.9153 Q1027.48 30.8922 1031.37 28.5022 Q1035.26 26.1121 1040.52 26.1121 Q1047.61 26.1121 1051.46 31.0947 Q1055.31 36.0368 1055.31 45.1919 L1055.31 72.576 L1047.81 72.576 L1047.81 45.4349 Q1047.81 38.913 1045.51 35.7533 Q1043.2 32.5936 1038.46 32.5936 Q1032.66 32.5936 1029.3 36.4419 Q1025.94 40.2903 1025.94 46.9338 L1025.94 72.576 L1018.45 72.576 L1018.45 45.4349 Q1018.45 38.8725 1016.14 35.7533 Q1013.83 32.5936 1009.01 32.5936 Q1003.29 32.5936 999.932 36.4824 Q996.57 40.3308 996.57 46.9338 L996.57 72.576 L989.076 72.576 L989.076 27.2059 L996.57 27.2059 L996.57 34.2544 Q999.122 30.082 1002.69 28.0971 Q1006.25 26.1121 1011.15 26.1121 Q1016.1 26.1121 1019.54 28.6237 Q1023.02 31.1352 1024.68 35.9153 Z" fill="#000000" fill-rule="nonzero" fill-opacity="1" /><path clip-path="url(#clip670)" d="M1090.79 49.7694 Q1081.76 49.7694 1078.28 51.8354 Q1074.79 53.9013 1074.79 58.8839 Q1074.79 62.8538 1077.39 65.2034 Q1080.02 67.5124 1084.52 67.5124 Q1090.71 67.5124 1094.44 63.1374 Q1098.21 58.7219 1098.21 51.4303 L1098.21 49.7694 L1090.79 49.7694 M1105.66 46.6907 L1105.66 72.576 L1098.21 72.576 L1098.21 65.6895 Q1095.66 69.8214 1091.85 71.8063 Q1088.04 73.7508 1082.53 73.7508 Q1075.56 73.7508 1071.43 69.8619 Q1067.34 65.9325 1067.34 59.3701 Q1067.34 51.7138 1072.44 47.825 Q1077.59 43.9361 1087.76 43.9361 L1098.21 43.9361 L1098.21 43.2069 Q1098.21 38.0623 1094.8 35.2672 Q1091.44 32.4315 1085.33 32.4315 Q1081.44 32.4315 1077.75 33.3632 Q1074.06 34.295 1070.66 36.1584 L1070.66 29.2718 Q1074.75 27.692 1078.6 26.9223 Q1082.45 26.1121 1086.1 26.1121 Q1095.94 26.1121 1100.8 31.2163 Q1105.66 36.3204 1105.66 46.6907 Z" fill="#000000" fill-rule="nonzero" fill-opacity="1" /><path clip-path="url(#clip670)" d="M1128.39 14.324 L1128.39 27.2059 L1143.74 27.2059 L1143.74 32.9987 L1128.39 32.9987 L1128.39 57.6282 Q1128.39 63.1779 1129.89 64.7578 Q1131.42 66.3376 1136.08 66.3376 L1143.74 66.3376 L1143.74 72.576 L1136.08 72.576 Q1127.45 72.576 1124.17 69.3758 Q1120.89 66.1351 1120.89 57.6282 L1120.89 32.9987 L1115.42 32.9987 L1115.42 27.2059 L1120.89 27.2059 L1120.89 14.324 L1128.39 14.324 Z" fill="#000000" fill-rule="nonzero" fill-opacity="1" /><path clip-path="url(#clip670)" d="M1192.35 48.0275 L1192.35 51.6733 L1158.08 51.6733 Q1158.57 59.3701 1162.7 63.421 Q1166.87 67.4314 1174.28 67.4314 Q1178.58 67.4314 1182.59 66.3781 Q1186.64 65.3249 1190.61 63.2184 L1190.61 70.267 Q1186.6 71.9684 1182.39 72.8596 Q1178.17 73.7508 1173.84 73.7508 Q1162.98 73.7508 1156.62 67.4314 Q1150.3 61.1119 1150.3 50.3365 Q1150.3 39.1965 1156.3 32.6746 Q1162.33 26.1121 1172.54 26.1121 Q1181.7 26.1121 1187 32.0264 Q1192.35 37.9003 1192.35 48.0275 M1184.9 45.84 Q1184.82 39.7232 1181.45 36.0774 Q1178.13 32.4315 1172.62 32.4315 Q1166.38 32.4315 1162.62 35.9558 Q1158.89 39.4801 1158.32 45.8805 L1184.9 45.84 Z" fill="#000000" fill-rule="nonzero" fill-opacity="1" /><path clip-path="url(#clip670)" d="M1234.44 34.0924 L1234.44 9.54393 L1241.89 9.54393 L1241.89 72.576 L1234.44 72.576 L1234.44 65.7705 Q1232.09 69.8214 1228.48 71.8063 Q1224.92 73.7508 1219.9 73.7508 Q1211.67 73.7508 1206.49 67.1883 Q1201.34 60.6258 1201.34 49.9314 Q1201.34 39.2371 1206.49 32.6746 Q1211.67 26.1121 1219.9 26.1121 Q1224.92 26.1121 1228.48 28.0971 Q1232.09 30.0415 1234.44 34.0924 M1209.04 49.9314 Q1209.04 58.1548 1212.4 62.8538 Q1215.81 67.5124 1221.72 67.5124 Q1227.63 67.5124 1231.04 62.8538 Q1234.44 58.1548 1234.44 49.9314 Q1234.44 41.7081 1231.04 37.0496 Q1227.63 32.3505 1221.72 32.3505 Q1215.81 32.3505 1212.4 37.0496 Q1209.04 41.7081 1209.04 49.9314 Z" fill="#000000" fill-rule="nonzero" fill-opacity="1" /><path clip-path="url(#clip670)" d="M1321.33 45.1919 L1321.33 72.576 L1313.88 72.576 L1313.88 45.4349 Q1313.88 38.994 1311.37 35.7938 Q1308.85 32.5936 1303.83 32.5936 Q1297.8 32.5936 1294.31 36.4419 Q1290.83 40.2903 1290.83 46.9338 L1290.83 72.576 L1283.33 72.576 L1283.33 27.2059 L1290.83 27.2059 L1290.83 34.2544 Q1293.5 30.163 1297.11 28.1376 Q1300.75 26.1121 1305.49 26.1121 Q1313.31 26.1121 1317.32 30.9732 Q1321.33 35.7938 1321.33 45.1919 Z" fill="#000000" fill-rule="nonzero" fill-opacity="1" /><path clip-path="url(#clip670)" d="M1335.43 54.671 L1335.43 27.2059 L1342.88 27.2059 L1342.88 54.3874 Q1342.88 60.8284 1345.39 64.0691 Q1347.91 67.2693 1352.93 67.2693 Q1358.96 67.2693 1362.45 63.421 Q1365.97 59.5726 1365.97 52.9291 L1365.97 27.2059 L1373.43 27.2059 L1373.43 72.576 L1365.97 72.576 L1365.97 65.6084 Q1363.26 69.7404 1359.65 71.7658 Q1356.09 73.7508 1351.35 73.7508 Q1343.53 73.7508 1339.48 68.8897 Q1335.43 64.0286 1335.43 54.671 M1354.18 26.1121 L1354.18 26.1121 Z" fill="#000000" fill-rule="nonzero" fill-opacity="1" /><path clip-path="url(#clip670)" d="M1424.1 35.9153 Q1426.9 30.8922 1430.79 28.5022 Q1434.68 26.1121 1439.94 26.1121 Q1447.03 26.1121 1450.88 31.0947 Q1454.73 36.0368 1454.73 45.1919 L1454.73 72.576 L1447.23 72.576 L1447.23 45.4349 Q1447.23 38.913 1444.92 35.7533 Q1442.62 32.5936 1437.88 32.5936 Q1432.08 32.5936 1428.72 36.4419 Q1425.36 40.2903 1425.36 46.9338 L1425.36 72.576 L1417.86 72.576 L1417.86 45.4349 Q1417.86 38.8725 1415.56 35.7533 Q1413.25 32.5936 1408.43 32.5936 Q1402.71 32.5936 1399.35 36.4824 Q1395.99 40.3308 1395.99 46.9338 L1395.99 72.576 L1388.5 72.576 L1388.5 27.2059 L1395.99 27.2059 L1395.99 34.2544 Q1398.54 30.082 1402.11 28.0971 Q1405.67 26.1121 1410.57 26.1121 Q1415.51 26.1121 1418.96 28.6237 Q1422.44 31.1352 1424.1 35.9153 Z" fill="#000000" fill-rule="nonzero" fill-opacity="1" /><path clip-path="url(#clip670)" d="M1502.16 49.9314 Q1502.16 41.7081 1498.76 37.0496 Q1495.4 32.3505 1489.48 32.3505 Q1483.57 32.3505 1480.17 37.0496 Q1476.8 41.7081 1476.8 49.9314 Q1476.8 58.1548 1480.17 62.8538 Q1483.57 67.5124 1489.48 67.5124 Q1495.4 67.5124 1498.76 62.8538 Q1502.16 58.1548 1502.16 49.9314 M1476.8 34.0924 Q1479.15 30.0415 1482.72 28.0971 Q1486.32 26.1121 1491.31 26.1121 Q1499.57 26.1121 1504.72 32.6746 Q1509.9 39.2371 1509.9 49.9314 Q1509.9 60.6258 1504.72 67.1883 Q1499.57 73.7508 1491.31 73.7508 Q1486.32 73.7508 1482.72 71.8063 Q1479.15 69.8214 1476.8 65.7705 L1476.8 72.576 L1469.31 72.576 L1469.31 9.54393 L1476.8 9.54393 L1476.8 34.0924 Z" fill="#000000" fill-rule="nonzero" fill-opacity="1" /><path clip-path="url(#clip670)" d="M1561.06 48.0275 L1561.06 51.6733 L1526.79 51.6733 Q1527.28 59.3701 1531.41 63.421 Q1535.58 67.4314 1543 67.4314 Q1547.29 67.4314 1551.3 66.3781 Q1555.35 65.3249 1559.32 63.2184 L1559.32 70.267 Q1555.31 71.9684 1551.1 72.8596 Q1546.89 73.7508 1542.55 73.7508 Q1531.69 73.7508 1525.33 67.4314 Q1519.02 61.1119 1519.02 50.3365 Q1519.02 39.1965 1525.01 32.6746 Q1531.05 26.1121 1541.25 26.1121 Q1550.41 26.1121 1555.72 32.0264 Q1561.06 37.9003 1561.06 48.0275 M1553.61 45.84 Q1553.53 39.7232 1550.17 36.0774 Q1546.84 32.4315 1541.34 32.4315 Q1535.1 32.4315 1531.33 35.9558 Q1527.6 39.4801 1527.04 45.8805 L1553.61 45.84 Z" fill="#000000" fill-rule="nonzero" fill-opacity="1" /><path clip-path="url(#clip670)" d="M1599.59 34.1734 Q1598.33 33.4443 1596.83 33.1202 Q1595.37 32.7556 1593.59 32.7556 Q1587.27 32.7556 1583.87 36.8875 Q1580.51 40.9789 1580.51 48.6757 L1580.51 72.576 L1573.01 72.576 L1573.01 27.2059 L1580.51 27.2059 L1580.51 34.2544 Q1582.86 30.1225 1586.62 28.1376 Q1590.39 26.1121 1595.78 26.1121 Q1596.55 26.1121 1597.48 26.2337 Q1598.41 26.3147 1599.55 26.5172 L1599.59 34.1734 Z" fill="#000000" fill-rule="nonzero" fill-opacity="1" /><path clip-path="url(#clip670)" d="M1651.36 32.4315 Q1645.36 32.4315 1641.88 37.1306 Q1638.4 41.7891 1638.4 49.9314 Q1638.4 58.0738 1641.84 62.7728 Q1645.32 67.4314 1651.36 67.4314 Q1657.31 67.4314 1660.8 62.7323 Q1664.28 58.0333 1664.28 49.9314 Q1664.28 41.8701 1660.8 37.1711 Q1657.31 32.4315 1651.36 32.4315 M1651.36 26.1121 Q1661.08 26.1121 1666.63 32.4315 Q1672.18 38.7509 1672.18 49.9314 Q1672.18 61.0714 1666.63 67.4314 Q1661.08 73.7508 1651.36 73.7508 Q1641.6 73.7508 1636.05 67.4314 Q1630.54 61.0714 1630.54 49.9314 Q1630.54 38.7509 1636.05 32.4315 Q1641.6 26.1121 1651.36 26.1121 Z" fill="#000000" fill-rule="nonzero" fill-opacity="1" /><path clip-path="url(#clip670)" d="M1707.5 9.54393 L1707.5 15.7418 L1700.37 15.7418 Q1696.36 15.7418 1694.78 17.3622 Q1693.24 18.9825 1693.24 23.1955 L1693.24 27.2059 L1705.52 27.2059 L1705.52 32.9987 L1693.24 32.9987 L1693.24 72.576 L1685.75 72.576 L1685.75 32.9987 L1678.62 32.9987 L1678.62 27.2059 L1685.75 27.2059 L1685.75 24.0462 Q1685.75 16.471 1689.27 13.0277 Q1692.8 9.54393 1700.46 9.54393 L1707.5 9.54393 Z" fill="#000000" fill-rule="nonzero" fill-opacity="1" /><path clip-path="url(#clip670)" d="M1740.11 27.2059 L1747.57 27.2059 L1747.57 72.576 L1740.11 72.576 L1740.11 27.2059 M1740.11 9.54393 L1747.57 9.54393 L1747.57 18.9825 L1740.11 18.9825 L1740.11 9.54393 Z" fill="#000000" fill-rule="nonzero" fill-opacity="1" /><path clip-path="url(#clip670)" d="M1800.88 45.1919 L1800.88 72.576 L1793.42 72.576 L1793.42 45.4349 Q1793.42 38.994 1790.91 35.7938 Q1788.4 32.5936 1783.38 32.5936 Q1777.34 32.5936 1773.86 36.4419 Q1770.37 40.2903 1770.37 46.9338 L1770.37 72.576 L1762.88 72.576 L1762.88 27.2059 L1770.37 27.2059 L1770.37 34.2544 Q1773.05 30.163 1776.65 28.1376 Q1780.3 26.1121 1785.04 26.1121 Q1792.86 26.1121 1796.87 30.9732 Q1800.88 35.7938 1800.88 45.1919 Z" fill="#000000" fill-rule="nonzero" fill-opacity="1" /><path clip-path="url(#clip670)" d="M1838.71 9.54393 L1838.71 15.7418 L1831.58 15.7418 Q1827.57 15.7418 1825.99 17.3622 Q1824.45 18.9825 1824.45 23.1955 L1824.45 27.2059 L1836.73 27.2059 L1836.73 32.9987 L1824.45 32.9987 L1824.45 72.576 L1816.96 72.576 L1816.96 32.9987 L1809.83 32.9987 L1809.83 27.2059 L1816.96 27.2059 L1816.96 24.0462 Q1816.96 16.471 1820.48 13.0277 Q1824.01 9.54393 1831.66 9.54393 L1838.71 9.54393 Z" fill="#000000" fill-rule="nonzero" fill-opacity="1" /><path clip-path="url(#clip670)" d="M1883.76 48.0275 L1883.76 51.6733 L1849.49 51.6733 Q1849.97 59.3701 1854.11 63.421 Q1858.28 67.4314 1865.69 67.4314 Q1869.99 67.4314 1874 66.3781 Q1878.05 65.3249 1882.02 63.2184 L1882.02 70.267 Q1878.01 71.9684 1873.79 72.8596 Q1869.58 73.7508 1865.25 73.7508 Q1854.39 73.7508 1848.03 67.4314 Q1841.71 61.1119 1841.71 50.3365 Q1841.71 39.1965 1847.71 32.6746 Q1853.74 26.1121 1863.95 26.1121 Q1873.1 26.1121 1878.41 32.0264 Q1883.76 37.9003 1883.76 48.0275 M1876.31 45.84 Q1876.22 39.7232 1872.86 36.0774 Q1869.54 32.4315 1864.03 32.4315 Q1857.79 32.4315 1854.03 35.9558 Q1850.3 39.4801 1849.73 45.8805 L1876.31 45.84 Z" fill="#000000" fill-rule="nonzero" fill-opacity="1" /><path clip-path="url(#clip670)" d="M1928.64 28.9478 L1928.64 35.9153 Q1925.48 34.1734 1922.28 33.3227 Q1919.12 32.4315 1915.88 32.4315 Q1908.63 32.4315 1904.62 37.0496 Q1900.61 41.6271 1900.61 49.9314 Q1900.61 58.2358 1904.62 62.8538 Q1908.63 67.4314 1915.88 67.4314 Q1919.12 67.4314 1922.28 66.5807 Q1925.48 65.6895 1928.64 63.9476 L1928.64 70.8341 Q1925.52 72.2924 1922.16 73.0216 Q1918.84 73.7508 1915.07 73.7508 Q1904.82 73.7508 1898.79 67.3098 Q1892.75 60.8689 1892.75 49.9314 Q1892.75 38.832 1898.83 32.472 Q1904.94 26.1121 1915.56 26.1121 Q1919 26.1121 1922.28 26.8413 Q1925.56 27.5299 1928.64 28.9478 Z" fill="#000000" fill-rule="nonzero" fill-opacity="1" /><path clip-path="url(#clip670)" d="M1948.98 14.324 L1948.98 27.2059 L1964.33 27.2059 L1964.33 32.9987 L1948.98 32.9987 L1948.98 57.6282 Q1948.98 63.1779 1950.48 64.7578 Q1952.02 66.3376 1956.67 66.3376 L1964.33 66.3376 L1964.33 72.576 L1956.67 72.576 Q1948.05 72.576 1944.77 69.3758 Q1941.48 66.1351 1941.48 57.6282 L1941.48 32.9987 L1936.02 32.9987 L1936.02 27.2059 L1941.48 27.2059 L1941.48 14.324 L1948.98 14.324 Z" fill="#000000" fill-rule="nonzero" fill-opacity="1" /><path clip-path="url(#clip670)" d="M1974.13 27.2059 L1981.59 27.2059 L1981.59 72.576 L1974.13 72.576 L1974.13 27.2059 M1974.13 9.54393 L1981.59 9.54393 L1981.59 18.9825 L1974.13 18.9825 L1974.13 9.54393 Z" fill="#000000" fill-rule="nonzero" fill-opacity="1" /><path clip-path="url(#clip670)" d="M2014.76 32.4315 Q2008.77 32.4315 2005.29 37.1306 Q2001.8 41.7891 2001.8 49.9314 Q2001.8 58.0738 2005.25 62.7728 Q2008.73 67.4314 2014.76 67.4314 Q2020.72 67.4314 2024.2 62.7323 Q2027.69 58.0333 2027.69 49.9314 Q2027.69 41.8701 2024.2 37.1711 Q2020.72 32.4315 2014.76 32.4315 M2014.76 26.1121 Q2024.49 26.1121 2030.04 32.4315 Q2035.59 38.7509 2035.59 49.9314 Q2035.59 61.0714 2030.04 67.4314 Q2024.49 73.7508 2014.76 73.7508 Q2005 73.7508 1999.45 67.4314 Q1993.94 61.0714 1993.94 49.9314 Q1993.94 38.7509 1999.45 32.4315 Q2005 26.1121 2014.76 26.1121 Z" fill="#000000" fill-rule="nonzero" fill-opacity="1" /><path clip-path="url(#clip670)" d="M2085.66 45.1919 L2085.66 72.576 L2078.2 72.576 L2078.2 45.4349 Q2078.2 38.994 2075.69 35.7938 Q2073.18 32.5936 2068.16 32.5936 Q2062.12 32.5936 2058.64 36.4419 Q2055.15 40.2903 2055.15 46.9338 L2055.15 72.576 L2047.66 72.576 L2047.66 27.2059 L2055.15 27.2059 L2055.15 34.2544 Q2057.83 30.163 2061.43 28.1376 Q2065.08 26.1121 2069.82 26.1121 Q2077.63 26.1121 2081.65 30.9732 Q2085.66 35.7938 2085.66 45.1919 Z" fill="#000000" fill-rule="nonzero" fill-opacity="1" /><path clip-path="url(#clip670)" d="M2129.45 28.5427 L2129.45 35.5912 Q2126.29 33.9709 2122.88 33.1607 Q2119.48 32.3505 2115.83 32.3505 Q2110.29 32.3505 2107.49 34.0519 Q2104.74 35.7533 2104.74 39.156 Q2104.74 41.7486 2106.72 43.2475 Q2108.71 44.7058 2114.7 46.0426 L2117.25 46.6097 Q2125.19 48.3111 2128.51 51.4303 Q2131.88 54.509 2131.88 60.0587 Q2131.88 66.3781 2126.85 70.0644 Q2121.87 73.7508 2113.12 73.7508 Q2109.48 73.7508 2105.51 73.0216 Q2101.58 72.3329 2097.2 70.9151 L2097.2 63.2184 Q2101.33 65.3654 2105.34 66.4591 Q2109.35 67.5124 2113.28 67.5124 Q2118.55 67.5124 2121.38 65.73 Q2124.22 63.9071 2124.22 60.6258 Q2124.22 57.5877 2122.15 55.9673 Q2120.13 54.3469 2113.2 52.8481 L2110.61 52.2405 Q2103.68 50.7821 2100.6 47.7845 Q2097.52 44.7463 2097.52 39.4801 Q2097.52 33.0797 2102.06 29.5959 Q2106.6 26.1121 2114.94 26.1121 Q2119.08 26.1121 2122.72 26.7198 Q2126.37 27.3274 2129.45 28.5427 Z" fill="#000000" fill-rule="nonzero" fill-opacity="1" /><polyline clip-path="url(#clip672)" style="stroke:#009af9; stroke-linecap:round; stroke-linejoin:round; stroke-width:4; stroke-opacity:1; fill:none" points="265.903,1206.76 267.397,1206.76 271.988,1206.76 275.687,1206.76 280.403,1206.76 281.856,1206.76 284.285,1206.76 287.322,1206.76 288.319,1206.76 292.095,1206.76 292.18,1206.76 296.588,1228.74 298.653,1228.74 300.547,1228.74 305.097,1228.74 319.753,1228.74 322.47,1228.74 328.763,1228.74 333.294,1228.74 334.168,1228.74 334.567,1228.74 335.156,1228.74 335.929,1228.74 336.494,1228.74 339.593,1228.74 340.754,1228.74 345.807,1250.73 346.729,1250.73 347.876,1250.73 350.869,1250.73 353.866,1250.73 357.094,1250.73 357.125,1250.73 361.626,1250.73 362.073,1250.73 365.898,1250.73 367.415,1250.73 371.275,1250.73 377.96,1250.73 381.047,1250.73 387.517,1250.73 394.327,1250.73 395.008,1250.73 405.235,1250.73 408.783,1250.73 409.247,1250.73 410.195,1250.73 411.143,1250.73 411.71,1250.73 416.441,1250.73 418.773,1250.73 422.632,1250.73 426.148,1250.73 428.132,1250.73 434.449,1250.73 436.847,1250.73 445.211,1250.73 452.477,1250.73 455.118,1250.73 456.209,1250.73 464.21,1250.73 467.18,1228.74 467.511,1228.74 471.694,1228.74 472.527,1228.74 474.344,1228.74 477.607,1228.74 479.154,1228.74 493.182,1228.74 494.391,1228.74 508.467,1250.73 510.119,1250.73 510.361,1250.73 515.517,1250.73 518.702,1250.73 526.004,1250.73 533.154,1250.73 535.863,1250.73 538.084,1250.73 543.715,1250.73 546.703,1250.73 549.898,1250.73 555.491,1250.73 570.876,1250.73 573.376,1250.73 577.398,1250.73 580.69,1250.73 580.805,1250.73 586.17,1250.73 586.778,1250.73 589,1250.73 589.518,1250.73 590.342,1250.73 610.108,1250.73 614.506,1250.73 615.654,1250.73 617.366,1250.73 618.273,1250.73 631.602,1250.73 634.79,1250.73 634.867,1250.73 637.393,1250.73 645.592,1250.73 651.54,1250.73 651.688,1250.73 655.891,1250.73 675.958,1250.73 676.126,1250.73 681.844,1250.73 683.018,1250.73 698.306,1250.73 702.417,1250.73 708.628,1250.73 709.515,1250.73 711.336,1250.73 712.76,1250.73 720.578,1250.73 720.605,1250.73 726.136,1250.73 728.051,1250.73 728.389,1250.73 729.135,1250.73 734.321,1250.73 744.869,1250.73 746.93,1250.73 749.452,1250.73 756.887,1250.73 759.548,1250.73 759.702,1250.73 764.264,1250.73 764.624,1250.73 768.088,1250.73 776.643,1250.73 777.996,1250.73 778.734,1250.73 778.779,1250.73 785.108,1250.73 798.571,1250.73 798.754,1250.73 798.848,1250.73 802.769,1250.73 804.8,1250.73 805.483,1250.73 807.29,1250.73 808.173,1250.73 812.607,1250.73 815.174,1250.73 818.212,1250.73 820.242,1250.73 821.877,1250.73 822.661,1250.73 823.855,1250.73 832.124,1250.73 835.101,1250.73 845.942,1250.73 852.863,1272.71 853.594,1272.71 855.405,1272.71 856.197,1272.71 864.88,1272.71 865.595,1272.71 870.719,1272.71 871.021,1272.71 873.583,1272.71 875.002,1272.71 878.223,1272.71 887.101,1272.71 895.906,1272.71 896.443,1272.71 901.362,1272.71 907.431,1272.71 910.597,1272.71 918.419,1272.71 925.025,1250.73 932.611,1250.73 933.441,1250.73 938.561,1250.73 940.32,1250.73 949.921,1250.73 952.554,1250.73 953.137,1250.73 953.29,1250.73 955.836,1250.73 956.098,1250.73 957.084,1250.73 966.361,1250.73 967.112,1250.73 970.466,1250.73 971.453,1250.73 974.248,1250.73 978.698,1250.73 993.288,1250.73 1002.6,1250.73 1010.64,1250.73 1014.62,1250.73 1015.35,1250.73 1018.09,1250.73 1020.38,1250.73 1021.97,1250.73 1023.06,1250.73 1023.21,1250.73 1024.7,1250.73 1025.57,1250.73 1025.75,1250.73 1029.96,1250.73 1032.43,1250.73 1034.43,1250.73 1038.88,1250.73 1039.66,1250.73 1044.21,1250.73 1046.1,1250.73 1046.64,1250.73 1049.51,1250.73 1057.84,1250.73 1064.34,1250.73 1077.38,1250.73 1077.68,1250.73 1084.5,1250.73 1091.17,1250.73 1091.31,1250.73 1097.11,1250.73 1098.65,1250.73 1099.33,1250.73 1100.19,1250.73 1104.06,1250.73 1110.42,1250.73 1137.34,1250.73 1142.79,1250.73 1142.81,1250.73 1147.97,1250.73 1149.05,1250.73 1149.14,1250.73 1153.31,1250.73 1156.94,1250.73 1157.31,1250.73 1162.45,1250.73 1162.71,1250.73 1164.52,1250.73 1168.04,1250.73 1169.59,1250.73 1171.12,1250.73 1176.71,1250.73 1177.05,1250.73 1182.05,1250.73 1190.18,1250.73 1192.07,1250.73 1194.44,1250.73 1194.59,1250.73 1196.55,1250.73 1198.97,1250.73 1207.44,1228.74 1212.61,1228.74 1218.19,1228.74 1218.61,1228.74 1229.38,1228.74 1234.62,1228.74 1236.06,1228.74 1237.06,1228.74 1238.14,1228.74 1241.47,1228.74 1242.76,1228.74 1246.24,1228.74 1246.87,1228.74 1247.17,1228.74 1253.48,1228.74 1254.62,1228.74 1255.06,1228.74 1260.79,1228.74 1263.94,1228.74 1267.13,1228.74 1271.89,1228.74 1277.36,1228.74 1282.59,1228.74 1283.64,1228.74 1284.74,1228.74 1289.27,1228.74 1301.53,1228.74 1306.32,1228.74 1306.54,1228.74 1308.7,1228.74 1310.72,1228.74 1311.44,1228.74 1340.88,1228.74 1341.18,1228.74 1342.51,1228.74 1344.69,1228.74 1347.27,1228.74 1348.21,1228.74 1350.12,1228.74 1367.16,1228.74 1367.25,1228.74 1375.79,1250.73 1378.95,1250.73 1401.61,1250.73 1404.77,1250.73 1405.6,1250.73 1407.69,1250.73 1409,1250.73 1411.05,1250.73 1411.23,1250.73 1413.15,1250.73 1416.05,1250.73 1418.64,1250.73 1420.9,1250.73 1422.63,1250.73 1423,1250.73 1433.28,1250.73 1435.69,1250.73 1437.02,1250.73 1438.2,1250.73 1439.39,1250.73 1449.32,1250.73 1457.43,1250.73 1460.16,1250.73 1463.15,1250.73 1465.57,1250.73 1472.33,1250.73 1474.52,1250.73 1478.89,1250.73 1482.49,1250.73 1483.12,1250.73 1487.07,1250.73 1487.41,1250.73 1489.97,1250.73 1491.74,1250.73 1494.25,1250.73 1498.19,1250.73 1502,1250.73 1503.34,1250.73 1504.34,1250.73 1507.74,1250.73 1508.96,1250.73 1512.32,1250.73 1512.44,1250.73 1512.73,1250.73 1516.17,1250.73 1520.42,1250.73 1526.24,1250.73 1529.79,1250.73 1533.07,1250.73 1536.05,1228.74 1551.02,1228.74 1552.91,1228.74 1562.1,1228.74 1562.94,1228.74 1568.51,1228.74 1583.36,1228.74 1594.6,1206.76 1602.45,1206.76 1603.52,1206.76 1605.14,1206.76 1609.69,1206.76 1617.27,1206.76 1619.67,1206.76 1624.93,1206.76 1626.73,1206.76 1635.38,1206.76 1640.81,1184.78 1650.89,1184.78 1653.43,1184.78 1654.89,1184.78 1657.19,1184.78 1661.48,1184.78 1680.33,1184.78 1681.18,1184.78 1688.97,1184.78 1689.97,1184.78 1690.05,1184.78 1691.04,1184.78 1698.23,1184.78 1706.95,1184.78 1720.24,1184.78 1721.68,1184.78 1721.91,1184.78 1728.3,1184.78 1743.16,1184.78 1744.34,1184.78 1755.06,1184.78 1756.63,1184.78 1757.9,1184.78 1759.63,1184.78 1760.74,1184.78 1770.6,1206.76 1771.09,1206.76 1773.31,1206.76 1774.38,1206.76 1778.62,1206.76 1780.72,1206.76 1786.46,1206.76 1787.3,1206.76 1788.53,1206.76 1791.81,1206.76 1794.39,1206.76 1797.95,1206.76 1800.64,1206.76 1806.62,1206.76 1812.12,1206.76 1815.01,1206.76 1819.56,1206.76 1828.46,1206.76 1829.45,1206.76 1832.54,1206.76 1839.64,1206.76 1840.14,1206.76 1848.48,1206.76 1849.57,1206.76 1853,1206.76 1854.48,1206.76 1858.8,1206.76 1862.33,1206.76 1863.76,1206.76 1866.49,1206.76 1867.86,1206.76 1869.11,1206.76 1870.64,1206.76 1876.42,1206.76 1890.93,1206.76 1892.74,1206.76 1893.12,1206.76 1893.78,1206.76 1893.85,1206.76 1895.26,1206.76 1904.43,1184.78 1905.43,1184.78 1907.76,1184.78 1915.38,1184.78 1918.2,1184.78 1918.88,1184.78 1920.4,1184.78 1922.09,1184.78 1933.21,1184.78 1941.12,1184.78 1946.23,1184.78 1950.88,1184.78 1959.85,1184.78 1962.99,1184.78 1965.59,1184.78 1970.31,1184.78 1971.06,1184.78 1975.48,1184.78 1978.91,1184.78 1979.76,1184.78 1980.18,1184.78 1987.96,1184.78 1988.73,1184.78 1993.31,1184.78 2006.16,1184.78 2010.84,1184.78 2011.03,1184.78 2011.92,1184.78 2028.26,1184.78 2042.39,1184.78 2047.62,1184.78 2049.21,1184.78 2049.99,1184.78 2056.25,1184.78 2056.81,1184.78 2059.69,1184.78 2062.01,1184.78 2067.17,1184.78 2070.2,1184.78 2072.1,1184.78 2073.56,1184.78 2076.14,1184.78 2077.11,1184.78 2077.54,1184.78 2088.43,1184.78 2089.21,1184.78 2097.16,1184.78 2109.78,1184.78 2114.41,1184.78 2117.8,1184.78 2118.4,1184.78 2127.27,1184.78 2130.94,1184.78 2138.56,1184.78 2145.1,1184.78 2149.58,1184.78 2152.08,1184.78 2160.73,1184.78 2170.56,1162.79 2171.66,1162.79 2181.58,1162.79 2181.62,1162.79 2182.3,1162.79 2183.91,1162.79 2186.77,1162.79 2187.34,1162.79 2187.97,1162.79 2194.13,1162.79 2194.43,1162.79 2198.38,1162.79 2198.64,1162.79 2204.06,1162.79 2205.53,1162.79 2208.94,1162.79 2213.52,1162.79 2214.93,1162.79 2217.76,1162.79 2232.02,1140.81 2235.47,1140.81 2240.26,1140.81 2244.42,1140.81 2247.36,1140.81 2247.54,1140.81 2257.35,1140.81 2270.41,1140.81 2291.97,1140.81 "/>
<polyline clip-path="url(#clip672)" style="stroke:#e26f46; stroke-linecap:round; stroke-linejoin:round; stroke-width:4; stroke-opacity:1; fill:none" points="265.903,173.875 267.397,176.225 271.988,178.128 275.687,182.329 280.403,176.43 281.856,186.384 284.285,192.11 287.322,201.415 288.319,203.31 292.095,198.817 292.18,200.614 296.588,208.823 298.653,197.292 300.547,183.729 305.097,183.615 319.753,160.256 322.47,185.809 328.763,259.004 333.294,309.432 334.168,389.309 334.567,270.658 335.156,302.31 335.929,333.34 336.494,324.198 339.593,381.099 340.754,407.768 345.807,425.786 346.729,452.09 347.876,449.589 350.869,500.659 353.866,410.405 357.094,474.92 357.125,501.6 361.626,507.402 362.073,537.287 365.898,551.521 367.415,572.177 371.275,571.567 377.96,569.117 381.047,584.731 387.517,581.29 394.327,587.008 395.008,591.479 405.235,582.764 408.783,579.386 409.247,576.237 410.195,577.343 411.143,574.127 411.71,564.256 416.441,560.078 418.773,564.183 422.632,558.427 426.148,516.592 428.132,511.749 434.449,498.933 436.847,490.075 445.211,477.364 452.477,476.482 455.118,479.467 456.209,484.617 464.21,474.253 467.18,470.701 467.511,462.164 471.694,465.71 472.527,468.399 474.344,469.985 477.607,476.593 479.154,472.722 493.182,500.736 494.391,498.336 508.467,506.979 510.119,466.969 510.361,473.466 515.517,479.905 518.702,520.858 526.004,540.305 533.154,552.744 535.863,541.115 538.084,541.851 543.715,542.932 546.703,541.651 549.898,545.21 555.491,535.213 570.876,535.361 573.376,513.286 577.398,492.245 580.69,497.799 580.805,497.172 586.17,515.723 586.778,566.55 589,591.093 589.518,543.292 590.342,540.898 610.108,567.535 614.506,578.536 615.654,618.044 617.366,644.635 618.273,673.911 631.602,686.219 634.79,711.22 634.867,717.179 637.393,725.758 645.592,723.613 651.54,721.409 651.688,708.953 655.891,687.728 675.958,711.674 676.126,701.268 681.844,713.37 683.018,704.635 698.306,746.355 702.417,755.469 708.628,748.594 709.515,718.653 711.336,727.694 712.76,732.614 720.578,736.093 720.605,750.574 726.136,742.542 728.051,742.025 728.389,744.488 729.135,737.076 734.321,752.209 744.869,708.817 746.93,707.862 749.452,684.513 756.887,667.142 759.548,662.905 759.702,651.862 764.264,645.169 764.624,628.998 768.088,624.733 776.643,606.984 777.996,599.822 778.734,605.478 778.779,600.451 785.108,576.741 798.571,573.717 798.754,564.73 798.848,556.28 802.769,545.384 804.8,528.863 805.483,530.515 807.29,531.015 808.173,499.151 812.607,506.307 815.174,509.207 818.212,502.682 820.242,510.007 821.877,536.833 822.661,537.954 823.855,550.515 832.124,591.88 835.101,588.627 845.942,590.985 852.863,577.869 853.594,548.045 855.405,566.955 856.197,546.283 864.88,561.007 865.595,569.206 870.719,574.547 871.021,564.089 873.583,587.49 875.002,578.333 878.223,512.867 887.101,570.209 895.906,584.922 896.443,589.062 901.362,594.492 907.431,639.935 910.597,647.238 918.419,705.987 925.025,669.334 932.611,669.301 933.441,657.91 938.561,694.169 940.32,685.345 949.921,717.121 952.554,754.405 953.137,757.473 953.29,795.863 955.836,823.597 956.098,825.803 957.084,832.024 966.361,855.74 967.112,861.082 970.466,861.603 971.453,853.29 974.248,758.347 978.698,709.489 993.288,725.413 1002.6,770.479 1010.64,794.26 1014.62,793.539 1015.35,797.073 1018.09,794.603 1020.38,794.325 1021.97,812.697 1023.06,828.642 1023.21,811.5 1024.7,845.407 1025.57,841.351 1025.75,831.26 1029.96,829.387 1032.43,838.777 1034.43,842.352 1038.88,857.48 1039.66,871.98 1044.21,885.546 1046.1,874.83 1046.64,888.319 1049.51,915.972 1057.84,923.834 1064.34,921.453 1077.38,960.948 1077.68,967.154 1084.5,957.87 1091.17,974.958 1091.31,969.37 1097.11,980 1098.65,982.625 1099.33,1004.7 1100.19,1018.41 1104.06,1024 1110.42,1027.06 1137.34,1027.71 1142.79,1038.55 1142.81,1045.38 1147.97,1052.34 1149.05,1064.17 1149.14,1052.99 1153.31,1052.6 1156.94,1057.02 1157.31,1056.4 1162.45,1064.19 1162.71,1061.13 1164.52,1053.03 1168.04,1052.59 1169.59,1050.62 1171.12,1050.68 1176.71,1036.24 1177.05,752.728 1182.05,747.073 1190.18,710.228 1192.07,886.48 1194.44,872.196 1194.59,736.638 1196.55,746.853 1198.97,741.897 1207.44,792.013 1212.61,336.436 1218.19,362.839 1218.61,417.872 1229.38,412.532 1234.62,508.178 1236.06,506.871 1237.06,579.45 1238.14,605.969 1241.47,632.08 1242.76,625 1246.24,621.095 1246.87,625.158 1247.17,615.898 1253.48,610.521 1254.62,399.925 1255.06,406.757 1260.79,369.726 1263.94,352.718 1267.13,366.448 1271.89,393.158 1277.36,424.521 1282.59,465.771 1283.64,529.044 1284.74,585.151 1289.27,613.647 1301.53,625.854 1306.32,689.297 1306.54,711.059 1308.7,771.885 1310.72,843.116 1311.44,898.049 1340.88,917.472 1341.18,714.157 1342.51,761.681 1344.69,768.851 1347.27,777.322 1348.21,788.542 1350.12,817.163 1367.16,826.631 1367.25,833.202 1375.79,740.285 1378.95,737.472 1401.61,790.844 1404.77,853.035 1405.6,862.526 1407.69,897.551 1409,873.786 1411.05,846.307 1411.23,824.491 1413.15,796.491 1416.05,780.172 1418.64,759.008 1420.9,494.931 1422.63,385.704 1423,286.566 1433.28,279.467 1435.69,409.702 1437.02,582.626 1438.2,640.125 1439.39,684.194 1449.32,780.292 1457.43,820.596 1460.16,844.198 1463.15,859.733 1465.57,896.22 1472.33,892.051 1474.52,908.118 1478.89,900.605 1482.49,892.146 1483.12,882.518 1487.07,892.561 1487.41,906.46 1489.97,899.818 1491.74,912.75 1494.25,933.026 1498.19,948.215 1502,965.739 1503.34,962.032 1504.34,987.503 1507.74,1003.89 1508.96,1004.08 1512.32,1005.74 1512.44,1008.86 1512.73,1017.94 1516.17,1036.62 1520.42,1058 1526.24,1059.8 1529.79,1073.04 1533.07,1080.73 1536.05,1131.57 1551.02,1137.53 1552.91,1152.03 1562.1,958.079 1562.94,1018.24 1568.51,978.093 1583.36,824.921 1594.6,829.048 1602.45,846.038 1603.52,853.308 1605.14,871.694 1609.69,867.482 1617.27,833.748 1619.67,817.922 1624.93,774.607 1626.73,775.48 1635.38,765.856 1640.81,759.588 1650.89,818.566 1653.43,845.748 1654.89,839.075 1657.19,830.423 1661.48,829.886 1680.33,825.294 1681.18,851.751 1688.97,865.3 1689.97,879.984 1690.05,894.88 1691.04,873.533 1698.23,881.934 1706.95,879.125 1720.24,853.7 1721.68,845.977 1721.91,842.331 1728.3,871.75 1743.16,876.442 1744.34,874.037 1755.06,866.664 1756.63,869.271 1757.9,869.941 1759.63,873.36 1760.74,906.945 1770.6,925.139 1771.09,778.902 1773.31,755.923 1774.38,784.172 1778.62,815.652 1780.72,858.048 1786.46,882.671 1787.3,851.639 1788.53,801.963 1791.81,790.123 1794.39,786.212 1797.95,732.376 1800.64,703.069 1806.62,710.988 1812.12,698.605 1815.01,712.852 1819.56,695.016 1828.46,715.6 1829.45,689.917 1832.54,747.722 1839.64,780.653 1840.14,789.945 1848.48,834.161 1849.57,877.702 1853,881.564 1854.48,886.364 1858.8,866.814 1862.33,906.572 1863.76,910.616 1866.49,941.67 1867.86,950.61 1869.11,720.01 1870.64,695.561 1876.42,348.296 1890.93,447.702 1892.74,395.688 1893.12,366.527 1893.78,367.356 1893.85,377.607 1895.26,442.934 1904.43,504.812 1905.43,526.389 1907.76,517.936 1915.38,531.871 1918.2,535.509 1918.88,507.071 1920.4,547.703 1922.09,553.144 1933.21,594.933 1941.12,619.62 1946.23,606.91 1950.88,521.554 1959.85,526.488 1962.99,519.885 1965.59,544.917 1970.31,538.092 1971.06,514.509 1975.48,564.657 1978.91,603.873 1979.76,649.543 1980.18,507.659 1987.96,611.861 1988.73,665.746 1993.31,719.733 2006.16,754.579 2010.84,801.281 2011.03,829.278 2011.92,829.112 2028.26,833.453 2042.39,836.488 2047.62,838.325 2049.21,842.36 2049.99,854.718 2056.25,878.45 2056.81,910.379 2059.69,923.243 2062.01,943.485 2067.17,951.921 2070.2,961.1 2072.1,969.549 2073.56,981.061 2076.14,967.062 2077.11,950.908 2077.54,953.07 2088.43,942.449 2089.21,934.971 2097.16,941.313 2109.78,953.186 2114.41,956.032 2117.8,970.535 2118.4,980.118 2127.27,980.127 2130.94,966.559 2138.56,1008.87 2145.1,1064.06 2149.58,1104.83 2152.08,1117.2 2160.73,1126.85 2170.56,1134.61 2171.66,1168.31 2181.58,1179.26 2181.62,1173.1 2182.3,1199.44 2183.91,1247.35 2186.77,1245.49 2187.34,1245.34 2187.97,1265.64 2194.13,1267.76 2194.43,1285.76 2198.38,1284.62 2198.64,1292.64 2204.06,1290.3 2205.53,1297.58 2208.94,1296.56 2213.52,1315.51 2214.93,1332.27 2217.76,1336.6 2232.02,1344.56 2235.47,1350 2240.26,1355.68 2244.42,1369.59 2247.36,1379.63 2247.54,1381.75 2257.35,1382.83 2270.41,1385.94 2291.97,1386.4 "/>
<path clip-path="url(#clip670)" d="M1327.31 322.316 L2281.17 322.316 L2281.17 166.796 L1327.31 166.796  Z" fill="#ffffff" fill-rule="evenodd" fill-opacity="1"/>
<polyline clip-path="url(#clip670)" style="stroke:#000000; stroke-linecap:round; stroke-linejoin:round; stroke-width:4; stroke-opacity:1; fill:none" points="1327.31,322.316 2281.17,322.316 2281.17,166.796 1327.31,166.796 1327.31,322.316 "/>
<polyline clip-path="url(#clip670)" style="stroke:#009af9; stroke-linecap:round; stroke-linejoin:round; stroke-width:4; stroke-opacity:1; fill:none" points="1351.17,218.636 1494.35,218.636 "/>
<path clip-path="url(#clip670)" d="M1534.05 205.962 L1527.7 223.161 L1540.41 223.161 L1534.05 205.962 M1531.41 201.356 L1536.71 201.356 L1549.88 235.916 L1545.02 235.916 L1541.87 227.05 L1526.29 227.05 L1523.14 235.916 L1518.21 235.916 L1531.41 201.356 Z" fill="#000000" fill-rule="nonzero" fill-opacity="1" /><path clip-path="url(#clip670)" d="M1572.56 210.985 L1572.56 214.967 Q1570.76 213.971 1568.93 213.485 Q1567.12 212.976 1565.27 212.976 Q1561.13 212.976 1558.84 215.615 Q1556.55 218.231 1556.55 222.976 Q1556.55 227.721 1558.84 230.36 Q1561.13 232.976 1565.27 232.976 Q1567.12 232.976 1568.93 232.49 Q1570.76 231.981 1572.56 230.985 L1572.56 234.92 Q1570.78 235.754 1568.86 236.17 Q1566.96 236.587 1564.81 236.587 Q1558.95 236.587 1555.5 232.906 Q1552.05 229.226 1552.05 222.976 Q1552.05 216.633 1555.53 212.999 Q1559.02 209.365 1565.09 209.365 Q1567.05 209.365 1568.93 209.782 Q1570.8 210.175 1572.56 210.985 Z" fill="#000000" fill-rule="nonzero" fill-opacity="1" /><path clip-path="url(#clip670)" d="M1584.18 202.629 L1584.18 209.99 L1592.96 209.99 L1592.96 213.3 L1584.18 213.3 L1584.18 227.374 Q1584.18 230.545 1585.04 231.448 Q1585.92 232.351 1588.58 232.351 L1592.96 232.351 L1592.96 235.916 L1588.58 235.916 Q1583.65 235.916 1581.78 234.087 Q1579.9 232.235 1579.9 227.374 L1579.9 213.3 L1576.78 213.3 L1576.78 209.99 L1579.9 209.99 L1579.9 202.629 L1584.18 202.629 Z" fill="#000000" fill-rule="nonzero" fill-opacity="1" /><path clip-path="url(#clip670)" d="M1598.12 225.684 L1598.12 209.99 L1602.38 209.99 L1602.38 225.522 Q1602.38 229.203 1603.81 231.055 Q1605.25 232.883 1608.12 232.883 Q1611.57 232.883 1613.56 230.684 Q1615.57 228.485 1615.57 224.689 L1615.57 209.99 L1619.83 209.99 L1619.83 235.916 L1615.57 235.916 L1615.57 231.934 Q1614.02 234.295 1611.96 235.453 Q1609.92 236.587 1607.22 236.587 Q1602.75 236.587 1600.43 233.809 Q1598.12 231.031 1598.12 225.684 M1608.84 209.365 L1608.84 209.365 Z" fill="#000000" fill-rule="nonzero" fill-opacity="1" /><path clip-path="url(#clip670)" d="M1640.39 222.883 Q1635.23 222.883 1633.23 224.064 Q1631.24 225.244 1631.24 228.092 Q1631.24 230.36 1632.73 231.703 Q1634.23 233.022 1636.8 233.022 Q1640.34 233.022 1642.47 230.522 Q1644.62 227.999 1644.62 223.832 L1644.62 222.883 L1640.39 222.883 M1648.88 221.124 L1648.88 235.916 L1644.62 235.916 L1644.62 231.981 Q1643.17 234.342 1640.99 235.476 Q1638.81 236.587 1635.67 236.587 Q1631.68 236.587 1629.32 234.365 Q1626.98 232.119 1626.98 228.369 Q1626.98 223.994 1629.9 221.772 Q1632.84 219.55 1638.65 219.55 L1644.62 219.55 L1644.62 219.133 Q1644.62 216.194 1642.68 214.596 Q1640.76 212.976 1637.26 212.976 Q1635.04 212.976 1632.93 213.508 Q1630.83 214.041 1628.88 215.106 L1628.88 211.17 Q1631.22 210.268 1633.42 209.828 Q1635.62 209.365 1637.7 209.365 Q1643.33 209.365 1646.11 212.282 Q1648.88 215.198 1648.88 221.124 Z" fill="#000000" fill-rule="nonzero" fill-opacity="1" /><path clip-path="url(#clip670)" d="M1657.66 199.897 L1661.92 199.897 L1661.92 235.916 L1657.66 235.916 L1657.66 199.897 Z" fill="#000000" fill-rule="nonzero" fill-opacity="1" /><path clip-path="url(#clip670)" d="M1707.45 220.268 L1707.45 235.916 L1703.19 235.916 L1703.19 220.407 Q1703.19 216.726 1701.75 214.897 Q1700.32 213.069 1697.45 213.069 Q1694 213.069 1692.01 215.268 Q1690.02 217.467 1690.02 221.263 L1690.02 235.916 L1685.73 235.916 L1685.73 209.99 L1690.02 209.99 L1690.02 214.018 Q1691.54 211.68 1693.6 210.522 Q1695.69 209.365 1698.4 209.365 Q1702.86 209.365 1705.16 212.143 Q1707.45 214.897 1707.45 220.268 Z" fill="#000000" fill-rule="nonzero" fill-opacity="1" /><path clip-path="url(#clip670)" d="M1715.5 225.684 L1715.5 209.99 L1719.76 209.99 L1719.76 225.522 Q1719.76 229.203 1721.2 231.055 Q1722.63 232.883 1725.5 232.883 Q1728.95 232.883 1730.94 230.684 Q1732.96 228.485 1732.96 224.689 L1732.96 209.99 L1737.22 209.99 L1737.22 235.916 L1732.96 235.916 L1732.96 231.934 Q1731.41 234.295 1729.35 235.453 Q1727.31 236.587 1724.6 236.587 Q1720.13 236.587 1717.82 233.809 Q1715.5 231.031 1715.5 225.684 M1726.22 209.365 L1726.22 209.365 Z" fill="#000000" fill-rule="nonzero" fill-opacity="1" /><path clip-path="url(#clip670)" d="M1766.17 214.967 Q1767.77 212.096 1769.99 210.731 Q1772.22 209.365 1775.22 209.365 Q1779.28 209.365 1781.47 212.212 Q1783.67 215.036 1783.67 220.268 L1783.67 235.916 L1779.39 235.916 L1779.39 220.407 Q1779.39 216.68 1778.07 214.874 Q1776.75 213.069 1774.04 213.069 Q1770.73 213.069 1768.81 215.268 Q1766.89 217.467 1766.89 221.263 L1766.89 235.916 L1762.61 235.916 L1762.61 220.407 Q1762.61 216.657 1761.29 214.874 Q1759.97 213.069 1757.22 213.069 Q1753.95 213.069 1752.03 215.291 Q1750.11 217.49 1750.11 221.263 L1750.11 235.916 L1745.83 235.916 L1745.83 209.99 L1750.11 209.99 L1750.11 214.018 Q1751.57 211.633 1753.6 210.499 Q1755.64 209.365 1758.44 209.365 Q1761.27 209.365 1763.23 210.8 Q1765.22 212.235 1766.17 214.967 Z" fill="#000000" fill-rule="nonzero" fill-opacity="1" /><path clip-path="url(#clip670)" d="M1810.78 222.976 Q1810.78 218.277 1808.84 215.615 Q1806.91 212.93 1803.53 212.93 Q1800.16 212.93 1798.21 215.615 Q1796.29 218.277 1796.29 222.976 Q1796.29 227.675 1798.21 230.36 Q1800.16 233.022 1803.53 233.022 Q1806.91 233.022 1808.84 230.36 Q1810.78 227.675 1810.78 222.976 M1796.29 213.925 Q1797.63 211.61 1799.67 210.499 Q1801.73 209.365 1804.58 209.365 Q1809.3 209.365 1812.24 213.115 Q1815.2 216.865 1815.2 222.976 Q1815.2 229.087 1812.24 232.837 Q1809.3 236.587 1804.58 236.587 Q1801.73 236.587 1799.67 235.476 Q1797.63 234.342 1796.29 232.027 L1796.29 235.916 L1792.01 235.916 L1792.01 199.897 L1796.29 199.897 L1796.29 213.925 Z" fill="#000000" fill-rule="nonzero" fill-opacity="1" /><path clip-path="url(#clip670)" d="M1844.44 221.888 L1844.44 223.971 L1824.85 223.971 Q1825.13 228.369 1827.49 230.684 Q1829.88 232.976 1834.11 232.976 Q1836.57 232.976 1838.86 232.374 Q1841.17 231.772 1843.44 230.569 L1843.44 234.596 Q1841.15 235.568 1838.74 236.078 Q1836.34 236.587 1833.86 236.587 Q1827.65 236.587 1824.02 232.976 Q1820.41 229.365 1820.41 223.207 Q1820.41 216.842 1823.84 213.115 Q1827.28 209.365 1833.12 209.365 Q1838.35 209.365 1841.38 212.745 Q1844.44 216.101 1844.44 221.888 M1840.18 220.638 Q1840.13 217.143 1838.21 215.059 Q1836.31 212.976 1833.16 212.976 Q1829.6 212.976 1827.45 214.99 Q1825.32 217.004 1824.99 220.661 L1840.18 220.638 Z" fill="#000000" fill-rule="nonzero" fill-opacity="1" /><path clip-path="url(#clip670)" d="M1866.45 213.971 Q1865.73 213.555 1864.88 213.37 Q1864.04 213.161 1863.03 213.161 Q1859.41 213.161 1857.47 215.522 Q1855.55 217.86 1855.55 222.258 L1855.55 235.916 L1851.27 235.916 L1851.27 209.99 L1855.55 209.99 L1855.55 214.018 Q1856.89 211.657 1859.04 210.522 Q1861.2 209.365 1864.28 209.365 Q1864.71 209.365 1865.25 209.434 Q1865.78 209.481 1866.43 209.596 L1866.45 213.971 Z" fill="#000000" fill-rule="nonzero" fill-opacity="1" /><path clip-path="url(#clip670)" d="M1896.03 212.976 Q1892.61 212.976 1890.62 215.661 Q1888.63 218.323 1888.63 222.976 Q1888.63 227.629 1890.59 230.314 Q1892.59 232.976 1896.03 232.976 Q1899.44 232.976 1901.43 230.291 Q1903.42 227.606 1903.42 222.976 Q1903.42 218.37 1901.43 215.684 Q1899.44 212.976 1896.03 212.976 M1896.03 209.365 Q1901.59 209.365 1904.76 212.976 Q1907.93 216.587 1907.93 222.976 Q1907.93 229.342 1904.76 232.976 Q1901.59 236.587 1896.03 236.587 Q1890.46 236.587 1887.28 232.976 Q1884.14 229.342 1884.14 222.976 Q1884.14 216.587 1887.28 212.976 Q1890.46 209.365 1896.03 209.365 Z" fill="#000000" fill-rule="nonzero" fill-opacity="1" /><path clip-path="url(#clip670)" d="M1928.12 199.897 L1928.12 203.439 L1924.04 203.439 Q1921.75 203.439 1920.85 204.365 Q1919.97 205.291 1919.97 207.698 L1919.97 209.99 L1926.98 209.99 L1926.98 213.3 L1919.97 213.3 L1919.97 235.916 L1915.69 235.916 L1915.69 213.3 L1911.61 213.3 L1911.61 209.99 L1915.69 209.99 L1915.69 208.184 Q1915.69 203.856 1917.7 201.888 Q1919.71 199.897 1924.09 199.897 L1928.12 199.897 Z" fill="#000000" fill-rule="nonzero" fill-opacity="1" /><path clip-path="url(#clip670)" d="M1946.75 209.99 L1951.01 209.99 L1951.01 235.916 L1946.75 235.916 L1946.75 209.99 M1946.75 199.897 L1951.01 199.897 L1951.01 205.291 L1946.75 205.291 L1946.75 199.897 Z" fill="#000000" fill-rule="nonzero" fill-opacity="1" /><path clip-path="url(#clip670)" d="M1981.47 220.268 L1981.47 235.916 L1977.21 235.916 L1977.21 220.407 Q1977.21 216.726 1975.78 214.897 Q1974.34 213.069 1971.47 213.069 Q1968.02 213.069 1966.03 215.268 Q1964.04 217.467 1964.04 221.263 L1964.04 235.916 L1959.76 235.916 L1959.76 209.99 L1964.04 209.99 L1964.04 214.018 Q1965.57 211.68 1967.63 210.522 Q1969.71 209.365 1972.42 209.365 Q1976.89 209.365 1979.18 212.143 Q1981.47 214.897 1981.47 220.268 Z" fill="#000000" fill-rule="nonzero" fill-opacity="1" /><path clip-path="url(#clip670)" d="M2003.09 199.897 L2003.09 203.439 L1999.02 203.439 Q1996.73 203.439 1995.83 204.365 Q1994.95 205.291 1994.95 207.698 L1994.95 209.99 L2001.96 209.99 L2001.96 213.3 L1994.95 213.3 L1994.95 235.916 L1990.66 235.916 L1990.66 213.3 L1986.59 213.3 L1986.59 209.99 L1990.66 209.99 L1990.66 208.184 Q1990.66 203.856 1992.68 201.888 Q1994.69 199.897 1999.07 199.897 L2003.09 199.897 Z" fill="#000000" fill-rule="nonzero" fill-opacity="1" /><path clip-path="url(#clip670)" d="M2028.83 221.888 L2028.83 223.971 L2009.25 223.971 Q2009.53 228.369 2011.89 230.684 Q2014.27 232.976 2018.51 232.976 Q2020.96 232.976 2023.26 232.374 Q2025.57 231.772 2027.84 230.569 L2027.84 234.596 Q2025.55 235.568 2023.14 236.078 Q2020.73 236.587 2018.26 236.587 Q2012.05 236.587 2008.42 232.976 Q2004.81 229.365 2004.81 223.207 Q2004.81 216.842 2008.23 213.115 Q2011.68 209.365 2017.52 209.365 Q2022.75 209.365 2025.78 212.745 Q2028.83 216.101 2028.83 221.888 M2024.58 220.638 Q2024.53 217.143 2022.61 215.059 Q2020.71 212.976 2017.56 212.976 Q2014 212.976 2011.84 214.99 Q2009.71 217.004 2009.39 220.661 L2024.58 220.638 Z" fill="#000000" fill-rule="nonzero" fill-opacity="1" /><path clip-path="url(#clip670)" d="M2054.48 210.985 L2054.48 214.967 Q2052.68 213.971 2050.85 213.485 Q2049.04 212.976 2047.19 212.976 Q2043.05 212.976 2040.76 215.615 Q2038.46 218.231 2038.46 222.976 Q2038.46 227.721 2040.76 230.36 Q2043.05 232.976 2047.19 232.976 Q2049.04 232.976 2050.85 232.49 Q2052.68 231.981 2054.48 230.985 L2054.48 234.92 Q2052.7 235.754 2050.78 236.17 Q2048.88 236.587 2046.73 236.587 Q2040.87 236.587 2037.42 232.906 Q2033.97 229.226 2033.97 222.976 Q2033.97 216.633 2037.45 212.999 Q2040.94 209.365 2047.01 209.365 Q2048.97 209.365 2050.85 209.782 Q2052.72 210.175 2054.48 210.985 Z" fill="#000000" fill-rule="nonzero" fill-opacity="1" /><path clip-path="url(#clip670)" d="M2066.1 202.629 L2066.1 209.99 L2074.88 209.99 L2074.88 213.3 L2066.1 213.3 L2066.1 227.374 Q2066.1 230.545 2066.96 231.448 Q2067.84 232.351 2070.5 232.351 L2074.88 232.351 L2074.88 235.916 L2070.5 235.916 Q2065.57 235.916 2063.7 234.087 Q2061.82 232.235 2061.82 227.374 L2061.82 213.3 L2058.7 213.3 L2058.7 209.99 L2061.82 209.99 L2061.82 202.629 L2066.1 202.629 Z" fill="#000000" fill-rule="nonzero" fill-opacity="1" /><path clip-path="url(#clip670)" d="M2080.48 209.99 L2084.74 209.99 L2084.74 235.916 L2080.48 235.916 L2080.48 209.99 M2080.48 199.897 L2084.74 199.897 L2084.74 205.291 L2080.48 205.291 L2080.48 199.897 Z" fill="#000000" fill-rule="nonzero" fill-opacity="1" /><path clip-path="url(#clip670)" d="M2103.7 212.976 Q2100.27 212.976 2098.28 215.661 Q2096.29 218.323 2096.29 222.976 Q2096.29 227.629 2098.26 230.314 Q2100.25 232.976 2103.7 232.976 Q2107.1 232.976 2109.09 230.291 Q2111.08 227.606 2111.08 222.976 Q2111.08 218.37 2109.09 215.684 Q2107.1 212.976 2103.7 212.976 M2103.7 209.365 Q2109.25 209.365 2112.42 212.976 Q2115.59 216.587 2115.59 222.976 Q2115.59 229.342 2112.42 232.976 Q2109.25 236.587 2103.7 236.587 Q2098.12 236.587 2094.95 232.976 Q2091.8 229.342 2091.8 222.976 Q2091.8 216.587 2094.95 212.976 Q2098.12 209.365 2103.7 209.365 Z" fill="#000000" fill-rule="nonzero" fill-opacity="1" /><path clip-path="url(#clip670)" d="M2144.2 220.268 L2144.2 235.916 L2139.94 235.916 L2139.94 220.407 Q2139.94 216.726 2138.51 214.897 Q2137.07 213.069 2134.2 213.069 Q2130.76 213.069 2128.76 215.268 Q2126.77 217.467 2126.77 221.263 L2126.77 235.916 L2122.49 235.916 L2122.49 209.99 L2126.77 209.99 L2126.77 214.018 Q2128.3 211.68 2130.36 210.522 Q2132.45 209.365 2135.15 209.365 Q2139.62 209.365 2141.91 212.143 Q2144.2 214.897 2144.2 220.268 Z" fill="#000000" fill-rule="nonzero" fill-opacity="1" /><path clip-path="url(#clip670)" d="M2169.23 210.754 L2169.23 214.782 Q2167.42 213.856 2165.48 213.393 Q2163.53 212.93 2161.45 212.93 Q2158.28 212.93 2156.68 213.902 Q2155.11 214.874 2155.11 216.819 Q2155.11 218.3 2156.24 219.157 Q2157.38 219.99 2160.8 220.754 L2162.26 221.078 Q2166.8 222.05 2168.69 223.832 Q2170.62 225.592 2170.62 228.763 Q2170.62 232.374 2167.75 234.481 Q2164.9 236.587 2159.9 236.587 Q2157.82 236.587 2155.55 236.17 Q2153.3 235.777 2150.8 234.967 L2150.8 230.569 Q2153.16 231.795 2155.45 232.42 Q2157.75 233.022 2159.99 233.022 Q2163 233.022 2164.62 232.004 Q2166.24 230.962 2166.24 229.087 Q2166.24 227.351 2165.06 226.425 Q2163.9 225.499 2159.94 224.643 L2158.46 224.295 Q2154.51 223.462 2152.75 221.749 Q2150.99 220.013 2150.99 217.004 Q2150.99 213.346 2153.58 211.356 Q2156.17 209.365 2160.94 209.365 Q2163.3 209.365 2165.38 209.712 Q2167.47 210.059 2169.23 210.754 Z" fill="#000000" fill-rule="nonzero" fill-opacity="1" /><polyline clip-path="url(#clip670)" style="stroke:#e26f46; stroke-linecap:round; stroke-linejoin:round; stroke-width:4; stroke-opacity:1; fill:none" points="1351.17,270.476 1494.35,270.476 "/>
<path clip-path="url(#clip670)" d="M1518.21 253.196 L1540.06 253.196 L1540.06 257.131 L1522.89 257.131 L1522.89 267.362 L1539.35 267.362 L1539.35 271.297 L1522.89 271.297 L1522.89 283.821 L1540.48 283.821 L1540.48 287.756 L1518.21 287.756 L1518.21 253.196 Z" fill="#000000" fill-rule="nonzero" fill-opacity="1" /><path clip-path="url(#clip670)" d="M1564.51 262.594 L1564.51 266.622 Q1562.7 265.696 1560.76 265.233 Q1558.81 264.77 1556.73 264.77 Q1553.56 264.77 1551.96 265.742 Q1550.39 266.714 1550.39 268.659 Q1550.39 270.14 1551.52 270.997 Q1552.66 271.83 1556.08 272.594 L1557.54 272.918 Q1562.08 273.89 1563.98 275.672 Q1565.9 277.432 1565.9 280.603 Q1565.9 284.214 1563.03 286.321 Q1560.18 288.427 1555.18 288.427 Q1553.1 288.427 1550.83 288.01 Q1548.58 287.617 1546.08 286.807 L1546.08 282.409 Q1548.44 283.635 1550.74 284.26 Q1553.03 284.862 1555.27 284.862 Q1558.28 284.862 1559.9 283.844 Q1561.52 282.802 1561.52 280.927 Q1561.52 279.191 1560.34 278.265 Q1559.18 277.339 1555.23 276.483 L1553.74 276.135 Q1549.79 275.302 1548.03 273.589 Q1546.27 271.853 1546.27 268.844 Q1546.27 265.186 1548.86 263.196 Q1551.45 261.205 1556.22 261.205 Q1558.58 261.205 1560.67 261.552 Q1562.75 261.899 1564.51 262.594 Z" fill="#000000" fill-rule="nonzero" fill-opacity="1" /><path clip-path="url(#clip670)" d="M1576.89 254.469 L1576.89 261.83 L1585.67 261.83 L1585.67 265.14 L1576.89 265.14 L1576.89 279.214 Q1576.89 282.385 1577.75 283.288 Q1578.63 284.191 1581.29 284.191 L1585.67 284.191 L1585.67 287.756 L1581.29 287.756 Q1576.36 287.756 1574.49 285.927 Q1572.61 284.075 1572.61 279.214 L1572.61 265.14 L1569.49 265.14 L1569.49 261.83 L1572.61 261.83 L1572.61 254.469 L1576.89 254.469 Z" fill="#000000" fill-rule="nonzero" fill-opacity="1" /><path clip-path="url(#clip670)" d="M1591.27 261.83 L1595.53 261.83 L1595.53 287.756 L1591.27 287.756 L1591.27 261.83 M1591.27 251.737 L1595.53 251.737 L1595.53 257.131 L1591.27 257.131 L1591.27 251.737 Z" fill="#000000" fill-rule="nonzero" fill-opacity="1" /><path clip-path="url(#clip670)" d="M1624.62 266.807 Q1626.22 263.936 1628.44 262.571 Q1630.67 261.205 1633.67 261.205 Q1637.73 261.205 1639.92 264.052 Q1642.12 266.876 1642.12 272.108 L1642.12 287.756 L1637.84 287.756 L1637.84 272.247 Q1637.84 268.52 1636.52 266.714 Q1635.2 264.909 1632.49 264.909 Q1629.18 264.909 1627.26 267.108 Q1625.34 269.307 1625.34 273.103 L1625.34 287.756 L1621.06 287.756 L1621.06 272.247 Q1621.06 268.497 1619.74 266.714 Q1618.42 264.909 1615.67 264.909 Q1612.4 264.909 1610.48 267.131 Q1608.56 269.33 1608.56 273.103 L1608.56 287.756 L1604.28 287.756 L1604.28 261.83 L1608.56 261.83 L1608.56 265.858 Q1610.02 263.473 1612.05 262.339 Q1614.09 261.205 1616.89 261.205 Q1619.72 261.205 1621.68 262.64 Q1623.67 264.075 1624.62 266.807 Z" fill="#000000" fill-rule="nonzero" fill-opacity="1" /><path clip-path="url(#clip670)" d="M1662.4 274.723 Q1657.24 274.723 1655.25 275.904 Q1653.26 277.084 1653.26 279.932 Q1653.26 282.2 1654.74 283.543 Q1656.24 284.862 1658.81 284.862 Q1662.35 284.862 1664.48 282.362 Q1666.64 279.839 1666.64 275.672 L1666.64 274.723 L1662.4 274.723 M1670.9 272.964 L1670.9 287.756 L1666.64 287.756 L1666.64 283.821 Q1665.18 286.182 1663 287.316 Q1660.83 288.427 1657.68 288.427 Q1653.7 288.427 1651.34 286.205 Q1649 283.959 1649 280.209 Q1649 275.834 1651.92 273.612 Q1654.85 271.39 1660.67 271.39 L1666.64 271.39 L1666.64 270.973 Q1666.64 268.034 1664.69 266.436 Q1662.77 264.816 1659.28 264.816 Q1657.05 264.816 1654.95 265.348 Q1652.84 265.881 1650.9 266.946 L1650.9 263.01 Q1653.23 262.108 1655.43 261.668 Q1657.63 261.205 1659.72 261.205 Q1665.34 261.205 1668.12 264.122 Q1670.9 267.038 1670.9 272.964 Z" fill="#000000" fill-rule="nonzero" fill-opacity="1" /><path clip-path="url(#clip670)" d="M1683.88 254.469 L1683.88 261.83 L1692.66 261.83 L1692.66 265.14 L1683.88 265.14 L1683.88 279.214 Q1683.88 282.385 1684.74 283.288 Q1685.62 284.191 1688.28 284.191 L1692.66 284.191 L1692.66 287.756 L1688.28 287.756 Q1683.35 287.756 1681.48 285.927 Q1679.6 284.075 1679.6 279.214 L1679.6 265.14 L1676.48 265.14 L1676.48 261.83 L1679.6 261.83 L1679.6 254.469 L1683.88 254.469 Z" fill="#000000" fill-rule="nonzero" fill-opacity="1" /><path clip-path="url(#clip670)" d="M1720.43 273.728 L1720.43 275.811 L1700.85 275.811 Q1701.13 280.209 1703.49 282.524 Q1705.87 284.816 1710.11 284.816 Q1712.56 284.816 1714.85 284.214 Q1717.17 283.612 1719.44 282.409 L1719.44 286.436 Q1717.15 287.408 1714.74 287.918 Q1712.33 288.427 1709.85 288.427 Q1703.65 288.427 1700.02 284.816 Q1696.41 281.205 1696.41 275.047 Q1696.41 268.682 1699.83 264.955 Q1703.28 261.205 1709.11 261.205 Q1714.35 261.205 1717.38 264.585 Q1720.43 267.941 1720.43 273.728 M1716.17 272.478 Q1716.13 268.983 1714.21 266.899 Q1712.31 264.816 1709.16 264.816 Q1705.6 264.816 1703.44 266.83 Q1701.31 268.844 1700.99 272.501 L1716.17 272.478 Z" fill="#000000" fill-rule="nonzero" fill-opacity="1" /><path clip-path="url(#clip670)" d="M1744.48 265.765 L1744.48 251.737 L1748.74 251.737 L1748.74 287.756 L1744.48 287.756 L1744.48 283.867 Q1743.14 286.182 1741.08 287.316 Q1739.04 288.427 1736.17 288.427 Q1731.47 288.427 1728.51 284.677 Q1725.57 280.927 1725.57 274.816 Q1725.57 268.705 1728.51 264.955 Q1731.47 261.205 1736.17 261.205 Q1739.04 261.205 1741.08 262.339 Q1743.14 263.45 1744.48 265.765 M1729.97 274.816 Q1729.97 279.515 1731.89 282.2 Q1733.84 284.862 1737.22 284.862 Q1740.6 284.862 1742.54 282.2 Q1744.48 279.515 1744.48 274.816 Q1744.48 270.117 1742.54 267.455 Q1740.6 264.77 1737.22 264.77 Q1733.84 264.77 1731.89 267.455 Q1729.97 270.117 1729.97 274.816 Z" fill="#000000" fill-rule="nonzero" fill-opacity="1" /><path clip-path="url(#clip670)" d="M1794.14 272.108 L1794.14 287.756 L1789.88 287.756 L1789.88 272.247 Q1789.88 268.566 1788.44 266.737 Q1787.01 264.909 1784.14 264.909 Q1780.69 264.909 1778.7 267.108 Q1776.71 269.307 1776.71 273.103 L1776.71 287.756 L1772.42 287.756 L1772.42 261.83 L1776.71 261.83 L1776.71 265.858 Q1778.23 263.52 1780.29 262.362 Q1782.38 261.205 1785.09 261.205 Q1789.55 261.205 1791.84 263.983 Q1794.14 266.737 1794.14 272.108 Z" fill="#000000" fill-rule="nonzero" fill-opacity="1" /><path clip-path="url(#clip670)" d="M1802.19 277.524 L1802.19 261.83 L1806.45 261.83 L1806.45 277.362 Q1806.45 281.043 1807.89 282.895 Q1809.32 284.723 1812.19 284.723 Q1815.64 284.723 1817.63 282.524 Q1819.65 280.325 1819.65 276.529 L1819.65 261.83 L1823.91 261.83 L1823.91 287.756 L1819.65 287.756 L1819.65 283.774 Q1818.09 286.135 1816.03 287.293 Q1814 288.427 1811.29 288.427 Q1806.82 288.427 1804.51 285.649 Q1802.19 282.871 1802.19 277.524 M1812.91 261.205 L1812.91 261.205 Z" fill="#000000" fill-rule="nonzero" fill-opacity="1" /><path clip-path="url(#clip670)" d="M1852.86 266.807 Q1854.46 263.936 1856.68 262.571 Q1858.9 261.205 1861.91 261.205 Q1865.96 261.205 1868.16 264.052 Q1870.36 266.876 1870.36 272.108 L1870.36 287.756 L1866.08 287.756 L1866.08 272.247 Q1866.08 268.52 1864.76 266.714 Q1863.44 264.909 1860.73 264.909 Q1857.42 264.909 1855.5 267.108 Q1853.58 269.307 1853.58 273.103 L1853.58 287.756 L1849.3 287.756 L1849.3 272.247 Q1849.3 268.497 1847.98 266.714 Q1846.66 264.909 1843.9 264.909 Q1840.64 264.909 1838.72 267.131 Q1836.8 269.33 1836.8 273.103 L1836.8 287.756 L1832.52 287.756 L1832.52 261.83 L1836.8 261.83 L1836.8 265.858 Q1838.26 263.473 1840.29 262.339 Q1842.33 261.205 1845.13 261.205 Q1847.96 261.205 1849.92 262.64 Q1851.91 264.075 1852.86 266.807 Z" fill="#000000" fill-rule="nonzero" fill-opacity="1" /><path clip-path="url(#clip670)" d="M1897.47 274.816 Q1897.47 270.117 1895.52 267.455 Q1893.6 264.77 1890.22 264.77 Q1886.84 264.77 1884.9 267.455 Q1882.98 270.117 1882.98 274.816 Q1882.98 279.515 1884.9 282.2 Q1886.84 284.862 1890.22 284.862 Q1893.6 284.862 1895.52 282.2 Q1897.47 279.515 1897.47 274.816 M1882.98 265.765 Q1884.32 263.45 1886.36 262.339 Q1888.42 261.205 1891.27 261.205 Q1895.99 261.205 1898.93 264.955 Q1901.89 268.705 1901.89 274.816 Q1901.89 280.927 1898.93 284.677 Q1895.99 288.427 1891.27 288.427 Q1888.42 288.427 1886.36 287.316 Q1884.32 286.182 1882.98 283.867 L1882.98 287.756 L1878.7 287.756 L1878.7 251.737 L1882.98 251.737 L1882.98 265.765 Z" fill="#000000" fill-rule="nonzero" fill-opacity="1" /><path clip-path="url(#clip670)" d="M1931.13 273.728 L1931.13 275.811 L1911.54 275.811 Q1911.82 280.209 1914.18 282.524 Q1916.57 284.816 1920.8 284.816 Q1923.26 284.816 1925.55 284.214 Q1927.86 283.612 1930.13 282.409 L1930.13 286.436 Q1927.84 287.408 1925.43 287.918 Q1923.02 288.427 1920.55 288.427 Q1914.34 288.427 1910.71 284.816 Q1907.1 281.205 1907.1 275.047 Q1907.1 268.682 1910.52 264.955 Q1913.97 261.205 1919.81 261.205 Q1925.04 261.205 1928.07 264.585 Q1931.13 267.941 1931.13 273.728 M1926.87 272.478 Q1926.82 268.983 1924.9 266.899 Q1923 264.816 1919.85 264.816 Q1916.29 264.816 1914.14 266.83 Q1912.01 268.844 1911.68 272.501 L1926.87 272.478 Z" fill="#000000" fill-rule="nonzero" fill-opacity="1" /><path clip-path="url(#clip670)" d="M1953.14 265.811 Q1952.42 265.395 1951.57 265.21 Q1950.73 265.001 1949.71 265.001 Q1946.1 265.001 1944.16 267.362 Q1942.24 269.7 1942.24 274.098 L1942.24 287.756 L1937.96 287.756 L1937.96 261.83 L1942.24 261.83 L1942.24 265.858 Q1943.58 263.497 1945.73 262.362 Q1947.89 261.205 1950.96 261.205 Q1951.4 261.205 1951.94 261.274 Q1952.47 261.321 1953.12 261.436 L1953.14 265.811 Z" fill="#000000" fill-rule="nonzero" fill-opacity="1" /><path clip-path="url(#clip670)" d="M1982.72 264.816 Q1979.3 264.816 1977.31 267.501 Q1975.32 270.163 1975.32 274.816 Q1975.32 279.469 1977.28 282.154 Q1979.27 284.816 1982.72 284.816 Q1986.13 284.816 1988.12 282.131 Q1990.11 279.446 1990.11 274.816 Q1990.11 270.21 1988.12 267.524 Q1986.13 264.816 1982.72 264.816 M1982.72 261.205 Q1988.28 261.205 1991.45 264.816 Q1994.62 268.427 1994.62 274.816 Q1994.62 281.182 1991.45 284.816 Q1988.28 288.427 1982.72 288.427 Q1977.14 288.427 1973.97 284.816 Q1970.83 281.182 1970.83 274.816 Q1970.83 268.427 1973.97 264.816 Q1977.14 261.205 1982.72 261.205 Z" fill="#000000" fill-rule="nonzero" fill-opacity="1" /><path clip-path="url(#clip670)" d="M2014.81 251.737 L2014.81 255.279 L2010.73 255.279 Q2008.44 255.279 2007.54 256.205 Q2006.66 257.131 2006.66 259.538 L2006.66 261.83 L2013.67 261.83 L2013.67 265.14 L2006.66 265.14 L2006.66 287.756 L2002.38 287.756 L2002.38 265.14 L1998.3 265.14 L1998.3 261.83 L2002.38 261.83 L2002.38 260.024 Q2002.38 255.696 2004.39 253.728 Q2006.4 251.737 2010.78 251.737 L2014.81 251.737 Z" fill="#000000" fill-rule="nonzero" fill-opacity="1" /><path clip-path="url(#clip670)" d="M2033.44 261.83 L2037.7 261.83 L2037.7 287.756 L2033.44 287.756 L2033.44 261.83 M2033.44 251.737 L2037.7 251.737 L2037.7 257.131 L2033.44 257.131 L2033.44 251.737 Z" fill="#000000" fill-rule="nonzero" fill-opacity="1" /><path clip-path="url(#clip670)" d="M2068.16 272.108 L2068.16 287.756 L2063.9 287.756 L2063.9 272.247 Q2063.9 268.566 2062.47 266.737 Q2061.03 264.909 2058.16 264.909 Q2054.71 264.909 2052.72 267.108 Q2050.73 269.307 2050.73 273.103 L2050.73 287.756 L2046.45 287.756 L2046.45 261.83 L2050.73 261.83 L2050.73 265.858 Q2052.26 263.52 2054.32 262.362 Q2056.4 261.205 2059.11 261.205 Q2063.58 261.205 2065.87 263.983 Q2068.16 266.737 2068.16 272.108 Z" fill="#000000" fill-rule="nonzero" fill-opacity="1" /><path clip-path="url(#clip670)" d="M2089.78 251.737 L2089.78 255.279 L2085.71 255.279 Q2083.42 255.279 2082.51 256.205 Q2081.64 257.131 2081.64 259.538 L2081.64 261.83 L2088.65 261.83 L2088.65 265.14 L2081.64 265.14 L2081.64 287.756 L2077.35 287.756 L2077.35 265.14 L2073.28 265.14 L2073.28 261.83 L2077.35 261.83 L2077.35 260.024 Q2077.35 255.696 2079.37 253.728 Q2081.38 251.737 2085.76 251.737 L2089.78 251.737 Z" fill="#000000" fill-rule="nonzero" fill-opacity="1" /><path clip-path="url(#clip670)" d="M2115.52 273.728 L2115.52 275.811 L2095.94 275.811 Q2096.22 280.209 2098.58 282.524 Q2100.96 284.816 2105.2 284.816 Q2107.65 284.816 2109.95 284.214 Q2112.26 283.612 2114.53 282.409 L2114.53 286.436 Q2112.24 287.408 2109.83 287.918 Q2107.42 288.427 2104.95 288.427 Q2098.74 288.427 2095.11 284.816 Q2091.5 281.205 2091.5 275.047 Q2091.5 268.682 2094.92 264.955 Q2098.37 261.205 2104.2 261.205 Q2109.44 261.205 2112.47 264.585 Q2115.52 267.941 2115.52 273.728 M2111.26 272.478 Q2111.22 268.983 2109.3 266.899 Q2107.4 264.816 2104.25 264.816 Q2100.69 264.816 2098.53 266.83 Q2096.4 268.844 2096.08 272.501 L2111.26 272.478 Z" fill="#000000" fill-rule="nonzero" fill-opacity="1" /><path clip-path="url(#clip670)" d="M2141.17 262.825 L2141.17 266.807 Q2139.37 265.811 2137.54 265.325 Q2135.73 264.816 2133.88 264.816 Q2129.74 264.816 2127.45 267.455 Q2125.15 270.071 2125.15 274.816 Q2125.15 279.561 2127.45 282.2 Q2129.74 284.816 2133.88 284.816 Q2135.73 284.816 2137.54 284.33 Q2139.37 283.821 2141.17 282.825 L2141.17 286.76 Q2139.39 287.594 2137.47 288.01 Q2135.57 288.427 2133.42 288.427 Q2127.56 288.427 2124.11 284.746 Q2120.66 281.066 2120.66 274.816 Q2120.66 268.473 2124.13 264.839 Q2127.63 261.205 2133.7 261.205 Q2135.66 261.205 2137.54 261.622 Q2139.41 262.015 2141.17 262.825 Z" fill="#000000" fill-rule="nonzero" fill-opacity="1" /><path clip-path="url(#clip670)" d="M2152.79 254.469 L2152.79 261.83 L2161.57 261.83 L2161.57 265.14 L2152.79 265.14 L2152.79 279.214 Q2152.79 282.385 2153.65 283.288 Q2154.53 284.191 2157.19 284.191 L2161.57 284.191 L2161.57 287.756 L2157.19 287.756 Q2152.26 287.756 2150.38 285.927 Q2148.51 284.075 2148.51 279.214 L2148.51 265.14 L2145.38 265.14 L2145.38 261.83 L2148.51 261.83 L2148.51 254.469 L2152.79 254.469 Z" fill="#000000" fill-rule="nonzero" fill-opacity="1" /><path clip-path="url(#clip670)" d="M2167.17 261.83 L2171.43 261.83 L2171.43 287.756 L2167.17 287.756 L2167.17 261.83 M2167.17 251.737 L2171.43 251.737 L2171.43 257.131 L2167.17 257.131 L2167.17 251.737 Z" fill="#000000" fill-rule="nonzero" fill-opacity="1" /><path clip-path="url(#clip670)" d="M2190.38 264.816 Q2186.96 264.816 2184.97 267.501 Q2182.98 270.163 2182.98 274.816 Q2182.98 279.469 2184.94 282.154 Q2186.94 284.816 2190.38 284.816 Q2193.79 284.816 2195.78 282.131 Q2197.77 279.446 2197.77 274.816 Q2197.77 270.21 2195.78 267.524 Q2193.79 264.816 2190.38 264.816 M2190.38 261.205 Q2195.94 261.205 2199.11 264.816 Q2202.28 268.427 2202.28 274.816 Q2202.28 281.182 2199.11 284.816 Q2195.94 288.427 2190.38 288.427 Q2184.81 288.427 2181.63 284.816 Q2178.49 281.182 2178.49 274.816 Q2178.49 268.427 2181.63 264.816 Q2184.81 261.205 2190.38 261.205 Z" fill="#000000" fill-rule="nonzero" fill-opacity="1" /><path clip-path="url(#clip670)" d="M2230.89 272.108 L2230.89 287.756 L2226.63 287.756 L2226.63 272.247 Q2226.63 268.566 2225.2 266.737 Q2223.76 264.909 2220.89 264.909 Q2217.44 264.909 2215.45 267.108 Q2213.46 269.307 2213.46 273.103 L2213.46 287.756 L2209.18 287.756 L2209.18 261.83 L2213.46 261.83 L2213.46 265.858 Q2214.99 263.52 2217.05 262.362 Q2219.13 261.205 2221.84 261.205 Q2226.31 261.205 2228.6 263.983 Q2230.89 266.737 2230.89 272.108 Z" fill="#000000" fill-rule="nonzero" fill-opacity="1" /><path clip-path="url(#clip670)" d="M2255.92 262.594 L2255.92 266.622 Q2254.11 265.696 2252.17 265.233 Q2250.22 264.77 2248.14 264.77 Q2244.97 264.77 2243.37 265.742 Q2241.8 266.714 2241.8 268.659 Q2241.8 270.14 2242.93 270.997 Q2244.06 271.83 2247.49 272.594 L2248.95 272.918 Q2253.49 273.89 2255.38 275.672 Q2257.31 277.432 2257.31 280.603 Q2257.31 284.214 2254.44 286.321 Q2251.59 288.427 2246.59 288.427 Q2244.5 288.427 2242.24 288.01 Q2239.99 287.617 2237.49 286.807 L2237.49 282.409 Q2239.85 283.635 2242.14 284.26 Q2244.44 284.862 2246.68 284.862 Q2249.69 284.862 2251.31 283.844 Q2252.93 282.802 2252.93 280.927 Q2252.93 279.191 2251.75 278.265 Q2250.59 277.339 2246.63 276.483 L2245.15 276.135 Q2241.19 275.302 2239.44 273.589 Q2237.68 271.853 2237.68 268.844 Q2237.68 265.186 2240.27 263.196 Q2242.86 261.205 2247.63 261.205 Q2249.99 261.205 2252.07 261.552 Q2254.16 261.899 2255.92 262.594 Z" fill="#000000" fill-rule="nonzero" fill-opacity="1" /></svg>
