<svg xmlns="http://www.w3.org/2000/svg" xmlns:xlink="http://www.w3.org/1999/xlink" width="600" height="400" viewBox="0 0 2400 1600">
<defs>
  <clipPath id="clip080">
    <rect x="0" y="0" width="2400" height="1600"></rect>
  </clipPath>
</defs>
<path clip-path="url(#clip080)" d="M0 1600 L2400 1600 L2400 0 L0 0  Z" fill="#ffffff" fill-rule="evenodd" fill-opacity="1"></path>
<defs>
  <clipPath id="clip081">
    <rect x="480" y="0" width="1681" height="1600"></rect>
  </clipPath>
</defs>
<path clip-path="url(#clip080)" d="M205.121 1423.18 L2352.76 1423.18 L2352.76 123.472 L205.121 123.472  Z" fill="#ffffff" fill-rule="evenodd" fill-opacity="1"></path>
<defs>
  <clipPath id="clip082">
    <rect x="205" y="123" width="2149" height="1301"></rect>
  </clipPath>
</defs>
<polyline clip-path="url(#clip082)" style="stroke:#000000; stroke-linecap:round; stroke-linejoin:round; stroke-width:2; stroke-opacity:0.1; fill:none" points="258.297,1423.18 258.297,123.472 "></polyline>
<polyline clip-path="url(#clip082)" style="stroke:#000000; stroke-linecap:round; stroke-linejoin:round; stroke-width:2; stroke-opacity:0.1; fill:none" points="765.699,1423.18 765.699,123.472 "></polyline>
<polyline clip-path="url(#clip082)" style="stroke:#000000; stroke-linecap:round; stroke-linejoin:round; stroke-width:2; stroke-opacity:0.1; fill:none" points="1273.1,1423.18 1273.1,123.472 "></polyline>
<polyline clip-path="url(#clip082)" style="stroke:#000000; stroke-linecap:round; stroke-linejoin:round; stroke-width:2; stroke-opacity:0.1; fill:none" points="1780.5,1423.18 1780.5,123.472 "></polyline>
<polyline clip-path="url(#clip082)" style="stroke:#000000; stroke-linecap:round; stroke-linejoin:round; stroke-width:2; stroke-opacity:0.1; fill:none" points="2287.9,1423.18 2287.9,123.472 "></polyline>
<polyline clip-path="url(#clip080)" style="stroke:#000000; stroke-linecap:round; stroke-linejoin:round; stroke-width:4; stroke-opacity:1; fill:none" points="205.121,1423.18 2352.76,1423.18 "></polyline>
<polyline clip-path="url(#clip080)" style="stroke:#000000; stroke-linecap:round; stroke-linejoin:round; stroke-width:4; stroke-opacity:1; fill:none" points="258.297,1423.18 258.297,1404.28 "></polyline>
<polyline clip-path="url(#clip080)" style="stroke:#000000; stroke-linecap:round; stroke-linejoin:round; stroke-width:4; stroke-opacity:1; fill:none" points="765.699,1423.18 765.699,1404.28 "></polyline>
<polyline clip-path="url(#clip080)" style="stroke:#000000; stroke-linecap:round; stroke-linejoin:round; stroke-width:4; stroke-opacity:1; fill:none" points="1273.1,1423.18 1273.1,1404.28 "></polyline>
<polyline clip-path="url(#clip080)" style="stroke:#000000; stroke-linecap:round; stroke-linejoin:round; stroke-width:4; stroke-opacity:1; fill:none" points="1780.5,1423.18 1780.5,1404.28 "></polyline>
<polyline clip-path="url(#clip080)" style="stroke:#000000; stroke-linecap:round; stroke-linejoin:round; stroke-width:4; stroke-opacity:1; fill:none" points="2287.9,1423.18 2287.9,1404.28 "></polyline>
<path clip-path="url(#clip080)" d="M235.681 1454.1 Q232.07 1454.1 230.241 1457.66 Q228.436 1461.2 228.436 1468.33 Q228.436 1475.44 230.241 1479.01 Q232.07 1482.55 235.681 1482.55 Q239.315 1482.55 241.121 1479.01 Q242.95 1475.44 242.95 1468.33 Q242.95 1461.2 241.121 1457.66 Q239.315 1454.1 235.681 1454.1 M235.681 1450.39 Q241.491 1450.39 244.547 1455 Q247.626 1459.58 247.626 1468.33 Q247.626 1477.06 244.547 1481.67 Q241.491 1486.25 235.681 1486.25 Q229.871 1486.25 226.792 1481.67 Q223.737 1477.06 223.737 1468.33 Q223.737 1459.58 226.792 1455 Q229.871 1450.39 235.681 1450.39 Z" fill="#000000" fill-rule="nonzero" fill-opacity="1"></path><path clip-path="url(#clip080)" d="M255.843 1479.7 L260.727 1479.7 L260.727 1485.58 L255.843 1485.58 L255.843 1479.7 Z" fill="#000000" fill-rule="nonzero" fill-opacity="1"></path><path clip-path="url(#clip080)" d="M280.912 1454.1 Q277.301 1454.1 275.473 1457.66 Q273.667 1461.2 273.667 1468.33 Q273.667 1475.44 275.473 1479.01 Q277.301 1482.55 280.912 1482.55 Q284.547 1482.55 286.352 1479.01 Q288.181 1475.44 288.181 1468.33 Q288.181 1461.2 286.352 1457.66 Q284.547 1454.1 280.912 1454.1 M280.912 1450.39 Q286.723 1450.39 289.778 1455 Q292.857 1459.58 292.857 1468.33 Q292.857 1477.06 289.778 1481.67 Q286.723 1486.25 280.912 1486.25 Q275.102 1486.25 272.024 1481.67 Q268.968 1477.06 268.968 1468.33 Q268.968 1459.58 272.024 1455 Q275.102 1450.39 280.912 1450.39 Z" fill="#000000" fill-rule="nonzero" fill-opacity="1"></path><path clip-path="url(#clip080)" d="M743.581 1454.1 Q739.97 1454.1 738.141 1457.66 Q736.336 1461.2 736.336 1468.33 Q736.336 1475.44 738.141 1479.01 Q739.97 1482.55 743.581 1482.55 Q747.215 1482.55 749.021 1479.01 Q750.849 1475.44 750.849 1468.33 Q750.849 1461.2 749.021 1457.66 Q747.215 1454.1 743.581 1454.1 M743.581 1450.39 Q749.391 1450.39 752.447 1455 Q755.525 1459.58 755.525 1468.33 Q755.525 1477.06 752.447 1481.67 Q749.391 1486.25 743.581 1486.25 Q737.771 1486.25 734.692 1481.67 Q731.636 1477.06 731.636 1468.33 Q731.636 1459.58 734.692 1455 Q737.771 1450.39 743.581 1450.39 Z" fill="#000000" fill-rule="nonzero" fill-opacity="1"></path><path clip-path="url(#clip080)" d="M763.743 1479.7 L768.627 1479.7 L768.627 1485.58 L763.743 1485.58 L763.743 1479.7 Z" fill="#000000" fill-rule="nonzero" fill-opacity="1"></path><path clip-path="url(#clip080)" d="M778.858 1451.02 L797.215 1451.02 L797.215 1454.96 L783.141 1454.96 L783.141 1463.43 Q784.159 1463.08 785.178 1462.92 Q786.196 1462.73 787.215 1462.73 Q793.002 1462.73 796.381 1465.9 Q799.761 1469.08 799.761 1474.49 Q799.761 1480.07 796.289 1483.17 Q792.817 1486.25 786.497 1486.25 Q784.321 1486.25 782.053 1485.88 Q779.808 1485.51 777.4 1484.77 L777.4 1480.07 Q779.483 1481.2 781.706 1481.76 Q783.928 1482.32 786.405 1482.32 Q790.409 1482.32 792.747 1480.21 Q795.085 1478.1 795.085 1474.49 Q795.085 1470.88 792.747 1468.77 Q790.409 1466.67 786.405 1466.67 Q784.53 1466.67 782.655 1467.08 Q780.803 1467.5 778.858 1468.38 L778.858 1451.02 Z" fill="#000000" fill-rule="nonzero" fill-opacity="1"></path><path clip-path="url(#clip080)" d="M1240.25 1481.64 L1247.89 1481.64 L1247.89 1455.28 L1239.58 1456.95 L1239.58 1452.69 L1247.85 1451.02 L1252.52 1451.02 L1252.52 1481.64 L1260.16 1481.64 L1260.16 1485.58 L1240.25 1485.58 L1240.25 1481.64 Z" fill="#000000" fill-rule="nonzero" fill-opacity="1"></path><path clip-path="url(#clip080)" d="M1269.61 1479.7 L1274.49 1479.7 L1274.49 1485.58 L1269.61 1485.58 L1269.61 1479.7 Z" fill="#000000" fill-rule="nonzero" fill-opacity="1"></path><path clip-path="url(#clip080)" d="M1294.67 1454.1 Q1291.06 1454.1 1289.23 1457.66 Q1287.43 1461.2 1287.43 1468.33 Q1287.43 1475.44 1289.23 1479.01 Q1291.06 1482.55 1294.67 1482.55 Q1298.31 1482.55 1300.11 1479.01 Q1301.94 1475.44 1301.94 1468.33 Q1301.94 1461.2 1300.11 1457.66 Q1298.31 1454.1 1294.67 1454.1 M1294.67 1450.39 Q1300.48 1450.39 1303.54 1455 Q1306.62 1459.58 1306.62 1468.33 Q1306.62 1477.06 1303.54 1481.67 Q1300.48 1486.25 1294.67 1486.25 Q1288.86 1486.25 1285.79 1481.67 Q1282.73 1477.06 1282.73 1468.33 Q1282.73 1459.58 1285.79 1455 Q1288.86 1450.39 1294.67 1450.39 Z" fill="#000000" fill-rule="nonzero" fill-opacity="1"></path><path clip-path="url(#clip080)" d="M1748.15 1481.64 L1755.79 1481.64 L1755.79 1455.28 L1747.48 1456.95 L1747.48 1452.69 L1755.75 1451.02 L1760.42 1451.02 L1760.42 1481.64 L1768.06 1481.64 L1768.06 1485.58 L1748.15 1485.58 L1748.15 1481.64 Z" fill="#000000" fill-rule="nonzero" fill-opacity="1"></path><path clip-path="url(#clip080)" d="M1777.5 1479.7 L1782.39 1479.7 L1782.39 1485.58 L1777.5 1485.58 L1777.5 1479.7 Z" fill="#000000" fill-rule="nonzero" fill-opacity="1"></path><path clip-path="url(#clip080)" d="M1792.62 1451.02 L1810.98 1451.02 L1810.98 1454.96 L1796.9 1454.96 L1796.9 1463.43 Q1797.92 1463.08 1798.94 1462.92 Q1799.96 1462.73 1800.98 1462.73 Q1806.76 1462.73 1810.14 1465.9 Q1813.52 1469.08 1813.52 1474.49 Q1813.52 1480.07 1810.05 1483.17 Q1806.58 1486.25 1800.26 1486.25 Q1798.08 1486.25 1795.82 1485.88 Q1793.57 1485.51 1791.16 1484.77 L1791.16 1480.07 Q1793.25 1481.2 1795.47 1481.76 Q1797.69 1482.32 1800.17 1482.32 Q1804.17 1482.32 1806.51 1480.21 Q1808.85 1478.1 1808.85 1474.49 Q1808.85 1470.88 1806.51 1468.77 Q1804.17 1466.67 1800.17 1466.67 Q1798.29 1466.67 1796.42 1467.08 Q1794.57 1467.5 1792.62 1468.38 L1792.62 1451.02 Z" fill="#000000" fill-rule="nonzero" fill-opacity="1"></path><path clip-path="url(#clip080)" d="M2259.14 1481.64 L2275.46 1481.64 L2275.46 1485.58 L2253.52 1485.58 L2253.52 1481.64 Q2256.18 1478.89 2260.76 1474.26 Q2265.37 1469.61 2266.55 1468.27 Q2268.8 1465.74 2269.68 1464.01 Q2270.58 1462.25 2270.58 1460.56 Q2270.58 1457.8 2268.63 1456.07 Q2266.71 1454.33 2263.61 1454.33 Q2261.41 1454.33 2258.96 1455.09 Q2256.53 1455.86 2253.75 1457.41 L2253.75 1452.69 Q2256.57 1451.55 2259.03 1450.97 Q2261.48 1450.39 2263.52 1450.39 Q2268.89 1450.39 2272.08 1453.08 Q2275.28 1455.77 2275.28 1460.26 Q2275.28 1462.39 2274.47 1464.31 Q2273.68 1466.2 2271.57 1468.8 Q2270.99 1469.47 2267.89 1472.69 Q2264.79 1475.88 2259.14 1481.64 Z" fill="#000000" fill-rule="nonzero" fill-opacity="1"></path><path clip-path="url(#clip080)" d="M2285.28 1479.7 L2290.16 1479.7 L2290.16 1485.58 L2285.28 1485.58 L2285.28 1479.7 Z" fill="#000000" fill-rule="nonzero" fill-opacity="1"></path><path clip-path="url(#clip080)" d="M2310.35 1454.1 Q2306.74 1454.1 2304.91 1457.66 Q2303.1 1461.2 2303.1 1468.33 Q2303.1 1475.44 2304.91 1479.01 Q2306.74 1482.55 2310.35 1482.55 Q2313.98 1482.55 2315.79 1479.01 Q2317.62 1475.44 2317.62 1468.33 Q2317.62 1461.2 2315.79 1457.66 Q2313.98 1454.1 2310.35 1454.1 M2310.35 1450.39 Q2316.16 1450.39 2319.21 1455 Q2322.29 1459.58 2322.29 1468.33 Q2322.29 1477.06 2319.21 1481.67 Q2316.16 1486.25 2310.35 1486.25 Q2304.54 1486.25 2301.46 1481.67 Q2298.4 1477.06 2298.4 1468.33 Q2298.4 1459.58 2301.46 1455 Q2304.54 1450.39 2310.35 1450.39 Z" fill="#000000" fill-rule="nonzero" fill-opacity="1"></path><path clip-path="url(#clip080)" d="M1200.82 1520.52 L1241.01 1520.52 L1241.01 1525.93 L1224.15 1525.93 L1224.15 1568.04 L1217.68 1568.04 L1217.68 1525.93 L1200.82 1525.93 L1200.82 1520.52 Z" fill="#000000" fill-rule="nonzero" fill-opacity="1"></path><path clip-path="url(#clip080)" d="M1244.96 1532.4 L1250.82 1532.4 L1250.82 1568.04 L1244.96 1568.04 L1244.96 1532.4 M1244.96 1518.52 L1250.82 1518.52 L1250.82 1525.93 L1244.96 1525.93 L1244.96 1518.52 Z" fill="#000000" fill-rule="nonzero" fill-opacity="1"></path><path clip-path="url(#clip080)" d="M1290.83 1539.24 Q1293.02 1535.29 1296.08 1533.41 Q1299.13 1531.54 1303.27 1531.54 Q1308.84 1531.54 1311.87 1535.45 Q1314.89 1539.33 1314.89 1546.53 L1314.89 1568.04 L1309 1568.04 L1309 1546.72 Q1309 1541.59 1307.19 1539.11 Q1305.37 1536.63 1301.65 1536.63 Q1297.1 1536.63 1294.45 1539.65 Q1291.81 1542.68 1291.81 1547.9 L1291.81 1568.04 L1285.92 1568.04 L1285.92 1546.72 Q1285.92 1541.56 1284.11 1539.11 Q1282.3 1536.63 1278.51 1536.63 Q1274.02 1536.63 1271.38 1539.68 Q1268.74 1542.71 1268.74 1547.9 L1268.74 1568.04 L1262.85 1568.04 L1262.85 1532.4 L1268.74 1532.4 L1268.74 1537.93 Q1270.74 1534.66 1273.54 1533.1 Q1276.34 1531.54 1280.2 1531.54 Q1284.08 1531.54 1286.78 1533.51 Q1289.52 1535.48 1290.83 1539.24 Z" fill="#000000" fill-rule="nonzero" fill-opacity="1"></path><path clip-path="url(#clip080)" d="M1357.06 1548.76 L1357.06 1551.62 L1330.13 1551.62 Q1330.52 1557.67 1333.76 1560.85 Q1337.04 1564 1342.87 1564 Q1346.24 1564 1349.39 1563.17 Q1352.57 1562.35 1355.69 1560.69 L1355.69 1566.23 Q1352.54 1567.57 1349.23 1568.27 Q1345.92 1568.97 1342.52 1568.97 Q1333.99 1568.97 1328.99 1564 Q1324.02 1559.04 1324.02 1550.57 Q1324.02 1541.82 1328.73 1536.69 Q1333.48 1531.54 1341.5 1531.54 Q1348.69 1531.54 1352.86 1536.18 Q1357.06 1540.8 1357.06 1548.76 M1351.21 1547.04 Q1351.14 1542.23 1348.5 1539.37 Q1345.89 1536.5 1341.56 1536.5 Q1336.66 1536.5 1333.7 1539.27 Q1330.77 1542.04 1330.33 1547.07 L1351.21 1547.04 Z" fill="#000000" fill-rule="nonzero" fill-opacity="1"></path><polyline clip-path="url(#clip082)" style="stroke:#000000; stroke-linecap:round; stroke-linejoin:round; stroke-width:2; stroke-opacity:0.1; fill:none" points="205.121,1277.34 2352.76,1277.34 "></polyline>
<polyline clip-path="url(#clip082)" style="stroke:#000000; stroke-linecap:round; stroke-linejoin:round; stroke-width:2; stroke-opacity:0.1; fill:none" points="205.121,1004.69 2352.76,1004.69 "></polyline>
<polyline clip-path="url(#clip082)" style="stroke:#000000; stroke-linecap:round; stroke-linejoin:round; stroke-width:2; stroke-opacity:0.1; fill:none" points="205.121,732.044 2352.76,732.044 "></polyline>
<polyline clip-path="url(#clip082)" style="stroke:#000000; stroke-linecap:round; stroke-linejoin:round; stroke-width:2; stroke-opacity:0.1; fill:none" points="205.121,459.398 2352.76,459.398 "></polyline>
<polyline clip-path="url(#clip082)" style="stroke:#000000; stroke-linecap:round; stroke-linejoin:round; stroke-width:2; stroke-opacity:0.1; fill:none" points="205.121,186.751 2352.76,186.751 "></polyline>
<polyline clip-path="url(#clip080)" style="stroke:#000000; stroke-linecap:round; stroke-linejoin:round; stroke-width:4; stroke-opacity:1; fill:none" points="205.121,1423.18 205.121,123.472 "></polyline>
<polyline clip-path="url(#clip080)" style="stroke:#000000; stroke-linecap:round; stroke-linejoin:round; stroke-width:4; stroke-opacity:1; fill:none" points="205.121,1277.34 224.019,1277.34 "></polyline>
<polyline clip-path="url(#clip080)" style="stroke:#000000; stroke-linecap:round; stroke-linejoin:round; stroke-width:4; stroke-opacity:1; fill:none" points="205.121,1004.69 224.019,1004.69 "></polyline>
<polyline clip-path="url(#clip080)" style="stroke:#000000; stroke-linecap:round; stroke-linejoin:round; stroke-width:4; stroke-opacity:1; fill:none" points="205.121,732.044 224.019,732.044 "></polyline>
<polyline clip-path="url(#clip080)" style="stroke:#000000; stroke-linecap:round; stroke-linejoin:round; stroke-width:4; stroke-opacity:1; fill:none" points="205.121,459.398 224.019,459.398 "></polyline>
<polyline clip-path="url(#clip080)" style="stroke:#000000; stroke-linecap:round; stroke-linejoin:round; stroke-width:4; stroke-opacity:1; fill:none" points="205.121,186.751 224.019,186.751 "></polyline>
<path clip-path="url(#clip080)" d="M121.043 1290.68 L137.362 1290.68 L137.362 1294.62 L115.418 1294.62 L115.418 1290.68 Q118.08 1287.93 122.663 1283.3 Q127.269 1278.64 128.45 1277.3 Q130.695 1274.78 131.575 1273.04 Q132.478 1271.28 132.478 1269.59 Q132.478 1266.84 130.533 1265.1 Q128.612 1263.37 125.51 1263.37 Q123.311 1263.37 120.857 1264.13 Q118.427 1264.9 115.649 1266.45 L115.649 1261.72 Q118.473 1260.59 120.927 1260.01 Q123.38 1259.43 125.418 1259.43 Q130.788 1259.43 133.982 1262.12 Q137.177 1264.8 137.177 1269.29 Q137.177 1271.42 136.367 1273.34 Q135.579 1275.24 133.473 1277.83 Q132.894 1278.51 129.792 1281.72 Q126.691 1284.92 121.043 1290.68 Z" fill="#000000" fill-rule="nonzero" fill-opacity="1"></path><path clip-path="url(#clip080)" d="M157.177 1263.14 Q153.566 1263.14 151.737 1266.7 Q149.931 1270.24 149.931 1277.37 Q149.931 1284.48 151.737 1288.04 Q153.566 1291.58 157.177 1291.58 Q160.811 1291.58 162.616 1288.04 Q164.445 1284.48 164.445 1277.37 Q164.445 1270.24 162.616 1266.7 Q160.811 1263.14 157.177 1263.14 M157.177 1259.43 Q162.987 1259.43 166.042 1264.04 Q169.121 1268.62 169.121 1277.37 Q169.121 1286.1 166.042 1290.71 Q162.987 1295.29 157.177 1295.29 Q151.366 1295.29 148.288 1290.71 Q145.232 1286.1 145.232 1277.37 Q145.232 1268.62 148.288 1264.04 Q151.366 1259.43 157.177 1259.43 Z" fill="#000000" fill-rule="nonzero" fill-opacity="1"></path><path clip-path="url(#clip080)" d="M131.181 1003.34 Q134.538 1004.05 136.413 1006.32 Q138.311 1008.59 138.311 1011.92 Q138.311 1017.04 134.792 1019.84 Q131.274 1022.64 124.793 1022.64 Q122.617 1022.64 120.302 1022.2 Q118.01 1021.79 115.556 1020.93 L115.556 1016.42 Q117.501 1017.55 119.816 1018.13 Q122.13 1018.71 124.654 1018.71 Q129.052 1018.71 131.343 1016.97 Q133.658 1015.23 133.658 1011.92 Q133.658 1008.87 131.505 1007.16 Q129.376 1005.42 125.556 1005.42 L121.529 1005.42 L121.529 1001.58 L125.742 1001.58 Q129.191 1001.58 131.019 1000.21 Q132.848 998.823 132.848 996.23 Q132.848 993.568 130.95 992.156 Q129.075 990.721 125.556 990.721 Q123.635 990.721 121.436 991.137 Q119.237 991.554 116.598 992.434 L116.598 988.267 Q119.26 987.526 121.575 987.156 Q123.913 986.786 125.973 986.786 Q131.297 986.786 134.399 989.216 Q137.501 991.624 137.501 995.744 Q137.501 998.614 135.857 1000.6 Q134.214 1002.57 131.181 1003.34 Z" fill="#000000" fill-rule="nonzero" fill-opacity="1"></path><path clip-path="url(#clip080)" d="M157.177 990.489 Q153.566 990.489 151.737 994.054 Q149.931 997.596 149.931 1004.73 Q149.931 1011.83 151.737 1015.4 Q153.566 1018.94 157.177 1018.94 Q160.811 1018.94 162.616 1015.4 Q164.445 1011.83 164.445 1004.73 Q164.445 997.596 162.616 994.054 Q160.811 990.489 157.177 990.489 M157.177 986.786 Q162.987 986.786 166.042 991.392 Q169.121 995.975 169.121 1004.73 Q169.121 1013.45 166.042 1018.06 Q162.987 1022.64 157.177 1022.64 Q151.366 1022.64 148.288 1018.06 Q145.232 1013.45 145.232 1004.73 Q145.232 995.975 148.288 991.392 Q151.366 986.786 157.177 986.786 Z" fill="#000000" fill-rule="nonzero" fill-opacity="1"></path><path clip-path="url(#clip080)" d="M129.862 718.838 L118.056 737.287 L129.862 737.287 L129.862 718.838 M128.635 714.764 L134.515 714.764 L134.515 737.287 L139.445 737.287 L139.445 741.176 L134.515 741.176 L134.515 749.324 L129.862 749.324 L129.862 741.176 L114.26 741.176 L114.26 736.662 L128.635 714.764 Z" fill="#000000" fill-rule="nonzero" fill-opacity="1"></path><path clip-path="url(#clip080)" d="M157.177 717.843 Q153.566 717.843 151.737 721.408 Q149.931 724.949 149.931 732.079 Q149.931 739.185 151.737 742.75 Q153.566 746.292 157.177 746.292 Q160.811 746.292 162.616 742.75 Q164.445 739.185 164.445 732.079 Q164.445 724.949 162.616 721.408 Q160.811 717.843 157.177 717.843 M157.177 714.139 Q162.987 714.139 166.042 718.746 Q169.121 723.329 169.121 732.079 Q169.121 740.806 166.042 745.412 Q162.987 749.995 157.177 749.995 Q151.366 749.995 148.288 745.412 Q145.232 740.806 145.232 732.079 Q145.232 723.329 148.288 718.746 Q151.366 714.139 157.177 714.139 Z" fill="#000000" fill-rule="nonzero" fill-opacity="1"></path><path clip-path="url(#clip080)" d="M117.061 442.118 L135.417 442.118 L135.417 446.053 L121.343 446.053 L121.343 454.525 Q122.362 454.178 123.38 454.016 Q124.399 453.83 125.418 453.83 Q131.205 453.83 134.584 457.002 Q137.964 460.173 137.964 465.59 Q137.964 471.168 134.492 474.27 Q131.019 477.349 124.7 477.349 Q122.524 477.349 120.255 476.979 Q118.01 476.608 115.603 475.867 L115.603 471.168 Q117.686 472.303 119.908 472.858 Q122.13 473.414 124.607 473.414 Q128.612 473.414 130.95 471.307 Q133.288 469.201 133.288 465.59 Q133.288 461.979 130.95 459.872 Q128.612 457.766 124.607 457.766 Q122.732 457.766 120.857 458.182 Q119.006 458.599 117.061 459.479 L117.061 442.118 Z" fill="#000000" fill-rule="nonzero" fill-opacity="1"></path><path clip-path="url(#clip080)" d="M157.177 445.196 Q153.566 445.196 151.737 448.761 Q149.931 452.303 149.931 459.432 Q149.931 466.539 151.737 470.104 Q153.566 473.645 157.177 473.645 Q160.811 473.645 162.616 470.104 Q164.445 466.539 164.445 459.432 Q164.445 452.303 162.616 448.761 Q160.811 445.196 157.177 445.196 M157.177 441.493 Q162.987 441.493 166.042 446.099 Q169.121 450.682 169.121 459.432 Q169.121 468.159 166.042 472.766 Q162.987 477.349 157.177 477.349 Q151.366 477.349 148.288 472.766 Q145.232 468.159 145.232 459.432 Q145.232 450.682 148.288 446.099 Q151.366 441.493 157.177 441.493 Z" fill="#000000" fill-rule="nonzero" fill-opacity="1"></path><path clip-path="url(#clip080)" d="M127.593 184.888 Q124.445 184.888 122.593 187.04 Q120.765 189.193 120.765 192.943 Q120.765 196.67 122.593 198.846 Q124.445 200.999 127.593 200.999 Q130.742 200.999 132.57 198.846 Q134.422 196.67 134.422 192.943 Q134.422 189.193 132.57 187.04 Q130.742 184.888 127.593 184.888 M136.876 170.235 L136.876 174.494 Q135.117 173.661 133.311 173.221 Q131.529 172.781 129.769 172.781 Q125.14 172.781 122.686 175.906 Q120.255 179.031 119.908 185.351 Q121.274 183.337 123.334 182.272 Q125.394 181.184 127.871 181.184 Q133.08 181.184 136.089 184.355 Q139.121 187.503 139.121 192.943 Q139.121 198.267 135.973 201.485 Q132.825 204.702 127.593 204.702 Q121.598 204.702 118.427 200.119 Q115.256 195.513 115.256 186.786 Q115.256 178.591 119.144 173.73 Q123.033 168.846 129.584 168.846 Q131.343 168.846 133.126 169.193 Q134.931 169.541 136.876 170.235 Z" fill="#000000" fill-rule="nonzero" fill-opacity="1"></path><path clip-path="url(#clip080)" d="M157.177 172.55 Q153.566 172.55 151.737 176.115 Q149.931 179.656 149.931 186.786 Q149.931 193.892 151.737 197.457 Q153.566 200.999 157.177 200.999 Q160.811 200.999 162.616 197.457 Q164.445 193.892 164.445 186.786 Q164.445 179.656 162.616 176.115 Q160.811 172.55 157.177 172.55 M157.177 168.846 Q162.987 168.846 166.042 173.453 Q169.121 178.036 169.121 186.786 Q169.121 195.513 166.042 200.119 Q162.987 204.702 157.177 204.702 Q151.366 204.702 148.288 200.119 Q145.232 195.513 145.232 186.786 Q145.232 178.036 148.288 173.453 Q151.366 168.846 157.177 168.846 Z" fill="#000000" fill-rule="nonzero" fill-opacity="1"></path><path clip-path="url(#clip080)" d="M16.4842 1110.17 L16.4842 1101.51 L56.238 1080.44 L16.4842 1080.44 L16.4842 1074.2 L64.0042 1074.2 L64.0042 1082.86 L24.2503 1103.93 L64.0042 1103.93 L64.0042 1110.17 L16.4842 1110.17 Z" fill="#000000" fill-rule="nonzero" fill-opacity="1"></path><path clip-path="url(#clip080)" d="M49.9359 1062.27 L28.3562 1062.27 L28.3562 1056.41 L49.7131 1056.41 Q54.7739 1056.41 57.3202 1054.44 Q59.8346 1052.46 59.8346 1048.52 Q59.8346 1043.77 56.8109 1041.04 Q53.7872 1038.27 48.5673 1038.27 L28.3562 1038.27 L28.3562 1032.41 L64.0042 1032.41 L64.0042 1038.27 L58.5296 1038.27 Q61.7762 1040.4 63.3676 1043.23 Q64.9272 1046.03 64.9272 1049.76 Q64.9272 1055.9 61.1078 1059.08 Q57.2883 1062.27 49.9359 1062.27 M27.4968 1047.53 L27.4968 1047.53 Z" fill="#000000" fill-rule="nonzero" fill-opacity="1"></path><path clip-path="url(#clip080)" d="M35.1993 992.593 Q31.2526 990.397 29.3747 987.341 Q27.4968 984.286 27.4968 980.148 Q27.4968 974.578 31.4117 971.554 Q35.2948 968.53 42.4881 968.53 L64.0042 968.53 L64.0042 974.419 L42.679 974.419 Q37.5546 974.419 35.072 976.233 Q32.5894 978.047 32.5894 981.771 Q32.5894 986.323 35.6131 988.964 Q38.6368 991.606 43.8567 991.606 L64.0042 991.606 L64.0042 997.494 L42.679 997.494 Q37.5228 997.494 35.072 999.309 Q32.5894 1001.12 32.5894 1004.91 Q32.5894 1009.4 35.6449 1012.04 Q38.6686 1014.68 43.8567 1014.68 L64.0042 1014.68 L64.0042 1020.57 L28.3562 1020.57 L28.3562 1014.68 L33.8944 1014.68 Q30.616 1012.68 29.0564 1009.88 Q27.4968 1007.07 27.4968 1003.22 Q27.4968 999.34 29.4702 996.635 Q31.4436 993.898 35.1993 992.593 Z" fill="#000000" fill-rule="nonzero" fill-opacity="1"></path><path clip-path="url(#clip080)" d="M46.212 931.259 Q39.7508 931.259 36.0905 933.933 Q32.3984 936.575 32.3984 941.221 Q32.3984 945.868 36.0905 948.542 Q39.7508 951.184 46.212 951.184 Q52.6732 951.184 56.3653 948.542 Q60.0256 945.868 60.0256 941.221 Q60.0256 936.575 56.3653 933.933 Q52.6732 931.259 46.212 931.259 M33.7671 951.184 Q30.5842 949.338 29.0564 946.537 Q27.4968 943.704 27.4968 939.789 Q27.4968 933.296 32.6531 929.254 Q37.8093 925.18 46.212 925.18 Q54.6147 925.18 59.771 929.254 Q64.9272 933.296 64.9272 939.789 Q64.9272 943.704 63.3994 946.537 Q61.8398 949.338 58.657 951.184 L64.0042 951.184 L64.0042 957.072 L14.479 957.072 L14.479 951.184 L33.7671 951.184 Z" fill="#000000" fill-rule="nonzero" fill-opacity="1"></path><path clip-path="url(#clip080)" d="M44.7161 884.98 L47.5806 884.98 L47.5806 911.907 Q53.6281 911.525 56.8109 908.279 Q59.9619 905.001 59.9619 899.176 Q59.9619 895.802 59.1344 892.651 Q58.3069 889.468 56.6518 886.349 L62.1899 886.349 Q63.5267 889.5 64.227 892.81 Q64.9272 896.12 64.9272 899.526 Q64.9272 908.056 59.9619 913.053 Q54.9967 918.018 46.5303 918.018 Q37.7774 918.018 32.6531 913.308 Q27.4968 908.565 27.4968 900.545 Q27.4968 893.351 32.1438 889.182 Q36.7589 884.98 44.7161 884.98 M42.9973 890.837 Q38.1912 890.901 35.3266 893.542 Q32.4621 896.152 32.4621 900.481 Q32.4621 905.383 35.2312 908.343 Q38.0002 911.271 43.0292 911.716 L42.9973 890.837 Z" fill="#000000" fill-rule="nonzero" fill-opacity="1"></path><path clip-path="url(#clip080)" d="M33.8307 854.712 Q33.2578 855.698 33.0032 856.876 Q32.7167 858.022 32.7167 859.422 Q32.7167 864.387 35.9632 867.061 Q39.1779 869.703 45.2253 869.703 L64.0042 869.703 L64.0042 875.591 L28.3562 875.591 L28.3562 869.703 L33.8944 869.703 Q30.6479 867.857 29.0883 864.897 Q27.4968 861.937 27.4968 857.703 Q27.4968 857.099 27.5923 856.367 Q27.656 855.635 27.8151 854.743 L33.8307 854.712 Z" fill="#000000" fill-rule="nonzero" fill-opacity="1"></path><path clip-path="url(#clip080)" d="M32.4621 814.035 Q32.4621 818.745 36.1542 821.483 Q39.8145 824.22 46.212 824.22 Q52.6095 824.22 56.3017 821.514 Q59.9619 818.777 59.9619 814.035 Q59.9619 809.356 56.2698 806.619 Q52.5777 803.881 46.212 803.881 Q39.8781 803.881 36.186 806.619 Q32.4621 809.356 32.4621 814.035 M27.4968 814.035 Q27.4968 806.396 32.4621 802.035 Q37.4273 797.675 46.212 797.675 Q54.9649 797.675 59.9619 802.035 Q64.9272 806.396 64.9272 814.035 Q64.9272 821.705 59.9619 826.066 Q54.9649 830.395 46.212 830.395 Q37.4273 830.395 32.4621 826.066 Q27.4968 821.705 27.4968 814.035 Z" fill="#000000" fill-rule="nonzero" fill-opacity="1"></path><path clip-path="url(#clip080)" d="M14.479 769.92 L19.3487 769.92 L19.3487 775.522 Q19.3487 778.673 20.6219 779.914 Q21.895 781.124 25.2052 781.124 L28.3562 781.124 L28.3562 771.48 L32.9077 771.48 L32.9077 781.124 L64.0042 781.124 L64.0042 787.012 L32.9077 787.012 L32.9077 792.614 L28.3562 792.614 L28.3562 787.012 L25.8736 787.012 Q19.9216 787.012 17.2162 784.243 Q14.479 781.474 14.479 775.458 L14.479 769.92 Z" fill="#000000" fill-rule="nonzero" fill-opacity="1"></path><path clip-path="url(#clip080)" d="M28.3562 744.298 L28.3562 738.442 L64.0042 738.442 L64.0042 744.298 L28.3562 744.298 M14.479 744.298 L14.479 738.442 L21.895 738.442 L21.895 744.298 L14.479 744.298 Z" fill="#000000" fill-rule="nonzero" fill-opacity="1"></path><path clip-path="url(#clip080)" d="M42.4881 696.556 L64.0042 696.556 L64.0042 702.412 L42.679 702.412 Q37.6183 702.412 35.1038 704.385 Q32.5894 706.359 32.5894 710.305 Q32.5894 715.048 35.6131 717.785 Q38.6368 720.522 43.8567 720.522 L64.0042 720.522 L64.0042 726.411 L28.3562 726.411 L28.3562 720.522 L33.8944 720.522 Q30.6797 718.422 29.0883 715.589 Q27.4968 712.724 27.4968 709.001 Q27.4968 702.858 31.3163 699.707 Q35.1038 696.556 42.4881 696.556 Z" fill="#000000" fill-rule="nonzero" fill-opacity="1"></path><path clip-path="url(#clip080)" d="M14.479 666.828 L19.3487 666.828 L19.3487 672.43 Q19.3487 675.581 20.6219 676.822 Q21.895 678.031 25.2052 678.031 L28.3562 678.031 L28.3562 668.387 L32.9077 668.387 L32.9077 678.031 L64.0042 678.031 L64.0042 683.92 L32.9077 683.92 L32.9077 689.521 L28.3562 689.521 L28.3562 683.92 L25.8736 683.92 Q19.9216 683.92 17.2162 681.151 Q14.479 678.381 14.479 672.366 L14.479 666.828 Z" fill="#000000" fill-rule="nonzero" fill-opacity="1"></path><path clip-path="url(#clip080)" d="M44.7161 631.434 L47.5806 631.434 L47.5806 658.361 Q53.6281 657.979 56.8109 654.733 Q59.9619 651.455 59.9619 645.63 Q59.9619 642.256 59.1344 639.105 Q58.3069 635.922 56.6518 632.803 L62.1899 632.803 Q63.5267 635.954 64.227 639.264 Q64.9272 642.574 64.9272 645.98 Q64.9272 654.51 59.9619 659.507 Q54.9967 664.472 46.5303 664.472 Q37.7774 664.472 32.6531 659.762 Q27.4968 655.019 27.4968 646.999 Q27.4968 639.805 32.1438 635.636 Q36.7589 631.434 44.7161 631.434 M42.9973 637.291 Q38.1912 637.354 35.3266 639.996 Q32.4621 642.606 32.4621 646.935 Q32.4621 651.836 35.2312 654.797 Q38.0002 657.725 43.0292 658.17 L42.9973 637.291 Z" fill="#000000" fill-rule="nonzero" fill-opacity="1"></path><path clip-path="url(#clip080)" d="M29.7248 596.168 L35.1993 596.168 Q33.8307 598.651 33.1623 601.165 Q32.4621 603.648 32.4621 606.194 Q32.4621 611.892 36.0905 615.043 Q39.6872 618.194 46.212 618.194 Q52.7369 618.194 56.3653 615.043 Q59.9619 611.892 59.9619 606.194 Q59.9619 603.648 59.2935 601.165 Q58.5933 598.651 57.2247 596.168 L62.6355 596.168 Q63.7814 598.619 64.3543 601.261 Q64.9272 603.871 64.9272 606.831 Q64.9272 614.884 59.8664 619.626 Q54.8057 624.368 46.212 624.368 Q37.491 624.368 32.4939 619.594 Q27.4968 614.788 27.4968 606.449 Q27.4968 603.744 28.0697 601.165 Q28.6108 598.587 29.7248 596.168 Z" fill="#000000" fill-rule="nonzero" fill-opacity="1"></path><path clip-path="url(#clip080)" d="M18.2347 580.19 L28.3562 580.19 L28.3562 568.127 L32.9077 568.127 L32.9077 580.19 L52.2594 580.19 Q56.6199 580.19 57.8613 579.013 Q59.1026 577.803 59.1026 574.143 L59.1026 568.127 L64.0042 568.127 L64.0042 574.143 Q64.0042 580.923 61.4897 583.501 Q58.9434 586.079 52.2594 586.079 L32.9077 586.079 L32.9077 590.376 L28.3562 590.376 L28.3562 586.079 L18.2347 586.079 L18.2347 580.19 Z" fill="#000000" fill-rule="nonzero" fill-opacity="1"></path><path clip-path="url(#clip080)" d="M28.3562 560.425 L28.3562 554.568 L64.0042 554.568 L64.0042 560.425 L28.3562 560.425 M14.479 560.425 L14.479 554.568 L21.895 554.568 L21.895 560.425 L14.479 560.425 Z" fill="#000000" fill-rule="nonzero" fill-opacity="1"></path><path clip-path="url(#clip080)" d="M32.4621 528.501 Q32.4621 533.212 36.1542 535.949 Q39.8145 538.686 46.212 538.686 Q52.6095 538.686 56.3017 535.981 Q59.9619 533.243 59.9619 528.501 Q59.9619 523.822 56.2698 521.085 Q52.5777 518.348 46.212 518.348 Q39.8781 518.348 36.186 521.085 Q32.4621 523.822 32.4621 528.501 M27.4968 528.501 Q27.4968 520.862 32.4621 516.502 Q37.4273 512.141 46.212 512.141 Q54.9649 512.141 59.9619 516.502 Q64.9272 520.862 64.9272 528.501 Q64.9272 536.172 59.9619 540.532 Q54.9649 544.861 46.212 544.861 Q37.4273 544.861 32.4621 540.532 Q27.4968 536.172 27.4968 528.501 Z" fill="#000000" fill-rule="nonzero" fill-opacity="1"></path><path clip-path="url(#clip080)" d="M42.4881 472.801 L64.0042 472.801 L64.0042 478.657 L42.679 478.657 Q37.6183 478.657 35.1038 480.631 Q32.5894 482.604 32.5894 486.551 Q32.5894 491.293 35.6131 494.031 Q38.6368 496.768 43.8567 496.768 L64.0042 496.768 L64.0042 502.656 L28.3562 502.656 L28.3562 496.768 L33.8944 496.768 Q30.6797 494.667 29.0883 491.834 Q27.4968 488.97 27.4968 485.246 Q27.4968 479.103 31.3163 475.952 Q35.1038 472.801 42.4881 472.801 Z" fill="#000000" fill-rule="nonzero" fill-opacity="1"></path><path clip-path="url(#clip080)" d="M29.4065 438.394 L34.9447 438.394 Q33.6716 440.877 33.035 443.551 Q32.3984 446.224 32.3984 449.089 Q32.3984 453.449 33.7352 455.645 Q35.072 457.81 37.7456 457.81 Q39.7826 457.81 40.9603 456.25 Q42.1061 454.691 43.1565 449.98 L43.6021 447.975 Q44.9389 441.736 47.3897 439.126 Q49.8086 436.485 54.1691 436.485 Q59.1344 436.485 62.0308 440.431 Q64.9272 444.346 64.9272 451.221 Q64.9272 454.086 64.3543 457.205 Q63.8132 460.292 62.6992 463.73 L56.6518 463.73 Q58.3387 460.483 59.198 457.332 Q60.0256 454.181 60.0256 451.094 Q60.0256 446.956 58.6251 444.728 Q57.1929 442.5 54.6147 442.5 Q52.2276 442.5 50.9545 444.123 Q49.6813 445.715 48.5037 451.158 L48.0262 453.195 Q46.8804 458.637 44.5251 461.056 Q42.138 463.475 38.0002 463.475 Q32.9713 463.475 30.2341 459.91 Q27.4968 456.346 27.4968 449.789 Q27.4968 446.542 27.9743 443.678 Q28.4517 440.813 29.4065 438.394 Z" fill="#000000" fill-rule="nonzero" fill-opacity="1"></path><path clip-path="url(#clip080)" d="M453.708 20.1573 L442.609 50.2555 L464.848 50.2555 L453.708 20.1573 M449.09 12.096 L458.367 12.096 L481.417 72.576 L472.91 72.576 L467.401 57.061 L440.138 57.061 L434.629 72.576 L426 72.576 L449.09 12.096 Z" fill="#000000" fill-rule="nonzero" fill-opacity="1"></path><path clip-path="url(#clip080)" d="M521.116 28.9478 L521.116 35.9153 Q517.956 34.1734 514.756 33.3227 Q511.596 32.4315 508.355 32.4315 Q501.104 32.4315 497.094 37.0496 Q493.083 41.6271 493.083 49.9314 Q493.083 58.2358 497.094 62.8538 Q501.104 67.4314 508.355 67.4314 Q511.596 67.4314 514.756 66.5807 Q517.956 65.6895 521.116 63.9476 L521.116 70.8341 Q517.996 72.2924 514.634 73.0216 Q511.312 73.7508 507.545 73.7508 Q497.296 73.7508 491.26 67.3098 Q485.225 60.8689 485.225 49.9314 Q485.225 38.832 491.301 32.472 Q497.418 26.1121 508.031 26.1121 Q511.474 26.1121 514.756 26.8413 Q518.037 27.5299 521.116 28.9478 Z" fill="#000000" fill-rule="nonzero" fill-opacity="1"></path><path clip-path="url(#clip080)" d="M541.451 14.324 L541.451 27.2059 L556.804 27.2059 L556.804 32.9987 L541.451 32.9987 L541.451 57.6282 Q541.451 63.1779 542.95 64.7578 Q544.489 66.3376 549.148 66.3376 L556.804 66.3376 L556.804 72.576 L549.148 72.576 Q540.519 72.576 537.238 69.3758 Q533.957 66.1351 533.957 57.6282 L533.957 32.9987 L528.488 32.9987 L528.488 27.2059 L533.957 27.2059 L533.957 14.324 L541.451 14.324 Z" fill="#000000" fill-rule="nonzero" fill-opacity="1"></path><path clip-path="url(#clip080)" d="M565.838 54.671 L565.838 27.2059 L573.291 27.2059 L573.291 54.3874 Q573.291 60.8284 575.803 64.0691 Q578.314 67.2693 583.337 67.2693 Q589.373 67.2693 592.857 63.421 Q596.381 59.5726 596.381 52.9291 L596.381 27.2059 L603.835 27.2059 L603.835 72.576 L596.381 72.576 L596.381 65.6084 Q593.667 69.7404 590.062 71.7658 Q586.497 73.7508 581.758 73.7508 Q573.939 73.7508 569.888 68.8897 Q565.838 64.0286 565.838 54.671 M584.593 26.1121 L584.593 26.1121 Z" fill="#000000" fill-rule="nonzero" fill-opacity="1"></path><path clip-path="url(#clip080)" d="M639.807 49.7694 Q630.774 49.7694 627.29 51.8354 Q623.806 53.9013 623.806 58.8839 Q623.806 62.8538 626.399 65.2034 Q629.032 67.5124 633.528 67.5124 Q639.726 67.5124 643.453 63.1374 Q647.22 58.7219 647.22 51.4303 L647.22 49.7694 L639.807 49.7694 M654.674 46.6907 L654.674 72.576 L647.22 72.576 L647.22 65.6895 Q644.668 69.8214 640.86 71.8063 Q637.052 73.7508 631.543 73.7508 Q624.576 73.7508 620.444 69.8619 Q616.352 65.9325 616.352 59.3701 Q616.352 51.7138 621.456 47.825 Q626.601 43.9361 636.769 43.9361 L647.22 43.9361 L647.22 43.2069 Q647.22 38.0623 643.817 35.2672 Q640.455 32.4315 634.338 32.4315 Q630.449 32.4315 626.763 33.3632 Q623.077 34.295 619.674 36.1584 L619.674 29.2718 Q623.765 27.692 627.614 26.9223 Q631.462 26.1121 635.108 26.1121 Q644.952 26.1121 649.813 31.2163 Q654.674 36.3204 654.674 46.6907 Z" fill="#000000" fill-rule="nonzero" fill-opacity="1"></path><path clip-path="url(#clip080)" d="M670.027 9.54393 L677.48 9.54393 L677.48 72.576 L670.027 72.576 L670.027 9.54393 Z" fill="#000000" fill-rule="nonzero" fill-opacity="1"></path><path clip-path="url(#clip080)" d="M714.101 27.2059 L722 27.2059 L736.178 65.2844 L750.356 27.2059 L758.255 27.2059 L741.242 72.576 L731.114 72.576 L714.101 27.2059 Z" fill="#000000" fill-rule="nonzero" fill-opacity="1"></path><path clip-path="url(#clip080)" d="M797.468 28.5427 L797.468 35.5912 Q794.309 33.9709 790.906 33.1607 Q787.503 32.3505 783.857 32.3505 Q778.307 32.3505 775.512 34.0519 Q772.758 35.7533 772.758 39.156 Q772.758 41.7486 774.743 43.2475 Q776.728 44.7058 782.723 46.0426 L785.275 46.6097 Q793.215 48.3111 796.537 51.4303 Q799.899 54.509 799.899 60.0587 Q799.899 66.3781 794.876 70.0644 Q789.893 73.7508 781.143 73.7508 Q777.497 73.7508 773.527 73.0216 Q769.598 72.3329 765.223 70.9151 L765.223 63.2184 Q769.355 65.3654 773.365 66.4591 Q777.376 67.5124 781.305 67.5124 Q786.571 67.5124 789.407 65.73 Q792.243 63.9071 792.243 60.6258 Q792.243 57.5877 790.177 55.9673 Q788.151 54.3469 781.224 52.8481 L778.632 52.2405 Q771.704 50.7821 768.626 47.7845 Q765.547 44.7463 765.547 39.4801 Q765.547 33.0797 770.084 29.5959 Q774.621 26.1121 782.966 26.1121 Q787.098 26.1121 790.744 26.7198 Q794.39 27.3274 797.468 28.5427 Z" fill="#000000" fill-rule="nonzero" fill-opacity="1"></path><path clip-path="url(#clip080)" d="M838.463 12.096 L876.704 12.096 L876.704 18.9825 L846.646 18.9825 L846.646 36.8875 L875.448 36.8875 L875.448 43.7741 L846.646 43.7741 L846.646 65.6895 L877.433 65.6895 L877.433 72.576 L838.463 72.576 L838.463 12.096 Z" fill="#000000" fill-rule="nonzero" fill-opacity="1"></path><path clip-path="url(#clip080)" d="M919.481 28.5427 L919.481 35.5912 Q916.322 33.9709 912.919 33.1607 Q909.516 32.3505 905.87 32.3505 Q900.321 32.3505 897.526 34.0519 Q894.771 35.7533 894.771 39.156 Q894.771 41.7486 896.756 43.2475 Q898.741 44.7058 904.736 46.0426 L907.288 46.6097 Q915.228 48.3111 918.55 51.4303 Q921.912 54.509 921.912 60.0587 Q921.912 66.3781 916.889 70.0644 Q911.906 73.7508 903.156 73.7508 Q899.51 73.7508 895.541 73.0216 Q891.611 72.3329 887.236 70.9151 L887.236 63.2184 Q891.368 65.3654 895.379 66.4591 Q899.389 67.5124 903.318 67.5124 Q908.585 67.5124 911.42 65.73 Q914.256 63.9071 914.256 60.6258 Q914.256 57.5877 912.19 55.9673 Q910.164 54.3469 903.237 52.8481 L900.645 52.2405 Q893.718 50.7821 890.639 47.7845 Q887.56 44.7463 887.56 39.4801 Q887.56 33.0797 892.097 29.5959 Q896.634 26.1121 904.979 26.1121 Q909.111 26.1121 912.757 26.7198 Q916.403 27.3274 919.481 28.5427 Z" fill="#000000" fill-rule="nonzero" fill-opacity="1"></path><path clip-path="url(#clip080)" d="M941.154 14.324 L941.154 27.2059 L956.507 27.2059 L956.507 32.9987 L941.154 32.9987 L941.154 57.6282 Q941.154 63.1779 942.653 64.7578 Q944.192 66.3376 948.851 66.3376 L956.507 66.3376 L956.507 72.576 L948.851 72.576 Q940.222 72.576 936.941 69.3758 Q933.66 66.1351 933.66 57.6282 L933.66 32.9987 L928.191 32.9987 L928.191 27.2059 L933.66 27.2059 L933.66 14.324 L941.154 14.324 Z" fill="#000000" fill-rule="nonzero" fill-opacity="1"></path><path clip-path="url(#clip080)" d="M966.31 27.2059 L973.764 27.2059 L973.764 72.576 L966.31 72.576 L966.31 27.2059 M966.31 9.54393 L973.764 9.54393 L973.764 18.9825 L966.31 18.9825 L966.31 9.54393 Z" fill="#000000" fill-rule="nonzero" fill-opacity="1"></path><path clip-path="url(#clip080)" d="M1024.68 35.9153 Q1027.48 30.8922 1031.37 28.5022 Q1035.26 26.1121 1040.52 26.1121 Q1047.61 26.1121 1051.46 31.0947 Q1055.31 36.0368 1055.31 45.1919 L1055.31 72.576 L1047.81 72.576 L1047.81 45.4349 Q1047.81 38.913 1045.51 35.7533 Q1043.2 32.5936 1038.46 32.5936 Q1032.66 32.5936 1029.3 36.4419 Q1025.94 40.2903 1025.94 46.9338 L1025.94 72.576 L1018.45 72.576 L1018.45 45.4349 Q1018.45 38.8725 1016.14 35.7533 Q1013.83 32.5936 1009.01 32.5936 Q1003.29 32.5936 999.932 36.4824 Q996.57 40.3308 996.57 46.9338 L996.57 72.576 L989.076 72.576 L989.076 27.2059 L996.57 27.2059 L996.57 34.2544 Q999.122 30.082 1002.69 28.0971 Q1006.25 26.1121 1011.15 26.1121 Q1016.1 26.1121 1019.54 28.6237 Q1023.02 31.1352 1024.68 35.9153 Z" fill="#000000" fill-rule="nonzero" fill-opacity="1"></path><path clip-path="url(#clip080)" d="M1090.79 49.7694 Q1081.76 49.7694 1078.28 51.8354 Q1074.79 53.9013 1074.79 58.8839 Q1074.79 62.8538 1077.39 65.2034 Q1080.02 67.5124 1084.52 67.5124 Q1090.71 67.5124 1094.44 63.1374 Q1098.21 58.7219 1098.21 51.4303 L1098.21 49.7694 L1090.79 49.7694 M1105.66 46.6907 L1105.66 72.576 L1098.21 72.576 L1098.21 65.6895 Q1095.66 69.8214 1091.85 71.8063 Q1088.04 73.7508 1082.53 73.7508 Q1075.56 73.7508 1071.43 69.8619 Q1067.34 65.9325 1067.34 59.3701 Q1067.34 51.7138 1072.44 47.825 Q1077.59 43.9361 1087.76 43.9361 L1098.21 43.9361 L1098.21 43.2069 Q1098.21 38.0623 1094.8 35.2672 Q1091.44 32.4315 1085.33 32.4315 Q1081.44 32.4315 1077.75 33.3632 Q1074.06 34.295 1070.66 36.1584 L1070.66 29.2718 Q1074.75 27.692 1078.6 26.9223 Q1082.45 26.1121 1086.1 26.1121 Q1095.94 26.1121 1100.8 31.2163 Q1105.66 36.3204 1105.66 46.6907 Z" fill="#000000" fill-rule="nonzero" fill-opacity="1"></path><path clip-path="url(#clip080)" d="M1128.39 14.324 L1128.39 27.2059 L1143.74 27.2059 L1143.74 32.9987 L1128.39 32.9987 L1128.39 57.6282 Q1128.39 63.1779 1129.89 64.7578 Q1131.42 66.3376 1136.08 66.3376 L1143.74 66.3376 L1143.74 72.576 L1136.08 72.576 Q1127.45 72.576 1124.17 69.3758 Q1120.89 66.1351 1120.89 57.6282 L1120.89 32.9987 L1115.42 32.9987 L1115.42 27.2059 L1120.89 27.2059 L1120.89 14.324 L1128.39 14.324 Z" fill="#000000" fill-rule="nonzero" fill-opacity="1"></path><path clip-path="url(#clip080)" d="M1192.35 48.0275 L1192.35 51.6733 L1158.08 51.6733 Q1158.57 59.3701 1162.7 63.421 Q1166.87 67.4314 1174.28 67.4314 Q1178.58 67.4314 1182.59 66.3781 Q1186.64 65.3249 1190.61 63.2184 L1190.61 70.267 Q1186.6 71.9684 1182.39 72.8596 Q1178.17 73.7508 1173.84 73.7508 Q1162.98 73.7508 1156.62 67.4314 Q1150.3 61.1119 1150.3 50.3365 Q1150.3 39.1965 1156.3 32.6746 Q1162.33 26.1121 1172.54 26.1121 Q1181.7 26.1121 1187 32.0264 Q1192.35 37.9003 1192.35 48.0275 M1184.9 45.84 Q1184.82 39.7232 1181.45 36.0774 Q1178.13 32.4315 1172.62 32.4315 Q1166.38 32.4315 1162.62 35.9558 Q1158.89 39.4801 1158.32 45.8805 L1184.9 45.84 Z" fill="#000000" fill-rule="nonzero" fill-opacity="1"></path><path clip-path="url(#clip080)" d="M1234.44 34.0924 L1234.44 9.54393 L1241.89 9.54393 L1241.89 72.576 L1234.44 72.576 L1234.44 65.7705 Q1232.09 69.8214 1228.48 71.8063 Q1224.92 73.7508 1219.9 73.7508 Q1211.67 73.7508 1206.49 67.1883 Q1201.34 60.6258 1201.34 49.9314 Q1201.34 39.2371 1206.49 32.6746 Q1211.67 26.1121 1219.9 26.1121 Q1224.92 26.1121 1228.48 28.0971 Q1232.09 30.0415 1234.44 34.0924 M1209.04 49.9314 Q1209.04 58.1548 1212.4 62.8538 Q1215.81 67.5124 1221.72 67.5124 Q1227.63 67.5124 1231.04 62.8538 Q1234.44 58.1548 1234.44 49.9314 Q1234.44 41.7081 1231.04 37.0496 Q1227.63 32.3505 1221.72 32.3505 Q1215.81 32.3505 1212.4 37.0496 Q1209.04 41.7081 1209.04 49.9314 Z" fill="#000000" fill-rule="nonzero" fill-opacity="1"></path><path clip-path="url(#clip080)" d="M1321.33 45.1919 L1321.33 72.576 L1313.88 72.576 L1313.88 45.4349 Q1313.88 38.994 1311.37 35.7938 Q1308.85 32.5936 1303.83 32.5936 Q1297.8 32.5936 1294.31 36.4419 Q1290.83 40.2903 1290.83 46.9338 L1290.83 72.576 L1283.33 72.576 L1283.33 27.2059 L1290.83 27.2059 L1290.83 34.2544 Q1293.5 30.163 1297.11 28.1376 Q1300.75 26.1121 1305.49 26.1121 Q1313.31 26.1121 1317.32 30.9732 Q1321.33 35.7938 1321.33 45.1919 Z" fill="#000000" fill-rule="nonzero" fill-opacity="1"></path><path clip-path="url(#clip080)" d="M1335.43 54.671 L1335.43 27.2059 L1342.88 27.2059 L1342.88 54.3874 Q1342.88 60.8284 1345.39 64.0691 Q1347.91 67.2693 1352.93 67.2693 Q1358.96 67.2693 1362.45 63.421 Q1365.97 59.5726 1365.97 52.9291 L1365.97 27.2059 L1373.43 27.2059 L1373.43 72.576 L1365.97 72.576 L1365.97 65.6084 Q1363.26 69.7404 1359.65 71.7658 Q1356.09 73.7508 1351.35 73.7508 Q1343.53 73.7508 1339.48 68.8897 Q1335.43 64.0286 1335.43 54.671 M1354.18 26.1121 L1354.18 26.1121 Z" fill="#000000" fill-rule="nonzero" fill-opacity="1"></path><path clip-path="url(#clip080)" d="M1424.1 35.9153 Q1426.9 30.8922 1430.79 28.5022 Q1434.68 26.1121 1439.94 26.1121 Q1447.03 26.1121 1450.88 31.0947 Q1454.73 36.0368 1454.73 45.1919 L1454.73 72.576 L1447.23 72.576 L1447.23 45.4349 Q1447.23 38.913 1444.92 35.7533 Q1442.62 32.5936 1437.88 32.5936 Q1432.08 32.5936 1428.72 36.4419 Q1425.36 40.2903 1425.36 46.9338 L1425.36 72.576 L1417.86 72.576 L1417.86 45.4349 Q1417.86 38.8725 1415.56 35.7533 Q1413.25 32.5936 1408.43 32.5936 Q1402.71 32.5936 1399.35 36.4824 Q1395.99 40.3308 1395.99 46.9338 L1395.99 72.576 L1388.5 72.576 L1388.5 27.2059 L1395.99 27.2059 L1395.99 34.2544 Q1398.54 30.082 1402.11 28.0971 Q1405.67 26.1121 1410.57 26.1121 Q1415.51 26.1121 1418.96 28.6237 Q1422.44 31.1352 1424.1 35.9153 Z" fill="#000000" fill-rule="nonzero" fill-opacity="1"></path><path clip-path="url(#clip080)" d="M1502.16 49.9314 Q1502.16 41.7081 1498.76 37.0496 Q1495.4 32.3505 1489.48 32.3505 Q1483.57 32.3505 1480.17 37.0496 Q1476.8 41.7081 1476.8 49.9314 Q1476.8 58.1548 1480.17 62.8538 Q1483.57 67.5124 1489.48 67.5124 Q1495.4 67.5124 1498.76 62.8538 Q1502.16 58.1548 1502.16 49.9314 M1476.8 34.0924 Q1479.15 30.0415 1482.72 28.0971 Q1486.32 26.1121 1491.31 26.1121 Q1499.57 26.1121 1504.72 32.6746 Q1509.9 39.2371 1509.9 49.9314 Q1509.9 60.6258 1504.72 67.1883 Q1499.57 73.7508 1491.31 73.7508 Q1486.32 73.7508 1482.72 71.8063 Q1479.15 69.8214 1476.8 65.7705 L1476.8 72.576 L1469.31 72.576 L1469.31 9.54393 L1476.8 9.54393 L1476.8 34.0924 Z" fill="#000000" fill-rule="nonzero" fill-opacity="1"></path><path clip-path="url(#clip080)" d="M1561.06 48.0275 L1561.06 51.6733 L1526.79 51.6733 Q1527.28 59.3701 1531.41 63.421 Q1535.58 67.4314 1543 67.4314 Q1547.29 67.4314 1551.3 66.3781 Q1555.35 65.3249 1559.32 63.2184 L1559.32 70.267 Q1555.31 71.9684 1551.1 72.8596 Q1546.89 73.7508 1542.55 73.7508 Q1531.69 73.7508 1525.33 67.4314 Q1519.02 61.1119 1519.02 50.3365 Q1519.02 39.1965 1525.01 32.6746 Q1531.05 26.1121 1541.25 26.1121 Q1550.41 26.1121 1555.72 32.0264 Q1561.06 37.9003 1561.06 48.0275 M1553.61 45.84 Q1553.53 39.7232 1550.17 36.0774 Q1546.84 32.4315 1541.34 32.4315 Q1535.1 32.4315 1531.33 35.9558 Q1527.6 39.4801 1527.04 45.8805 L1553.61 45.84 Z" fill="#000000" fill-rule="nonzero" fill-opacity="1"></path><path clip-path="url(#clip080)" d="M1599.59 34.1734 Q1598.33 33.4443 1596.83 33.1202 Q1595.37 32.7556 1593.59 32.7556 Q1587.27 32.7556 1583.87 36.8875 Q1580.51 40.9789 1580.51 48.6757 L1580.51 72.576 L1573.01 72.576 L1573.01 27.2059 L1580.51 27.2059 L1580.51 34.2544 Q1582.86 30.1225 1586.62 28.1376 Q1590.39 26.1121 1595.78 26.1121 Q1596.55 26.1121 1597.48 26.2337 Q1598.41 26.3147 1599.55 26.5172 L1599.59 34.1734 Z" fill="#000000" fill-rule="nonzero" fill-opacity="1"></path><path clip-path="url(#clip080)" d="M1651.36 32.4315 Q1645.36 32.4315 1641.88 37.1306 Q1638.4 41.7891 1638.4 49.9314 Q1638.4 58.0738 1641.84 62.7728 Q1645.32 67.4314 1651.36 67.4314 Q1657.31 67.4314 1660.8 62.7323 Q1664.28 58.0333 1664.28 49.9314 Q1664.28 41.8701 1660.8 37.1711 Q1657.31 32.4315 1651.36 32.4315 M1651.36 26.1121 Q1661.08 26.1121 1666.63 32.4315 Q1672.18 38.7509 1672.18 49.9314 Q1672.18 61.0714 1666.63 67.4314 Q1661.08 73.7508 1651.36 73.7508 Q1641.6 73.7508 1636.05 67.4314 Q1630.54 61.0714 1630.54 49.9314 Q1630.54 38.7509 1636.05 32.4315 Q1641.6 26.1121 1651.36 26.1121 Z" fill="#000000" fill-rule="nonzero" fill-opacity="1"></path><path clip-path="url(#clip080)" d="M1707.5 9.54393 L1707.5 15.7418 L1700.37 15.7418 Q1696.36 15.7418 1694.78 17.3622 Q1693.24 18.9825 1693.24 23.1955 L1693.24 27.2059 L1705.52 27.2059 L1705.52 32.9987 L1693.24 32.9987 L1693.24 72.576 L1685.75 72.576 L1685.75 32.9987 L1678.62 32.9987 L1678.62 27.2059 L1685.75 27.2059 L1685.75 24.0462 Q1685.75 16.471 1689.27 13.0277 Q1692.8 9.54393 1700.46 9.54393 L1707.5 9.54393 Z" fill="#000000" fill-rule="nonzero" fill-opacity="1"></path><path clip-path="url(#clip080)" d="M1740.11 27.2059 L1747.57 27.2059 L1747.57 72.576 L1740.11 72.576 L1740.11 27.2059 M1740.11 9.54393 L1747.57 9.54393 L1747.57 18.9825 L1740.11 18.9825 L1740.11 9.54393 Z" fill="#000000" fill-rule="nonzero" fill-opacity="1"></path><path clip-path="url(#clip080)" d="M1800.88 45.1919 L1800.88 72.576 L1793.42 72.576 L1793.42 45.4349 Q1793.42 38.994 1790.91 35.7938 Q1788.4 32.5936 1783.38 32.5936 Q1777.34 32.5936 1773.86 36.4419 Q1770.37 40.2903 1770.37 46.9338 L1770.37 72.576 L1762.88 72.576 L1762.88 27.2059 L1770.37 27.2059 L1770.37 34.2544 Q1773.05 30.163 1776.65 28.1376 Q1780.3 26.1121 1785.04 26.1121 Q1792.86 26.1121 1796.87 30.9732 Q1800.88 35.7938 1800.88 45.1919 Z" fill="#000000" fill-rule="nonzero" fill-opacity="1"></path><path clip-path="url(#clip080)" d="M1838.71 9.54393 L1838.71 15.7418 L1831.58 15.7418 Q1827.57 15.7418 1825.99 17.3622 Q1824.45 18.9825 1824.45 23.1955 L1824.45 27.2059 L1836.73 27.2059 L1836.73 32.9987 L1824.45 32.9987 L1824.45 72.576 L1816.96 72.576 L1816.96 32.9987 L1809.83 32.9987 L1809.83 27.2059 L1816.96 27.2059 L1816.96 24.0462 Q1816.96 16.471 1820.48 13.0277 Q1824.01 9.54393 1831.66 9.54393 L1838.71 9.54393 Z" fill="#000000" fill-rule="nonzero" fill-opacity="1"></path><path clip-path="url(#clip080)" d="M1883.76 48.0275 L1883.76 51.6733 L1849.49 51.6733 Q1849.97 59.3701 1854.11 63.421 Q1858.28 67.4314 1865.69 67.4314 Q1869.99 67.4314 1874 66.3781 Q1878.05 65.3249 1882.02 63.2184 L1882.02 70.267 Q1878.01 71.9684 1873.79 72.8596 Q1869.58 73.7508 1865.25 73.7508 Q1854.39 73.7508 1848.03 67.4314 Q1841.71 61.1119 1841.71 50.3365 Q1841.71 39.1965 1847.71 32.6746 Q1853.74 26.1121 1863.95 26.1121 Q1873.1 26.1121 1878.41 32.0264 Q1883.76 37.9003 1883.76 48.0275 M1876.31 45.84 Q1876.22 39.7232 1872.86 36.0774 Q1869.54 32.4315 1864.03 32.4315 Q1857.79 32.4315 1854.03 35.9558 Q1850.3 39.4801 1849.73 45.8805 L1876.31 45.84 Z" fill="#000000" fill-rule="nonzero" fill-opacity="1"></path><path clip-path="url(#clip080)" d="M1928.64 28.9478 L1928.64 35.9153 Q1925.48 34.1734 1922.28 33.3227 Q1919.12 32.4315 1915.88 32.4315 Q1908.63 32.4315 1904.62 37.0496 Q1900.61 41.6271 1900.61 49.9314 Q1900.61 58.2358 1904.62 62.8538 Q1908.63 67.4314 1915.88 67.4314 Q1919.12 67.4314 1922.28 66.5807 Q1925.48 65.6895 1928.64 63.9476 L1928.64 70.8341 Q1925.52 72.2924 1922.16 73.0216 Q1918.84 73.7508 1915.07 73.7508 Q1904.82 73.7508 1898.79 67.3098 Q1892.75 60.8689 1892.75 49.9314 Q1892.75 38.832 1898.83 32.472 Q1904.94 26.1121 1915.56 26.1121 Q1919 26.1121 1922.28 26.8413 Q1925.56 27.5299 1928.64 28.9478 Z" fill="#000000" fill-rule="nonzero" fill-opacity="1"></path><path clip-path="url(#clip080)" d="M1948.98 14.324 L1948.98 27.2059 L1964.33 27.2059 L1964.33 32.9987 L1948.98 32.9987 L1948.98 57.6282 Q1948.98 63.1779 1950.48 64.7578 Q1952.02 66.3376 1956.67 66.3376 L1964.33 66.3376 L1964.33 72.576 L1956.67 72.576 Q1948.05 72.576 1944.77 69.3758 Q1941.48 66.1351 1941.48 57.6282 L1941.48 32.9987 L1936.02 32.9987 L1936.02 27.2059 L1941.48 27.2059 L1941.48 14.324 L1948.98 14.324 Z" fill="#000000" fill-rule="nonzero" fill-opacity="1"></path><path clip-path="url(#clip080)" d="M1974.13 27.2059 L1981.59 27.2059 L1981.59 72.576 L1974.13 72.576 L1974.13 27.2059 M1974.13 9.54393 L1981.59 9.54393 L1981.59 18.9825 L1974.13 18.9825 L1974.13 9.54393 Z" fill="#000000" fill-rule="nonzero" fill-opacity="1"></path><path clip-path="url(#clip080)" d="M2014.76 32.4315 Q2008.77 32.4315 2005.29 37.1306 Q2001.8 41.7891 2001.8 49.9314 Q2001.8 58.0738 2005.25 62.7728 Q2008.73 67.4314 2014.76 67.4314 Q2020.72 67.4314 2024.2 62.7323 Q2027.69 58.0333 2027.69 49.9314 Q2027.69 41.8701 2024.2 37.1711 Q2020.72 32.4315 2014.76 32.4315 M2014.76 26.1121 Q2024.49 26.1121 2030.04 32.4315 Q2035.59 38.7509 2035.59 49.9314 Q2035.59 61.0714 2030.04 67.4314 Q2024.49 73.7508 2014.76 73.7508 Q2005 73.7508 1999.45 67.4314 Q1993.94 61.0714 1993.94 49.9314 Q1993.94 38.7509 1999.45 32.4315 Q2005 26.1121 2014.76 26.1121 Z" fill="#000000" fill-rule="nonzero" fill-opacity="1"></path><path clip-path="url(#clip080)" d="M2085.66 45.1919 L2085.66 72.576 L2078.2 72.576 L2078.2 45.4349 Q2078.2 38.994 2075.69 35.7938 Q2073.18 32.5936 2068.16 32.5936 Q2062.12 32.5936 2058.64 36.4419 Q2055.15 40.2903 2055.15 46.9338 L2055.15 72.576 L2047.66 72.576 L2047.66 27.2059 L2055.15 27.2059 L2055.15 34.2544 Q2057.83 30.163 2061.43 28.1376 Q2065.08 26.1121 2069.82 26.1121 Q2077.63 26.1121 2081.65 30.9732 Q2085.66 35.7938 2085.66 45.1919 Z" fill="#000000" fill-rule="nonzero" fill-opacity="1"></path><path clip-path="url(#clip080)" d="M2129.45 28.5427 L2129.45 35.5912 Q2126.29 33.9709 2122.88 33.1607 Q2119.48 32.3505 2115.83 32.3505 Q2110.29 32.3505 2107.49 34.0519 Q2104.74 35.7533 2104.74 39.156 Q2104.74 41.7486 2106.72 43.2475 Q2108.71 44.7058 2114.7 46.0426 L2117.25 46.6097 Q2125.19 48.3111 2128.51 51.4303 Q2131.88 54.509 2131.88 60.0587 Q2131.88 66.3781 2126.85 70.0644 Q2121.87 73.7508 2113.12 73.7508 Q2109.48 73.7508 2105.51 73.0216 Q2101.58 72.3329 2097.2 70.9151 L2097.2 63.2184 Q2101.33 65.3654 2105.34 66.4591 Q2109.35 67.5124 2113.28 67.5124 Q2118.55 67.5124 2121.38 65.73 Q2124.22 63.9071 2124.22 60.6258 Q2124.22 57.5877 2122.15 55.9673 Q2120.13 54.3469 2113.2 52.8481 L2110.61 52.2405 Q2103.68 50.7821 2100.6 47.7845 Q2097.52 44.7463 2097.52 39.4801 Q2097.52 33.0797 2102.06 29.5959 Q2106.6 26.1121 2114.94 26.1121 Q2119.08 26.1121 2122.72 26.7198 Q2126.37 27.3274 2129.45 28.5427 Z" fill="#000000" fill-rule="nonzero" fill-opacity="1"></path><polyline clip-path="url(#clip082)" style="stroke:#009af9; stroke-linecap:round; stroke-linejoin:round; stroke-width:4; stroke-opacity:1; fill:none" points="265.903,1331.87 267.292,1331.87 282.098,1331.87 290.957,1331.87 302.499,1331.87 304.269,1331.87 305.366,1331.87 309.633,1331.87 316.329,1331.87 319.417,1331.87 377.51,1331.87 390.816,1331.87 393.36,1331.87 401.704,1331.87 414.762,1331.87 424.222,1331.87 451.277,1331.87 454.617,1331.87 468.584,1331.87 480.309,1331.87 504.407,1331.87 509.037,1331.87 516.138,1331.87 520.547,1331.87 530.428,1331.87 536.624,1331.87 540.251,1331.87 540.96,1331.87 541.751,1331.87 552.069,1331.87 582.244,1331.87 597.387,1331.87 608.522,1331.87 613.395,1331.87 617.369,1331.87 635.321,1331.87 659.668,1331.87 669.165,1331.87 671.862,1331.87 673.533,1331.87 676.459,1331.87 678.767,1331.87 689.09,1331.87 694.312,1331.87 720.406,1331.87 721.058,1331.87 732.321,1331.87 739.589,1331.87 741.837,1331.87 752.207,1331.87 787.198,1331.87 791.506,1331.87 803.451,1331.87 806.88,1331.87 813.297,1331.87 815.445,1331.87 817.047,1331.87 820.645,1331.87 821.618,1331.87 823.325,1331.87 837.459,1331.87 837.869,1331.87 856.541,1331.87 869.942,1331.87 903.043,1331.87 912,1331.87 915.608,1331.87 920.951,1331.87 924.513,1331.87 932.65,1331.87 953.481,1331.87 962.168,1331.87 962.409,1331.87 967.43,1331.87 990.01,1331.87 1006.54,1304.6 1013.5,1304.6 1017.3,1304.6 1024.7,1304.6 1045.76,1304.6 1047.89,1304.6 1082.38,1304.6 1090.55,1331.87 1106.45,1331.87 1107.04,1331.87 1108.86,1331.87 1111.19,1331.87 1113.22,1331.87 1119.4,1331.87 1125.34,1331.87 1134.24,1331.87 1138.59,1331.87 1140.33,1331.87 1146.25,1331.87 1148.28,1331.87 1155.24,1331.87 1156.12,1331.87 1184.39,1331.87 1184.71,1331.87 1184.82,1331.87 1185.57,1331.87 1209.21,1331.87 1214.37,1331.87 1215.17,1331.87 1216.68,1331.87 1230.47,1331.87 1246.73,1331.87 1252.06,1331.87 1257.14,1331.87 1260.46,1331.87 1268.87,1331.87 1274.91,1331.87 1276.32,1331.87 1283.1,1331.87 1284.19,1331.87 1309.07,1331.87 1311.12,1331.87 1323.05,1331.87 1325.45,1331.87 1327.74,1331.87 1337.42,1331.87 1338.21,1331.87 1364.31,1331.87 1381.04,1331.87 1382.64,1331.87 1383.08,1331.87 1393.8,1331.87 1398.88,1331.87 1402.11,1331.87 1429.05,1359.13 1434.85,1359.13 1454.66,1359.13 1456.39,1359.13 1456.55,1359.13 1459.72,1359.13 1463.93,1359.13 1474.76,1359.13 1478.19,1359.13 1497.98,1359.13 1502.15,1359.13 1508.04,1359.13 1508.61,1359.13 1513.9,1359.13 1515.1,1359.13 1551.06,1359.13 1564.19,1359.13 1587.55,1359.13 1590.13,1359.13 1591.28,1359.13 1608.87,1331.87 1613.29,1331.87 1643.75,1331.87 1643.75,1331.87 1653.17,1331.87 1660.17,1331.87 1663.71,1331.87 1676.49,1331.87 1687.66,1331.87 1699.58,1331.87 1711.45,1331.87 1716.32,1331.87 1716.61,1331.87 1720.25,1331.87 1725.98,1331.87 1739.93,1331.87 1747.84,1331.87 1759.71,1331.87 1769.43,1331.87 1769.53,1331.87 1782.26,1331.87 1782.89,1331.87 1795.54,1331.87 1807.89,1331.87 1815.94,1331.87 1821.97,1331.87 1838.01,1331.87 1843.52,1331.87 1845.06,1359.13 1857,1359.13 1857.88,1359.13 1866.72,1359.13 1869.32,1359.13 1870.62,1359.13 1887.06,1386.4 1889.75,1386.4 1905.23,1386.4 1916.11,1386.4 1930.28,1386.4 1931.68,1386.4 1935.72,1386.4 1944.73,1359.13 1946.1,1359.13 1956.96,1359.13 1967.02,1359.13 1978.35,1359.13 1983.28,1359.13 1994.59,1359.13 2017.15,1359.13 2032.45,1359.13 2035.12,1359.13 2054.04,1359.13 2076.45,1359.13 2086.46,1359.13 2086.68,1359.13 2086.82,1359.13 2116.31,1359.13 2136.2,1359.13 2155.21,1359.13 2155.29,1359.13 2162.35,1359.13 2166.43,1359.13 2168.77,1359.13 2183.34,1359.13 2191.5,1359.13 2191.87,1359.13 2202.03,1359.13 2206.32,1359.13 2209.62,1359.13 2210.58,1359.13 2256.22,1331.87 2276.75,1331.87 2291.97,1331.87 "></polyline>
<polyline clip-path="url(#clip082)" style="stroke:#e26f46; stroke-linecap:round; stroke-linejoin:round; stroke-width:4; stroke-opacity:1; fill:none" points="265.903,1278.29 267.292,1278.28 282.098,1277.64 290.957,1277.36 302.499,1278.1 304.269,1262.64 305.366,1261.47 309.633,1259.81 316.329,1260.36 319.417,1261.01 377.51,1258.32 390.816,1252.56 393.36,1250.92 401.704,1246.03 414.762,1242.02 424.222,1235.24 451.277,1230.35 454.617,1230.08 468.584,1232.37 480.309,1184.04 504.407,1187.13 509.037,1173.26 516.138,1169 520.547,1160.29 530.428,1206.3 536.624,1207.43 540.251,1210.89 540.96,1216.81 541.751,1213.68 552.069,1212.38 582.244,1203.7 597.387,1200.34 608.522,1194.69 613.395,1192.26 617.369,1190.93 635.321,1188.49 659.668,1164.06 669.165,1156.96 671.862,1141.26 673.533,1130.62 676.459,1106.26 678.767,1096.7 689.09,1089.03 694.312,1079.38 720.406,1071.55 721.058,1065.48 732.321,1057.71 739.589,1048.57 741.837,1031.4 752.207,1021.97 787.198,982.9 791.506,978.181 803.451,968.628 806.88,969.693 813.297,924.256 815.445,906.983 817.047,909.233 820.645,897.041 821.618,881.578 823.325,874.633 837.459,858.225 837.869,852.534 856.541,843.007 869.942,833.481 903.043,834.371 912,832.939 915.608,833.196 920.951,841.693 924.513,813.268 932.65,646.729 953.481,654.823 962.168,645.667 962.409,620.168 967.43,585.538 990.01,554.289 1006.54,530.957 1013.5,549.806 1017.3,551.769 1024.7,542.523 1045.76,537.736 1047.89,580.955 1082.38,333.564 1090.55,399.362 1106.45,446.454 1107.04,421.679 1108.86,420.698 1111.19,440.932 1113.22,437.779 1119.4,435.429 1125.34,413.399 1134.24,378.534 1138.59,379.034 1140.33,357.762 1146.25,347.195 1148.28,322.013 1155.24,338.092 1156.12,325.782 1184.39,310.906 1184.71,288.582 1184.82,314.413 1185.57,315.812 1209.21,332.022 1214.37,342.53 1215.17,343.183 1216.68,333.612 1230.47,356.194 1246.73,376.386 1252.06,399.164 1257.14,420.206 1260.46,429.496 1268.87,421.015 1274.91,399.427 1276.32,421.598 1283.1,421.799 1284.19,413.678 1309.07,423.323 1311.12,408.794 1323.05,385.255 1325.45,373.241 1327.74,370.497 1337.42,359.981 1338.21,356.075 1364.31,359.374 1381.04,335.177 1382.64,329.425 1383.08,326.523 1393.8,292.78 1398.88,314.126 1402.11,316.525 1429.05,253.542 1434.85,310.688 1454.66,326.334 1456.39,356.011 1456.55,363.895 1459.72,377.188 1463.93,436.496 1474.76,433.125 1478.19,554.306 1497.98,541.467 1502.15,322.653 1508.04,318.825 1508.61,376.992 1513.9,354.125 1515.1,379.042 1551.06,458.036 1564.19,511.011 1587.55,453.519 1590.13,465.869 1591.28,464.274 1608.87,453.779 1613.29,435.647 1643.75,405.189 1643.75,392.876 1653.17,420.503 1660.17,440.03 1663.71,464.421 1676.49,469.762 1687.66,463.06 1699.58,456.545 1711.45,445.53 1716.32,470.159 1716.61,470.476 1720.25,453.353 1725.98,439.649 1739.93,438.949 1747.84,299.373 1759.71,257.184 1769.43,215.92 1769.53,185.114 1782.26,160.256 1782.89,215.215 1795.54,214.887 1807.89,196.526 1815.94,174.828 1821.97,200.918 1838.01,205.912 1843.52,202.14 1845.06,220.423 1857,209.343 1857.88,187.692 1866.72,195.174 1869.32,207.542 1870.62,188.389 1887.06,169.719 1889.75,197.843 1905.23,248.678 1916.11,263.789 1930.28,272.373 1931.68,315.701 1935.72,316.119 1944.73,313.5 1946.1,278.308 1956.96,274.347 1967.02,290.29 1978.35,285.692 1983.28,287.855 1994.59,395.052 2017.15,471.97 2032.45,471.787 2035.12,500.418 2054.04,481.123 2076.45,478.443 2086.46,489.223 2086.68,239.29 2086.82,236.902 2116.31,244.785 2136.2,250.004 2155.21,335.781 2155.29,350.212 2162.35,328.749 2166.43,393.659 2168.77,367.196 2183.34,476.668 2191.5,598.263 2191.87,657.141 2202.03,723.715 2206.32,738.67 2209.62,773.102 2210.58,801.113 2256.22,861.966 2276.75,951.341 2291.97,971.277 "></polyline>
<path clip-path="url(#clip080)" d="M276.709 322.316 L1230.57 322.316 L1230.57 166.796 L276.709 166.796  Z" fill="#ffffff" fill-rule="evenodd" fill-opacity="1"></path>
<polyline clip-path="url(#clip080)" style="stroke:#000000; stroke-linecap:round; stroke-linejoin:round; stroke-width:4; stroke-opacity:1; fill:none" points="276.709,322.316 1230.57,322.316 1230.57,166.796 276.709,166.796 276.709,322.316 "></polyline>
<polyline clip-path="url(#clip080)" style="stroke:#009af9; stroke-linecap:round; stroke-linejoin:round; stroke-width:4; stroke-opacity:1; fill:none" points="300.571,218.636 443.747,218.636 "></polyline>
<path clip-path="url(#clip080)" d="M483.443 205.962 L477.1 223.161 L489.809 223.161 L483.443 205.962 M480.804 201.356 L486.105 201.356 L499.276 235.916 L494.415 235.916 L491.267 227.05 L475.688 227.05 L472.54 235.916 L467.61 235.916 L480.804 201.356 Z" fill="#000000" fill-rule="nonzero" fill-opacity="1"></path><path clip-path="url(#clip080)" d="M521.961 210.985 L521.961 214.967 Q520.156 213.971 518.327 213.485 Q516.521 212.976 514.67 212.976 Q510.526 212.976 508.234 215.615 Q505.943 218.231 505.943 222.976 Q505.943 227.721 508.234 230.36 Q510.526 232.976 514.67 232.976 Q516.521 232.976 518.327 232.49 Q520.156 231.981 521.961 230.985 L521.961 234.92 Q520.179 235.754 518.258 236.17 Q516.359 236.587 514.207 236.587 Q508.35 236.587 504.901 232.906 Q501.452 229.226 501.452 222.976 Q501.452 216.633 504.924 212.999 Q508.42 209.365 514.484 209.365 Q516.452 209.365 518.327 209.782 Q520.202 210.175 521.961 210.985 Z" fill="#000000" fill-rule="nonzero" fill-opacity="1"></path><path clip-path="url(#clip080)" d="M533.582 202.629 L533.582 209.99 L542.355 209.99 L542.355 213.3 L533.582 213.3 L533.582 227.374 Q533.582 230.545 534.438 231.448 Q535.318 232.351 537.98 232.351 L542.355 232.351 L542.355 235.916 L537.98 235.916 Q533.049 235.916 531.174 234.087 Q529.299 232.235 529.299 227.374 L529.299 213.3 L526.174 213.3 L526.174 209.99 L529.299 209.99 L529.299 202.629 L533.582 202.629 Z" fill="#000000" fill-rule="nonzero" fill-opacity="1"></path><path clip-path="url(#clip080)" d="M547.517 225.684 L547.517 209.99 L551.776 209.99 L551.776 225.522 Q551.776 229.203 553.211 231.055 Q554.646 232.883 557.517 232.883 Q560.966 232.883 562.956 230.684 Q564.97 228.485 564.97 224.689 L564.97 209.99 L569.23 209.99 L569.23 235.916 L564.97 235.916 L564.97 231.934 Q563.419 234.295 561.359 235.453 Q559.322 236.587 556.614 236.587 Q552.146 236.587 549.831 233.809 Q547.517 231.031 547.517 225.684 M558.234 209.365 L558.234 209.365 Z" fill="#000000" fill-rule="nonzero" fill-opacity="1"></path><path clip-path="url(#clip080)" d="M589.785 222.883 Q584.623 222.883 582.632 224.064 Q580.641 225.244 580.641 228.092 Q580.641 230.36 582.123 231.703 Q583.628 233.022 586.197 233.022 Q589.739 233.022 591.868 230.522 Q594.021 227.999 594.021 223.832 L594.021 222.883 L589.785 222.883 M598.28 221.124 L598.28 235.916 L594.021 235.916 L594.021 231.981 Q592.563 234.342 590.387 235.476 Q588.211 236.587 585.063 236.587 Q581.081 236.587 578.72 234.365 Q576.382 232.119 576.382 228.369 Q576.382 223.994 579.299 221.772 Q582.239 219.55 588.049 219.55 L594.021 219.55 L594.021 219.133 Q594.021 216.194 592.077 214.596 Q590.155 212.976 586.66 212.976 Q584.438 212.976 582.331 213.508 Q580.225 214.041 578.28 215.106 L578.28 211.17 Q580.618 210.268 582.817 209.828 Q585.016 209.365 587.1 209.365 Q592.725 209.365 595.503 212.282 Q598.28 215.198 598.28 221.124 Z" fill="#000000" fill-rule="nonzero" fill-opacity="1"></path><path clip-path="url(#clip080)" d="M607.053 199.897 L611.313 199.897 L611.313 235.916 L607.053 235.916 L607.053 199.897 Z" fill="#000000" fill-rule="nonzero" fill-opacity="1"></path><path clip-path="url(#clip080)" d="M656.845 220.268 L656.845 235.916 L652.586 235.916 L652.586 220.407 Q652.586 216.726 651.15 214.897 Q649.715 213.069 646.845 213.069 Q643.396 213.069 641.405 215.268 Q639.414 217.467 639.414 221.263 L639.414 235.916 L635.132 235.916 L635.132 209.99 L639.414 209.99 L639.414 214.018 Q640.942 211.68 643.002 210.522 Q645.086 209.365 647.794 209.365 Q652.261 209.365 654.553 212.143 Q656.845 214.897 656.845 220.268 Z" fill="#000000" fill-rule="nonzero" fill-opacity="1"></path><path clip-path="url(#clip080)" d="M664.9 225.684 L664.9 209.99 L669.16 209.99 L669.16 225.522 Q669.16 229.203 670.595 231.055 Q672.03 232.883 674.9 232.883 Q678.349 232.883 680.34 230.684 Q682.354 228.485 682.354 224.689 L682.354 209.99 L686.613 209.99 L686.613 235.916 L682.354 235.916 L682.354 231.934 Q680.803 234.295 678.743 235.453 Q676.706 236.587 673.997 236.587 Q669.53 236.587 667.215 233.809 Q664.9 231.031 664.9 225.684 M675.618 209.365 L675.618 209.365 Z" fill="#000000" fill-rule="nonzero" fill-opacity="1"></path><path clip-path="url(#clip080)" d="M715.571 214.967 Q717.169 212.096 719.391 210.731 Q721.613 209.365 724.622 209.365 Q728.673 209.365 730.872 212.212 Q733.071 215.036 733.071 220.268 L733.071 235.916 L728.789 235.916 L728.789 220.407 Q728.789 216.68 727.469 214.874 Q726.15 213.069 723.442 213.069 Q720.131 213.069 718.21 215.268 Q716.289 217.467 716.289 221.263 L716.289 235.916 L712.007 235.916 L712.007 220.407 Q712.007 216.657 710.687 214.874 Q709.368 213.069 706.613 213.069 Q703.349 213.069 701.428 215.291 Q699.507 217.49 699.507 221.263 L699.507 235.916 L695.224 235.916 L695.224 209.99 L699.507 209.99 L699.507 214.018 Q700.965 211.633 703.002 210.499 Q705.039 209.365 707.84 209.365 Q710.664 209.365 712.632 210.8 Q714.622 212.235 715.571 214.967 Z" fill="#000000" fill-rule="nonzero" fill-opacity="1"></path><path clip-path="url(#clip080)" d="M760.178 222.976 Q760.178 218.277 758.233 215.615 Q756.312 212.93 752.932 212.93 Q749.553 212.93 747.608 215.615 Q745.687 218.277 745.687 222.976 Q745.687 227.675 747.608 230.36 Q749.553 233.022 752.932 233.022 Q756.312 233.022 758.233 230.36 Q760.178 227.675 760.178 222.976 M745.687 213.925 Q747.029 211.61 749.067 210.499 Q751.127 209.365 753.974 209.365 Q758.696 209.365 761.636 213.115 Q764.599 216.865 764.599 222.976 Q764.599 229.087 761.636 232.837 Q758.696 236.587 753.974 236.587 Q751.127 236.587 749.067 235.476 Q747.029 234.342 745.687 232.027 L745.687 235.916 L741.405 235.916 L741.405 199.897 L745.687 199.897 L745.687 213.925 Z" fill="#000000" fill-rule="nonzero" fill-opacity="1"></path><path clip-path="url(#clip080)" d="M793.835 221.888 L793.835 223.971 L774.252 223.971 Q774.529 228.369 776.89 230.684 Q779.275 232.976 783.511 232.976 Q785.964 232.976 788.256 232.374 Q790.571 231.772 792.839 230.569 L792.839 234.596 Q790.548 235.568 788.14 236.078 Q785.733 236.587 783.256 236.587 Q777.052 236.587 773.418 232.976 Q769.807 229.365 769.807 223.207 Q769.807 216.842 773.233 213.115 Q776.682 209.365 782.515 209.365 Q787.747 209.365 790.779 212.745 Q793.835 216.101 793.835 221.888 M789.576 220.638 Q789.529 217.143 787.608 215.059 Q785.71 212.976 782.562 212.976 Q778.997 212.976 776.844 214.99 Q774.715 217.004 774.39 220.661 L789.576 220.638 Z" fill="#000000" fill-rule="nonzero" fill-opacity="1"></path><path clip-path="url(#clip080)" d="M815.849 213.971 Q815.131 213.555 814.274 213.37 Q813.441 213.161 812.423 213.161 Q808.812 213.161 806.867 215.522 Q804.946 217.86 804.946 222.258 L804.946 235.916 L800.663 235.916 L800.663 209.99 L804.946 209.99 L804.946 214.018 Q806.288 211.657 808.441 210.522 Q810.594 209.365 813.673 209.365 Q814.112 209.365 814.645 209.434 Q815.177 209.481 815.825 209.596 L815.849 213.971 Z" fill="#000000" fill-rule="nonzero" fill-opacity="1"></path><path clip-path="url(#clip080)" d="M845.432 212.976 Q842.006 212.976 840.015 215.661 Q838.024 218.323 838.024 222.976 Q838.024 227.629 839.992 230.314 Q841.983 232.976 845.432 232.976 Q848.834 232.976 850.825 230.291 Q852.816 227.606 852.816 222.976 Q852.816 218.37 850.825 215.684 Q848.834 212.976 845.432 212.976 M845.432 209.365 Q850.987 209.365 854.159 212.976 Q857.33 216.587 857.33 222.976 Q857.33 229.342 854.159 232.976 Q850.987 236.587 845.432 236.587 Q839.853 236.587 836.682 232.976 Q833.534 229.342 833.534 222.976 Q833.534 216.587 836.682 212.976 Q839.853 209.365 845.432 209.365 Z" fill="#000000" fill-rule="nonzero" fill-opacity="1"></path><path clip-path="url(#clip080)" d="M877.515 199.897 L877.515 203.439 L873.441 203.439 Q871.149 203.439 870.246 204.365 Q869.367 205.291 869.367 207.698 L869.367 209.99 L876.381 209.99 L876.381 213.3 L869.367 213.3 L869.367 235.916 L865.084 235.916 L865.084 213.3 L861.01 213.3 L861.01 209.99 L865.084 209.99 L865.084 208.184 Q865.084 203.856 867.098 201.888 Q869.112 199.897 873.487 199.897 L877.515 199.897 Z" fill="#000000" fill-rule="nonzero" fill-opacity="1"></path><path clip-path="url(#clip080)" d="M896.149 209.99 L900.408 209.99 L900.408 235.916 L896.149 235.916 L896.149 209.99 M896.149 199.897 L900.408 199.897 L900.408 205.291 L896.149 205.291 L896.149 199.897 Z" fill="#000000" fill-rule="nonzero" fill-opacity="1"></path><path clip-path="url(#clip080)" d="M930.871 220.268 L930.871 235.916 L926.612 235.916 L926.612 220.407 Q926.612 216.726 925.177 214.897 Q923.742 213.069 920.871 213.069 Q917.422 213.069 915.431 215.268 Q913.441 217.467 913.441 221.263 L913.441 235.916 L909.158 235.916 L909.158 209.99 L913.441 209.99 L913.441 214.018 Q914.968 211.68 917.029 210.522 Q919.112 209.365 921.82 209.365 Q926.288 209.365 928.579 212.143 Q930.871 214.897 930.871 220.268 Z" fill="#000000" fill-rule="nonzero" fill-opacity="1"></path><path clip-path="url(#clip080)" d="M952.491 199.897 L952.491 203.439 L948.417 203.439 Q946.126 203.439 945.223 204.365 Q944.343 205.291 944.343 207.698 L944.343 209.99 L951.357 209.99 L951.357 213.3 L944.343 213.3 L944.343 235.916 L940.061 235.916 L940.061 213.3 L935.987 213.3 L935.987 209.99 L940.061 209.99 L940.061 208.184 Q940.061 203.856 942.075 201.888 Q944.089 199.897 948.464 199.897 L952.491 199.897 Z" fill="#000000" fill-rule="nonzero" fill-opacity="1"></path><path clip-path="url(#clip080)" d="M978.232 221.888 L978.232 223.971 L958.649 223.971 Q958.927 228.369 961.288 230.684 Q963.672 232.976 967.908 232.976 Q970.362 232.976 972.653 232.374 Q974.968 231.772 977.237 230.569 L977.237 234.596 Q974.945 235.568 972.538 236.078 Q970.13 236.587 967.653 236.587 Q961.45 236.587 957.815 232.976 Q954.204 229.365 954.204 223.207 Q954.204 216.842 957.63 213.115 Q961.079 209.365 966.913 209.365 Q972.144 209.365 975.176 212.745 Q978.232 216.101 978.232 221.888 M973.973 220.638 Q973.926 217.143 972.005 215.059 Q970.107 212.976 966.959 212.976 Q963.394 212.976 961.241 214.99 Q959.112 217.004 958.788 220.661 L973.973 220.638 Z" fill="#000000" fill-rule="nonzero" fill-opacity="1"></path><path clip-path="url(#clip080)" d="M1003.88 210.985 L1003.88 214.967 Q1002.07 213.971 1000.25 213.485 Q998.44 212.976 996.588 212.976 Q992.445 212.976 990.153 215.615 Q987.862 218.231 987.862 222.976 Q987.862 227.721 990.153 230.36 Q992.445 232.976 996.588 232.976 Q998.44 232.976 1000.25 232.49 Q1002.07 231.981 1003.88 230.985 L1003.88 234.92 Q1002.1 235.754 1000.18 236.17 Q998.278 236.587 996.125 236.587 Q990.269 236.587 986.82 232.906 Q983.371 229.226 983.371 222.976 Q983.371 216.633 986.843 212.999 Q990.338 209.365 996.403 209.365 Q998.371 209.365 1000.25 209.782 Q1002.12 210.175 1003.88 210.985 Z" fill="#000000" fill-rule="nonzero" fill-opacity="1"></path><path clip-path="url(#clip080)" d="M1015.5 202.629 L1015.5 209.99 L1024.27 209.99 L1024.27 213.3 L1015.5 213.3 L1015.5 227.374 Q1015.5 230.545 1016.36 231.448 Q1017.24 232.351 1019.9 232.351 L1024.27 232.351 L1024.27 235.916 L1019.9 235.916 Q1014.97 235.916 1013.09 234.087 Q1011.22 232.235 1011.22 227.374 L1011.22 213.3 L1008.09 213.3 L1008.09 209.99 L1011.22 209.99 L1011.22 202.629 L1015.5 202.629 Z" fill="#000000" fill-rule="nonzero" fill-opacity="1"></path><path clip-path="url(#clip080)" d="M1029.88 209.99 L1034.13 209.99 L1034.13 235.916 L1029.88 235.916 L1029.88 209.99 M1029.88 199.897 L1034.13 199.897 L1034.13 205.291 L1029.88 205.291 L1029.88 199.897 Z" fill="#000000" fill-rule="nonzero" fill-opacity="1"></path><path clip-path="url(#clip080)" d="M1053.09 212.976 Q1049.67 212.976 1047.68 215.661 Q1045.69 218.323 1045.69 222.976 Q1045.69 227.629 1047.65 230.314 Q1049.64 232.976 1053.09 232.976 Q1056.5 232.976 1058.49 230.291 Q1060.48 227.606 1060.48 222.976 Q1060.48 218.37 1058.49 215.684 Q1056.5 212.976 1053.09 212.976 M1053.09 209.365 Q1058.65 209.365 1061.82 212.976 Q1064.99 216.587 1064.99 222.976 Q1064.99 229.342 1061.82 232.976 Q1058.65 236.587 1053.09 236.587 Q1047.51 236.587 1044.34 232.976 Q1041.19 229.342 1041.19 222.976 Q1041.19 216.587 1044.34 212.976 Q1047.51 209.365 1053.09 209.365 Z" fill="#000000" fill-rule="nonzero" fill-opacity="1"></path><path clip-path="url(#clip080)" d="M1093.6 220.268 L1093.6 235.916 L1089.34 235.916 L1089.34 220.407 Q1089.34 216.726 1087.91 214.897 Q1086.47 213.069 1083.6 213.069 Q1080.15 213.069 1078.16 215.268 Q1076.17 217.467 1076.17 221.263 L1076.17 235.916 L1071.89 235.916 L1071.89 209.99 L1076.17 209.99 L1076.17 214.018 Q1077.7 211.68 1079.76 210.522 Q1081.84 209.365 1084.55 209.365 Q1089.02 209.365 1091.31 212.143 Q1093.6 214.897 1093.6 220.268 Z" fill="#000000" fill-rule="nonzero" fill-opacity="1"></path><path clip-path="url(#clip080)" d="M1118.62 210.754 L1118.62 214.782 Q1116.82 213.856 1114.87 213.393 Q1112.93 212.93 1110.85 212.93 Q1107.68 212.93 1106.08 213.902 Q1104.5 214.874 1104.5 216.819 Q1104.5 218.3 1105.64 219.157 Q1106.77 219.99 1110.2 220.754 L1111.66 221.078 Q1116.19 222.05 1118.09 223.832 Q1120.01 225.592 1120.01 228.763 Q1120.01 232.374 1117.14 234.481 Q1114.3 236.587 1109.3 236.587 Q1107.21 236.587 1104.94 236.17 Q1102.7 235.777 1100.2 234.967 L1100.2 230.569 Q1102.56 231.795 1104.85 232.42 Q1107.14 233.022 1109.39 233.022 Q1112.4 233.022 1114.02 232.004 Q1115.64 230.962 1115.64 229.087 Q1115.64 227.351 1114.46 226.425 Q1113.3 225.499 1109.34 224.643 L1107.86 224.295 Q1103.9 223.462 1102.14 221.749 Q1100.38 220.013 1100.38 217.004 Q1100.38 213.346 1102.98 211.356 Q1105.57 209.365 1110.34 209.365 Q1112.7 209.365 1114.78 209.712 Q1116.87 210.059 1118.62 210.754 Z" fill="#000000" fill-rule="nonzero" fill-opacity="1"></path><polyline clip-path="url(#clip080)" style="stroke:#e26f46; stroke-linecap:round; stroke-linejoin:round; stroke-width:4; stroke-opacity:1; fill:none" points="300.571,270.476 443.747,270.476 "></polyline>
<path clip-path="url(#clip080)" d="M467.61 253.196 L489.461 253.196 L489.461 257.131 L472.286 257.131 L472.286 267.362 L488.744 267.362 L488.744 271.297 L472.286 271.297 L472.286 283.821 L489.878 283.821 L489.878 287.756 L467.61 287.756 L467.61 253.196 Z" fill="#000000" fill-rule="nonzero" fill-opacity="1"></path><path clip-path="url(#clip080)" d="M513.906 262.594 L513.906 266.622 Q512.1 265.696 510.156 265.233 Q508.211 264.77 506.128 264.77 Q502.957 264.77 501.36 265.742 Q499.785 266.714 499.785 268.659 Q499.785 270.14 500.92 270.997 Q502.054 271.83 505.48 272.594 L506.938 272.918 Q511.475 273.89 513.373 275.672 Q515.295 277.432 515.295 280.603 Q515.295 284.214 512.424 286.321 Q509.577 288.427 504.577 288.427 Q502.494 288.427 500.225 288.01 Q497.98 287.617 495.48 286.807 L495.48 282.409 Q497.841 283.635 500.133 284.26 Q502.424 284.862 504.67 284.862 Q507.679 284.862 509.299 283.844 Q510.92 282.802 510.92 280.927 Q510.92 279.191 509.739 278.265 Q508.582 277.339 504.623 276.483 L503.142 276.135 Q499.184 275.302 497.424 273.589 Q495.665 271.853 495.665 268.844 Q495.665 265.186 498.258 263.196 Q500.85 261.205 505.619 261.205 Q507.98 261.205 510.063 261.552 Q512.146 261.899 513.906 262.594 Z" fill="#000000" fill-rule="nonzero" fill-opacity="1"></path><path clip-path="url(#clip080)" d="M526.29 254.469 L526.29 261.83 L535.063 261.83 L535.063 265.14 L526.29 265.14 L526.29 279.214 Q526.29 282.385 527.146 283.288 Q528.026 284.191 530.688 284.191 L535.063 284.191 L535.063 287.756 L530.688 287.756 Q525.758 287.756 523.883 285.927 Q522.008 284.075 522.008 279.214 L522.008 265.14 L518.883 265.14 L518.883 261.83 L522.008 261.83 L522.008 254.469 L526.29 254.469 Z" fill="#000000" fill-rule="nonzero" fill-opacity="1"></path><path clip-path="url(#clip080)" d="M540.665 261.83 L544.924 261.83 L544.924 287.756 L540.665 287.756 L540.665 261.83 M540.665 251.737 L544.924 251.737 L544.924 257.131 L540.665 257.131 L540.665 251.737 Z" fill="#000000" fill-rule="nonzero" fill-opacity="1"></path><path clip-path="url(#clip080)" d="M574.021 266.807 Q575.618 263.936 577.841 262.571 Q580.063 261.205 583.072 261.205 Q587.123 261.205 589.322 264.052 Q591.521 266.876 591.521 272.108 L591.521 287.756 L587.239 287.756 L587.239 272.247 Q587.239 268.52 585.919 266.714 Q584.6 264.909 581.891 264.909 Q578.581 264.909 576.66 267.108 Q574.739 269.307 574.739 273.103 L574.739 287.756 L570.456 287.756 L570.456 272.247 Q570.456 268.497 569.137 266.714 Q567.817 264.909 565.063 264.909 Q561.799 264.909 559.878 267.131 Q557.956 269.33 557.956 273.103 L557.956 287.756 L553.674 287.756 L553.674 261.83 L557.956 261.83 L557.956 265.858 Q559.415 263.473 561.452 262.339 Q563.489 261.205 566.29 261.205 Q569.114 261.205 571.081 262.64 Q573.072 264.075 574.021 266.807 Z" fill="#000000" fill-rule="nonzero" fill-opacity="1"></path><path clip-path="url(#clip080)" d="M611.799 274.723 Q606.637 274.723 604.646 275.904 Q602.655 277.084 602.655 279.932 Q602.655 282.2 604.137 283.543 Q605.641 284.862 608.211 284.862 Q611.752 284.862 613.882 282.362 Q616.035 279.839 616.035 275.672 L616.035 274.723 L611.799 274.723 M620.294 272.964 L620.294 287.756 L616.035 287.756 L616.035 283.821 Q614.576 286.182 612.401 287.316 Q610.225 288.427 607.077 288.427 Q603.095 288.427 600.734 286.205 Q598.396 283.959 598.396 280.209 Q598.396 275.834 601.313 273.612 Q604.252 271.39 610.063 271.39 L616.035 271.39 L616.035 270.973 Q616.035 268.034 614.09 266.436 Q612.169 264.816 608.674 264.816 Q606.452 264.816 604.345 265.348 Q602.239 265.881 600.294 266.946 L600.294 263.01 Q602.632 262.108 604.831 261.668 Q607.03 261.205 609.114 261.205 Q614.739 261.205 617.516 264.122 Q620.294 267.038 620.294 272.964 Z" fill="#000000" fill-rule="nonzero" fill-opacity="1"></path><path clip-path="url(#clip080)" d="M633.28 254.469 L633.28 261.83 L642.053 261.83 L642.053 265.14 L633.28 265.14 L633.28 279.214 Q633.28 282.385 634.137 283.288 Q635.016 284.191 637.678 284.191 L642.053 284.191 L642.053 287.756 L637.678 287.756 Q632.748 287.756 630.873 285.927 Q628.998 284.075 628.998 279.214 L628.998 265.14 L625.873 265.14 L625.873 261.83 L628.998 261.83 L628.998 254.469 L633.28 254.469 Z" fill="#000000" fill-rule="nonzero" fill-opacity="1"></path><path clip-path="url(#clip080)" d="M669.831 273.728 L669.831 275.811 L650.248 275.811 Q650.525 280.209 652.886 282.524 Q655.271 284.816 659.507 284.816 Q661.96 284.816 664.252 284.214 Q666.567 283.612 668.835 282.409 L668.835 286.436 Q666.544 287.408 664.136 287.918 Q661.729 288.427 659.252 288.427 Q653.049 288.427 649.414 284.816 Q645.803 281.205 645.803 275.047 Q645.803 268.682 649.229 264.955 Q652.678 261.205 658.511 261.205 Q663.743 261.205 666.775 264.585 Q669.831 267.941 669.831 273.728 M665.572 272.478 Q665.525 268.983 663.604 266.899 Q661.706 264.816 658.558 264.816 Q654.993 264.816 652.84 266.83 Q650.711 268.844 650.386 272.501 L665.572 272.478 Z" fill="#000000" fill-rule="nonzero" fill-opacity="1"></path><path clip-path="url(#clip080)" d="M693.882 265.765 L693.882 251.737 L698.141 251.737 L698.141 287.756 L693.882 287.756 L693.882 283.867 Q692.539 286.182 690.479 287.316 Q688.442 288.427 685.571 288.427 Q680.872 288.427 677.909 284.677 Q674.97 280.927 674.97 274.816 Q674.97 268.705 677.909 264.955 Q680.872 261.205 685.571 261.205 Q688.442 261.205 690.479 262.339 Q692.539 263.45 693.882 265.765 M679.368 274.816 Q679.368 279.515 681.289 282.2 Q683.234 284.862 686.613 284.862 Q689.993 284.862 691.937 282.2 Q693.882 279.515 693.882 274.816 Q693.882 270.117 691.937 267.455 Q689.993 264.77 686.613 264.77 Q683.234 264.77 681.289 267.455 Q679.368 270.117 679.368 274.816 Z" fill="#000000" fill-rule="nonzero" fill-opacity="1"></path><path clip-path="url(#clip080)" d="M743.534 272.108 L743.534 287.756 L739.275 287.756 L739.275 272.247 Q739.275 268.566 737.84 266.737 Q736.405 264.909 733.534 264.909 Q730.085 264.909 728.094 267.108 Q726.104 269.307 726.104 273.103 L726.104 287.756 L721.821 287.756 L721.821 261.83 L726.104 261.83 L726.104 265.858 Q727.631 263.52 729.692 262.362 Q731.775 261.205 734.483 261.205 Q738.951 261.205 741.242 263.983 Q743.534 266.737 743.534 272.108 Z" fill="#000000" fill-rule="nonzero" fill-opacity="1"></path><path clip-path="url(#clip080)" d="M751.59 277.524 L751.59 261.83 L755.849 261.83 L755.849 277.362 Q755.849 281.043 757.284 282.895 Q758.719 284.723 761.59 284.723 Q765.039 284.723 767.029 282.524 Q769.043 280.325 769.043 276.529 L769.043 261.83 L773.302 261.83 L773.302 287.756 L769.043 287.756 L769.043 283.774 Q767.492 286.135 765.432 287.293 Q763.395 288.427 760.687 288.427 Q756.219 288.427 753.904 285.649 Q751.59 282.871 751.59 277.524 M762.307 261.205 L762.307 261.205 Z" fill="#000000" fill-rule="nonzero" fill-opacity="1"></path><path clip-path="url(#clip080)" d="M802.261 266.807 Q803.858 263.936 806.08 262.571 Q808.302 261.205 811.312 261.205 Q815.362 261.205 817.562 264.052 Q819.761 266.876 819.761 272.108 L819.761 287.756 L815.478 287.756 L815.478 272.247 Q815.478 268.52 814.159 266.714 Q812.839 264.909 810.131 264.909 Q806.821 264.909 804.9 267.108 Q802.978 269.307 802.978 273.103 L802.978 287.756 L798.696 287.756 L798.696 272.247 Q798.696 268.497 797.376 266.714 Q796.057 264.909 793.302 264.909 Q790.039 264.909 788.117 267.131 Q786.196 269.33 786.196 273.103 L786.196 287.756 L781.914 287.756 L781.914 261.83 L786.196 261.83 L786.196 265.858 Q787.654 263.473 789.691 262.339 Q791.728 261.205 794.529 261.205 Q797.353 261.205 799.321 262.64 Q801.312 264.075 802.261 266.807 Z" fill="#000000" fill-rule="nonzero" fill-opacity="1"></path><path clip-path="url(#clip080)" d="M846.867 274.816 Q846.867 270.117 844.922 267.455 Q843.001 264.77 839.622 264.77 Q836.242 264.77 834.298 267.455 Q832.376 270.117 832.376 274.816 Q832.376 279.515 834.298 282.2 Q836.242 284.862 839.622 284.862 Q843.001 284.862 844.922 282.2 Q846.867 279.515 846.867 274.816 M832.376 265.765 Q833.719 263.45 835.756 262.339 Q837.816 261.205 840.663 261.205 Q845.385 261.205 848.325 264.955 Q851.288 268.705 851.288 274.816 Q851.288 280.927 848.325 284.677 Q845.385 288.427 840.663 288.427 Q837.816 288.427 835.756 287.316 Q833.719 286.182 832.376 283.867 L832.376 287.756 L828.094 287.756 L828.094 251.737 L832.376 251.737 L832.376 265.765 Z" fill="#000000" fill-rule="nonzero" fill-opacity="1"></path><path clip-path="url(#clip080)" d="M880.524 273.728 L880.524 275.811 L860.941 275.811 Q861.219 280.209 863.58 282.524 Q865.964 284.816 870.2 284.816 Q872.654 284.816 874.945 284.214 Q877.26 283.612 879.529 282.409 L879.529 286.436 Q877.237 287.408 874.83 287.918 Q872.422 288.427 869.945 288.427 Q863.742 288.427 860.108 284.816 Q856.496 281.205 856.496 275.047 Q856.496 268.682 859.922 264.955 Q863.371 261.205 869.205 261.205 Q874.436 261.205 877.469 264.585 Q880.524 267.941 880.524 273.728 M876.265 272.478 Q876.219 268.983 874.297 266.899 Q872.399 264.816 869.251 264.816 Q865.686 264.816 863.533 266.83 Q861.404 268.844 861.08 272.501 L876.265 272.478 Z" fill="#000000" fill-rule="nonzero" fill-opacity="1"></path><path clip-path="url(#clip080)" d="M902.538 265.811 Q901.82 265.395 900.964 265.21 Q900.131 265.001 899.112 265.001 Q895.501 265.001 893.556 267.362 Q891.635 269.7 891.635 274.098 L891.635 287.756 L887.353 287.756 L887.353 261.83 L891.635 261.83 L891.635 265.858 Q892.978 263.497 895.131 262.362 Q897.283 261.205 900.362 261.205 Q900.802 261.205 901.334 261.274 Q901.867 261.321 902.515 261.436 L902.538 265.811 Z" fill="#000000" fill-rule="nonzero" fill-opacity="1"></path><path clip-path="url(#clip080)" d="M932.121 264.816 Q928.695 264.816 926.704 267.501 Q924.714 270.163 924.714 274.816 Q924.714 279.469 926.681 282.154 Q928.672 284.816 932.121 284.816 Q935.524 284.816 937.515 282.131 Q939.505 279.446 939.505 274.816 Q939.505 270.21 937.515 267.524 Q935.524 264.816 932.121 264.816 M932.121 261.205 Q937.677 261.205 940.848 264.816 Q944.019 268.427 944.019 274.816 Q944.019 281.182 940.848 284.816 Q937.677 288.427 932.121 288.427 Q926.542 288.427 923.371 284.816 Q920.223 281.182 920.223 274.816 Q920.223 268.427 923.371 264.816 Q926.542 261.205 932.121 261.205 Z" fill="#000000" fill-rule="nonzero" fill-opacity="1"></path><path clip-path="url(#clip080)" d="M964.204 251.737 L964.204 255.279 L960.13 255.279 Q957.839 255.279 956.936 256.205 Q956.056 257.131 956.056 259.538 L956.056 261.83 L963.07 261.83 L963.07 265.14 L956.056 265.14 L956.056 287.756 L951.774 287.756 L951.774 265.14 L947.7 265.14 L947.7 261.83 L951.774 261.83 L951.774 260.024 Q951.774 255.696 953.788 253.728 Q955.802 251.737 960.176 251.737 L964.204 251.737 Z" fill="#000000" fill-rule="nonzero" fill-opacity="1"></path><path clip-path="url(#clip080)" d="M982.838 261.83 L987.098 261.83 L987.098 287.756 L982.838 287.756 L982.838 261.83 M982.838 251.737 L987.098 251.737 L987.098 257.131 L982.838 257.131 L982.838 251.737 Z" fill="#000000" fill-rule="nonzero" fill-opacity="1"></path><path clip-path="url(#clip080)" d="M1017.56 272.108 L1017.56 287.756 L1013.3 287.756 L1013.3 272.247 Q1013.3 268.566 1011.87 266.737 Q1010.43 264.909 1007.56 264.909 Q1004.11 264.909 1002.12 267.108 Q1000.13 269.307 1000.13 273.103 L1000.13 287.756 L995.848 287.756 L995.848 261.83 L1000.13 261.83 L1000.13 265.858 Q1001.66 263.52 1003.72 262.362 Q1005.8 261.205 1008.51 261.205 Q1012.98 261.205 1015.27 263.983 Q1017.56 266.737 1017.56 272.108 Z" fill="#000000" fill-rule="nonzero" fill-opacity="1"></path><path clip-path="url(#clip080)" d="M1039.18 251.737 L1039.18 255.279 L1035.11 255.279 Q1032.81 255.279 1031.91 256.205 Q1031.03 257.131 1031.03 259.538 L1031.03 261.83 L1038.05 261.83 L1038.05 265.14 L1031.03 265.14 L1031.03 287.756 L1026.75 287.756 L1026.75 265.14 L1022.68 265.14 L1022.68 261.83 L1026.75 261.83 L1026.75 260.024 Q1026.75 255.696 1028.76 253.728 Q1030.78 251.737 1035.15 251.737 L1039.18 251.737 Z" fill="#000000" fill-rule="nonzero" fill-opacity="1"></path><path clip-path="url(#clip080)" d="M1064.92 273.728 L1064.92 275.811 L1045.34 275.811 Q1045.62 280.209 1047.98 282.524 Q1050.36 284.816 1054.6 284.816 Q1057.05 284.816 1059.34 284.214 Q1061.66 283.612 1063.93 282.409 L1063.93 286.436 Q1061.63 287.408 1059.23 287.918 Q1056.82 288.427 1054.34 288.427 Q1048.14 288.427 1044.5 284.816 Q1040.89 281.205 1040.89 275.047 Q1040.89 268.682 1044.32 264.955 Q1047.77 261.205 1053.6 261.205 Q1058.83 261.205 1061.87 264.585 Q1064.92 267.941 1064.92 273.728 M1060.66 272.478 Q1060.62 268.983 1058.69 266.899 Q1056.8 264.816 1053.65 264.816 Q1050.08 264.816 1047.93 266.83 Q1045.8 268.844 1045.48 272.501 L1060.66 272.478 Z" fill="#000000" fill-rule="nonzero" fill-opacity="1"></path><path clip-path="url(#clip080)" d="M1090.57 262.825 L1090.57 266.807 Q1088.76 265.811 1086.94 265.325 Q1085.13 264.816 1083.28 264.816 Q1079.13 264.816 1076.84 267.455 Q1074.55 270.071 1074.55 274.816 Q1074.55 279.561 1076.84 282.2 Q1079.13 284.816 1083.28 284.816 Q1085.13 284.816 1086.94 284.33 Q1088.76 283.821 1090.57 282.825 L1090.57 286.76 Q1088.79 287.594 1086.87 288.01 Q1084.97 288.427 1082.81 288.427 Q1076.96 288.427 1073.51 284.746 Q1070.06 281.066 1070.06 274.816 Q1070.06 268.473 1073.53 264.839 Q1077.03 261.205 1083.09 261.205 Q1085.06 261.205 1086.94 261.622 Q1088.81 262.015 1090.57 262.825 Z" fill="#000000" fill-rule="nonzero" fill-opacity="1"></path><path clip-path="url(#clip080)" d="M1102.19 254.469 L1102.19 261.83 L1110.96 261.83 L1110.96 265.14 L1102.19 265.14 L1102.19 279.214 Q1102.19 282.385 1103.05 283.288 Q1103.93 284.191 1106.59 284.191 L1110.96 284.191 L1110.96 287.756 L1106.59 287.756 Q1101.66 287.756 1099.78 285.927 Q1097.91 284.075 1097.91 279.214 L1097.91 265.14 L1094.78 265.14 L1094.78 261.83 L1097.91 261.83 L1097.91 254.469 L1102.19 254.469 Z" fill="#000000" fill-rule="nonzero" fill-opacity="1"></path><path clip-path="url(#clip080)" d="M1116.56 261.83 L1120.82 261.83 L1120.82 287.756 L1116.56 287.756 L1116.56 261.83 M1116.56 251.737 L1120.82 251.737 L1120.82 257.131 L1116.56 257.131 L1116.56 251.737 Z" fill="#000000" fill-rule="nonzero" fill-opacity="1"></path><path clip-path="url(#clip080)" d="M1139.78 264.816 Q1136.36 264.816 1134.37 267.501 Q1132.37 270.163 1132.37 274.816 Q1132.37 279.469 1134.34 282.154 Q1136.33 284.816 1139.78 284.816 Q1143.18 284.816 1145.18 282.131 Q1147.17 279.446 1147.17 274.816 Q1147.17 270.21 1145.18 267.524 Q1143.18 264.816 1139.78 264.816 M1139.78 261.205 Q1145.34 261.205 1148.51 264.816 Q1151.68 268.427 1151.68 274.816 Q1151.68 281.182 1148.51 284.816 Q1145.34 288.427 1139.78 288.427 Q1134.2 288.427 1131.03 284.816 Q1127.88 281.182 1127.88 274.816 Q1127.88 268.427 1131.03 264.816 Q1134.2 261.205 1139.78 261.205 Z" fill="#000000" fill-rule="nonzero" fill-opacity="1"></path><path clip-path="url(#clip080)" d="M1180.29 272.108 L1180.29 287.756 L1176.03 287.756 L1176.03 272.247 Q1176.03 268.566 1174.6 266.737 Q1173.16 264.909 1170.29 264.909 Q1166.84 264.909 1164.85 267.108 Q1162.86 269.307 1162.86 273.103 L1162.86 287.756 L1158.58 287.756 L1158.58 261.83 L1162.86 261.83 L1162.86 265.858 Q1164.39 263.52 1166.45 262.362 Q1168.53 261.205 1171.24 261.205 Q1175.71 261.205 1178 263.983 Q1180.29 266.737 1180.29 272.108 Z" fill="#000000" fill-rule="nonzero" fill-opacity="1"></path><path clip-path="url(#clip080)" d="M1205.31 262.594 L1205.31 266.622 Q1203.51 265.696 1201.56 265.233 Q1199.62 264.77 1197.54 264.77 Q1194.37 264.77 1192.77 265.742 Q1191.19 266.714 1191.19 268.659 Q1191.19 270.14 1192.33 270.997 Q1193.46 271.83 1196.89 272.594 L1198.35 272.918 Q1202.88 273.89 1204.78 275.672 Q1206.7 277.432 1206.7 280.603 Q1206.7 284.214 1203.83 286.321 Q1200.99 288.427 1195.99 288.427 Q1193.9 288.427 1191.63 288.01 Q1189.39 287.617 1186.89 286.807 L1186.89 282.409 Q1189.25 283.635 1191.54 284.26 Q1193.83 284.862 1196.08 284.862 Q1199.09 284.862 1200.71 283.844 Q1202.33 282.802 1202.33 280.927 Q1202.33 279.191 1201.15 278.265 Q1199.99 277.339 1196.03 276.483 L1194.55 276.135 Q1190.59 275.302 1188.83 273.589 Q1187.07 271.853 1187.07 268.844 Q1187.07 265.186 1189.67 263.196 Q1192.26 261.205 1197.03 261.205 Q1199.39 261.205 1201.47 261.552 Q1203.55 261.899 1205.31 262.594 Z" fill="#000000" fill-rule="nonzero" fill-opacity="1"></path></svg>