<svg xmlns="http://www.w3.org/2000/svg" xmlns:xlink="http://www.w3.org/1999/xlink" width="600" height="400" viewBox="0 0 2400 1600">
<defs>
  <clipPath id="clip680">
    <rect x="0" y="0" width="2400" height="1600"></rect>
  </clipPath>
</defs>
<path clip-path="url(#clip680)" d="M0 1600 L2400 1600 L2400 0 L0 0  Z" fill="#ffffff" fill-rule="evenodd" fill-opacity="1"></path>
<defs>
  <clipPath id="clip681">
    <rect x="480" y="0" width="1681" height="1600"></rect>
  </clipPath>
</defs>
<path clip-path="url(#clip680)" d="M337.134 1423.18 L2352.76 1423.18 L2352.76 123.472 L337.134 123.472  Z" fill="#ffffff" fill-rule="evenodd" fill-opacity="1"></path>
<defs>
  <clipPath id="clip682">
    <rect x="337" y="123" width="2017" height="1301"></rect>
  </clipPath>
</defs>
<polyline clip-path="url(#clip682)" style="stroke:#000000; stroke-linecap:round; stroke-linejoin:round; stroke-width:2; stroke-opacity:0.1; fill:none" points="371.495,1423.18 371.495,123.472 "></polyline>
<polyline clip-path="url(#clip682)" style="stroke:#000000; stroke-linecap:round; stroke-linejoin:round; stroke-width:2; stroke-opacity:0.1; fill:none" points="754.456,1423.18 754.456,123.472 "></polyline>
<polyline clip-path="url(#clip682)" style="stroke:#000000; stroke-linecap:round; stroke-linejoin:round; stroke-width:2; stroke-opacity:0.1; fill:none" points="1137.42,1423.18 1137.42,123.472 "></polyline>
<polyline clip-path="url(#clip682)" style="stroke:#000000; stroke-linecap:round; stroke-linejoin:round; stroke-width:2; stroke-opacity:0.1; fill:none" points="1520.38,1423.18 1520.38,123.472 "></polyline>
<polyline clip-path="url(#clip682)" style="stroke:#000000; stroke-linecap:round; stroke-linejoin:round; stroke-width:2; stroke-opacity:0.1; fill:none" points="1903.34,1423.18 1903.34,123.472 "></polyline>
<polyline clip-path="url(#clip682)" style="stroke:#000000; stroke-linecap:round; stroke-linejoin:round; stroke-width:2; stroke-opacity:0.1; fill:none" points="2286.3,1423.18 2286.3,123.472 "></polyline>
<polyline clip-path="url(#clip680)" style="stroke:#000000; stroke-linecap:round; stroke-linejoin:round; stroke-width:4; stroke-opacity:1; fill:none" points="337.134,1423.18 2352.76,1423.18 "></polyline>
<polyline clip-path="url(#clip680)" style="stroke:#000000; stroke-linecap:round; stroke-linejoin:round; stroke-width:4; stroke-opacity:1; fill:none" points="371.495,1423.18 371.495,1404.28 "></polyline>
<polyline clip-path="url(#clip680)" style="stroke:#000000; stroke-linecap:round; stroke-linejoin:round; stroke-width:4; stroke-opacity:1; fill:none" points="754.456,1423.18 754.456,1404.28 "></polyline>
<polyline clip-path="url(#clip680)" style="stroke:#000000; stroke-linecap:round; stroke-linejoin:round; stroke-width:4; stroke-opacity:1; fill:none" points="1137.42,1423.18 1137.42,1404.28 "></polyline>
<polyline clip-path="url(#clip680)" style="stroke:#000000; stroke-linecap:round; stroke-linejoin:round; stroke-width:4; stroke-opacity:1; fill:none" points="1520.38,1423.18 1520.38,1404.28 "></polyline>
<polyline clip-path="url(#clip680)" style="stroke:#000000; stroke-linecap:round; stroke-linejoin:round; stroke-width:4; stroke-opacity:1; fill:none" points="1903.34,1423.18 1903.34,1404.28 "></polyline>
<polyline clip-path="url(#clip680)" style="stroke:#000000; stroke-linecap:round; stroke-linejoin:round; stroke-width:4; stroke-opacity:1; fill:none" points="2286.3,1423.18 2286.3,1404.28 "></polyline>
<path clip-path="url(#clip680)" d="M348.879 1454.1 Q345.268 1454.1 343.439 1457.66 Q341.634 1461.2 341.634 1468.33 Q341.634 1475.44 343.439 1479.01 Q345.268 1482.55 348.879 1482.55 Q352.513 1482.55 354.319 1479.01 Q356.147 1475.44 356.147 1468.33 Q356.147 1461.2 354.319 1457.66 Q352.513 1454.1 348.879 1454.1 M348.879 1450.39 Q354.689 1450.39 357.745 1455 Q360.823 1459.58 360.823 1468.33 Q360.823 1477.06 357.745 1481.67 Q354.689 1486.25 348.879 1486.25 Q343.069 1486.25 339.99 1481.67 Q336.935 1477.06 336.935 1468.33 Q336.935 1459.58 339.99 1455 Q343.069 1450.39 348.879 1450.39 Z" fill="#000000" fill-rule="nonzero" fill-opacity="1"></path><path clip-path="url(#clip680)" d="M369.041 1479.7 L373.925 1479.7 L373.925 1485.58 L369.041 1485.58 L369.041 1479.7 Z" fill="#000000" fill-rule="nonzero" fill-opacity="1"></path><path clip-path="url(#clip680)" d="M394.11 1454.1 Q390.499 1454.1 388.67 1457.66 Q386.865 1461.2 386.865 1468.33 Q386.865 1475.44 388.67 1479.01 Q390.499 1482.55 394.11 1482.55 Q397.744 1482.55 399.55 1479.01 Q401.379 1475.44 401.379 1468.33 Q401.379 1461.2 399.55 1457.66 Q397.744 1454.1 394.11 1454.1 M394.11 1450.39 Q399.92 1450.39 402.976 1455 Q406.055 1459.58 406.055 1468.33 Q406.055 1477.06 402.976 1481.67 Q399.92 1486.25 394.11 1486.25 Q388.3 1486.25 385.221 1481.67 Q382.166 1477.06 382.166 1468.33 Q382.166 1459.58 385.221 1455 Q388.3 1450.39 394.11 1450.39 Z" fill="#000000" fill-rule="nonzero" fill-opacity="1"></path><path clip-path="url(#clip680)" d="M732.454 1454.1 Q728.843 1454.1 727.014 1457.66 Q725.209 1461.2 725.209 1468.33 Q725.209 1475.44 727.014 1479.01 Q728.843 1482.55 732.454 1482.55 Q736.088 1482.55 737.894 1479.01 Q739.723 1475.44 739.723 1468.33 Q739.723 1461.2 737.894 1457.66 Q736.088 1454.1 732.454 1454.1 M732.454 1450.39 Q738.264 1450.39 741.32 1455 Q744.399 1459.58 744.399 1468.33 Q744.399 1477.06 741.32 1481.67 Q738.264 1486.25 732.454 1486.25 Q726.644 1486.25 723.565 1481.67 Q720.51 1477.06 720.51 1468.33 Q720.51 1459.58 723.565 1455 Q726.644 1450.39 732.454 1450.39 Z" fill="#000000" fill-rule="nonzero" fill-opacity="1"></path><path clip-path="url(#clip680)" d="M752.616 1479.7 L757.5 1479.7 L757.5 1485.58 L752.616 1485.58 L752.616 1479.7 Z" fill="#000000" fill-rule="nonzero" fill-opacity="1"></path><path clip-path="url(#clip680)" d="M768.496 1481.64 L776.134 1481.64 L776.134 1455.28 L767.824 1456.95 L767.824 1452.69 L776.088 1451.02 L780.764 1451.02 L780.764 1481.64 L788.403 1481.64 L788.403 1485.58 L768.496 1485.58 L768.496 1481.64 Z" fill="#000000" fill-rule="nonzero" fill-opacity="1"></path><path clip-path="url(#clip680)" d="M1115.6 1454.1 Q1111.99 1454.1 1110.16 1457.66 Q1108.36 1461.2 1108.36 1468.33 Q1108.36 1475.44 1110.16 1479.01 Q1111.99 1482.55 1115.6 1482.55 Q1119.24 1482.55 1121.04 1479.01 Q1122.87 1475.44 1122.87 1468.33 Q1122.87 1461.2 1121.04 1457.66 Q1119.24 1454.1 1115.6 1454.1 M1115.6 1450.39 Q1121.41 1450.39 1124.47 1455 Q1127.55 1459.58 1127.55 1468.33 Q1127.55 1477.06 1124.47 1481.67 Q1121.41 1486.25 1115.6 1486.25 Q1109.79 1486.25 1106.71 1481.67 Q1103.66 1477.06 1103.66 1468.33 Q1103.66 1459.58 1106.71 1455 Q1109.79 1450.39 1115.6 1450.39 Z" fill="#000000" fill-rule="nonzero" fill-opacity="1"></path><path clip-path="url(#clip680)" d="M1135.76 1479.7 L1140.65 1479.7 L1140.65 1485.58 L1135.76 1485.58 L1135.76 1479.7 Z" fill="#000000" fill-rule="nonzero" fill-opacity="1"></path><path clip-path="url(#clip680)" d="M1154.86 1481.64 L1171.18 1481.64 L1171.18 1485.58 L1149.24 1485.58 L1149.24 1481.64 Q1151.9 1478.89 1156.48 1474.26 Q1161.09 1469.61 1162.27 1468.27 Q1164.51 1465.74 1165.39 1464.01 Q1166.3 1462.25 1166.3 1460.56 Q1166.3 1457.8 1164.35 1456.07 Q1162.43 1454.33 1159.33 1454.33 Q1157.13 1454.33 1154.67 1455.09 Q1152.24 1455.86 1149.47 1457.41 L1149.47 1452.69 Q1152.29 1451.55 1154.74 1450.97 Q1157.2 1450.39 1159.24 1450.39 Q1164.61 1450.39 1167.8 1453.08 Q1170.99 1455.77 1170.99 1460.26 Q1170.99 1462.39 1170.18 1464.31 Q1169.4 1466.2 1167.29 1468.8 Q1166.71 1469.47 1163.61 1472.69 Q1160.51 1475.88 1154.86 1481.64 Z" fill="#000000" fill-rule="nonzero" fill-opacity="1"></path><path clip-path="url(#clip680)" d="M1498.09 1454.1 Q1494.48 1454.1 1492.65 1457.66 Q1490.84 1461.2 1490.84 1468.33 Q1490.84 1475.44 1492.65 1479.01 Q1494.48 1482.55 1498.09 1482.55 Q1501.72 1482.55 1503.53 1479.01 Q1505.36 1475.44 1505.36 1468.33 Q1505.36 1461.2 1503.53 1457.66 Q1501.72 1454.1 1498.09 1454.1 M1498.09 1450.39 Q1503.9 1450.39 1506.95 1455 Q1510.03 1459.58 1510.03 1468.33 Q1510.03 1477.06 1506.95 1481.67 Q1503.9 1486.25 1498.09 1486.25 Q1492.28 1486.25 1489.2 1481.67 Q1486.14 1477.06 1486.14 1468.33 Q1486.14 1459.58 1489.2 1455 Q1492.28 1450.39 1498.09 1450.39 Z" fill="#000000" fill-rule="nonzero" fill-opacity="1"></path><path clip-path="url(#clip680)" d="M1518.25 1479.7 L1523.13 1479.7 L1523.13 1485.58 L1518.25 1485.58 L1518.25 1479.7 Z" fill="#000000" fill-rule="nonzero" fill-opacity="1"></path><path clip-path="url(#clip680)" d="M1547.49 1466.95 Q1550.84 1467.66 1552.72 1469.93 Q1554.62 1472.2 1554.62 1475.53 Q1554.62 1480.65 1551.1 1483.45 Q1547.58 1486.25 1541.1 1486.25 Q1538.92 1486.25 1536.61 1485.81 Q1534.32 1485.39 1531.86 1484.54 L1531.86 1480.02 Q1533.81 1481.16 1536.12 1481.74 Q1538.44 1482.32 1540.96 1482.32 Q1545.36 1482.32 1547.65 1480.58 Q1549.96 1478.84 1549.96 1475.53 Q1549.96 1472.48 1547.81 1470.77 Q1545.68 1469.03 1541.86 1469.03 L1537.83 1469.03 L1537.83 1465.19 L1542.05 1465.19 Q1545.5 1465.19 1547.32 1463.82 Q1549.15 1462.43 1549.15 1459.84 Q1549.15 1457.18 1547.25 1455.77 Q1545.38 1454.33 1541.86 1454.33 Q1539.94 1454.33 1537.74 1454.75 Q1535.54 1455.16 1532.9 1456.04 L1532.9 1451.88 Q1535.57 1451.14 1537.88 1450.77 Q1540.22 1450.39 1542.28 1450.39 Q1547.6 1450.39 1550.7 1452.83 Q1553.81 1455.23 1553.81 1459.35 Q1553.81 1462.22 1552.16 1464.21 Q1550.52 1466.18 1547.49 1466.95 Z" fill="#000000" fill-rule="nonzero" fill-opacity="1"></path><path clip-path="url(#clip680)" d="M1880.48 1454.1 Q1876.87 1454.1 1875.04 1457.66 Q1873.24 1461.2 1873.24 1468.33 Q1873.24 1475.44 1875.04 1479.01 Q1876.87 1482.55 1880.48 1482.55 Q1884.12 1482.55 1885.92 1479.01 Q1887.75 1475.44 1887.75 1468.33 Q1887.75 1461.2 1885.92 1457.66 Q1884.12 1454.1 1880.48 1454.1 M1880.48 1450.39 Q1886.29 1450.39 1889.35 1455 Q1892.43 1459.58 1892.43 1468.33 Q1892.43 1477.06 1889.35 1481.67 Q1886.29 1486.25 1880.48 1486.25 Q1874.67 1486.25 1871.59 1481.67 Q1868.54 1477.06 1868.54 1468.33 Q1868.54 1459.58 1871.59 1455 Q1874.67 1450.39 1880.48 1450.39 Z" fill="#000000" fill-rule="nonzero" fill-opacity="1"></path><path clip-path="url(#clip680)" d="M1900.64 1479.7 L1905.53 1479.7 L1905.53 1485.58 L1900.64 1485.58 L1900.64 1479.7 Z" fill="#000000" fill-rule="nonzero" fill-opacity="1"></path><path clip-path="url(#clip680)" d="M1928.56 1455.09 L1916.76 1473.54 L1928.56 1473.54 L1928.56 1455.09 M1927.33 1451.02 L1933.21 1451.02 L1933.21 1473.54 L1938.14 1473.54 L1938.14 1477.43 L1933.21 1477.43 L1933.21 1485.58 L1928.56 1485.58 L1928.56 1477.43 L1912.96 1477.43 L1912.96 1472.92 L1927.33 1451.02 Z" fill="#000000" fill-rule="nonzero" fill-opacity="1"></path><path clip-path="url(#clip680)" d="M2264.19 1454.1 Q2260.57 1454.1 2258.75 1457.66 Q2256.94 1461.2 2256.94 1468.33 Q2256.94 1475.44 2258.75 1479.01 Q2260.57 1482.55 2264.19 1482.55 Q2267.82 1482.55 2269.63 1479.01 Q2271.45 1475.44 2271.45 1468.33 Q2271.45 1461.2 2269.63 1457.66 Q2267.82 1454.1 2264.19 1454.1 M2264.19 1450.39 Q2270 1450.39 2273.05 1455 Q2276.13 1459.58 2276.13 1468.33 Q2276.13 1477.06 2273.05 1481.67 Q2270 1486.25 2264.19 1486.25 Q2258.38 1486.25 2255.3 1481.67 Q2252.24 1477.06 2252.24 1468.33 Q2252.24 1459.58 2255.3 1455 Q2258.38 1450.39 2264.19 1450.39 Z" fill="#000000" fill-rule="nonzero" fill-opacity="1"></path><path clip-path="url(#clip680)" d="M2284.35 1479.7 L2289.23 1479.7 L2289.23 1485.58 L2284.35 1485.58 L2284.35 1479.7 Z" fill="#000000" fill-rule="nonzero" fill-opacity="1"></path><path clip-path="url(#clip680)" d="M2299.46 1451.02 L2317.82 1451.02 L2317.82 1454.96 L2303.75 1454.96 L2303.75 1463.43 Q2304.76 1463.08 2305.78 1462.92 Q2306.8 1462.73 2307.82 1462.73 Q2313.61 1462.73 2316.99 1465.9 Q2320.37 1469.08 2320.37 1474.49 Q2320.37 1480.07 2316.89 1483.17 Q2313.42 1486.25 2307.1 1486.25 Q2304.93 1486.25 2302.66 1485.88 Q2300.41 1485.51 2298 1484.77 L2298 1480.07 Q2300.09 1481.2 2302.31 1481.76 Q2304.53 1482.32 2307.01 1482.32 Q2311.01 1482.32 2313.35 1480.21 Q2315.69 1478.1 2315.69 1474.49 Q2315.69 1470.88 2313.35 1468.77 Q2311.01 1466.67 2307.01 1466.67 Q2305.13 1466.67 2303.26 1467.08 Q2301.41 1467.5 2299.46 1468.38 L2299.46 1451.02 Z" fill="#000000" fill-rule="nonzero" fill-opacity="1"></path><path clip-path="url(#clip680)" d="M1266.82 1520.52 L1307.02 1520.52 L1307.02 1525.93 L1290.15 1525.93 L1290.15 1568.04 L1283.69 1568.04 L1283.69 1525.93 L1266.82 1525.93 L1266.82 1520.52 Z" fill="#000000" fill-rule="nonzero" fill-opacity="1"></path><path clip-path="url(#clip680)" d="M1310.97 1532.4 L1316.82 1532.4 L1316.82 1568.04 L1310.97 1568.04 L1310.97 1532.4 M1310.97 1518.52 L1316.82 1518.52 L1316.82 1525.93 L1310.97 1525.93 L1310.97 1518.52 Z" fill="#000000" fill-rule="nonzero" fill-opacity="1"></path><path clip-path="url(#clip680)" d="M1356.83 1539.24 Q1359.03 1535.29 1362.08 1533.41 Q1365.14 1531.54 1369.28 1531.54 Q1374.85 1531.54 1377.87 1535.45 Q1380.9 1539.33 1380.9 1546.53 L1380.9 1568.04 L1375.01 1568.04 L1375.01 1546.72 Q1375.01 1541.59 1373.19 1539.11 Q1371.38 1536.63 1367.65 1536.63 Q1363.1 1536.63 1360.46 1539.65 Q1357.82 1542.68 1357.82 1547.9 L1357.82 1568.04 L1351.93 1568.04 L1351.93 1546.72 Q1351.93 1541.56 1350.12 1539.11 Q1348.3 1536.63 1344.52 1536.63 Q1340.03 1536.63 1337.39 1539.68 Q1334.74 1542.71 1334.74 1547.9 L1334.74 1568.04 L1328.86 1568.04 L1328.86 1532.4 L1334.74 1532.4 L1334.74 1537.93 Q1336.75 1534.66 1339.55 1533.1 Q1342.35 1531.54 1346.2 1531.54 Q1350.09 1531.54 1352.79 1533.51 Q1355.53 1535.48 1356.83 1539.24 Z" fill="#000000" fill-rule="nonzero" fill-opacity="1"></path><path clip-path="url(#clip680)" d="M1423.07 1548.76 L1423.07 1551.62 L1396.14 1551.62 Q1396.52 1557.67 1399.77 1560.85 Q1403.05 1564 1408.87 1564 Q1412.25 1564 1415.4 1563.17 Q1418.58 1562.35 1421.7 1560.69 L1421.7 1566.23 Q1418.55 1567.57 1415.24 1568.27 Q1411.93 1568.97 1408.52 1568.97 Q1399.99 1568.97 1395 1564 Q1390.03 1559.04 1390.03 1550.57 Q1390.03 1541.82 1394.74 1536.69 Q1399.48 1531.54 1407.5 1531.54 Q1414.7 1531.54 1418.87 1536.18 Q1423.07 1540.8 1423.07 1548.76 M1417.21 1547.04 Q1417.15 1542.23 1414.51 1539.37 Q1411.9 1536.5 1407.57 1536.5 Q1402.67 1536.5 1399.71 1539.27 Q1396.78 1542.04 1396.33 1547.07 L1417.21 1547.04 Z" fill="#000000" fill-rule="nonzero" fill-opacity="1"></path><polyline clip-path="url(#clip682)" style="stroke:#000000; stroke-linecap:round; stroke-linejoin:round; stroke-width:2; stroke-opacity:0.1; fill:none" points="337.134,1386.4 2352.76,1386.4 "></polyline>
<polyline clip-path="url(#clip682)" style="stroke:#000000; stroke-linecap:round; stroke-linejoin:round; stroke-width:2; stroke-opacity:0.1; fill:none" points="337.134,978.734 2352.76,978.734 "></polyline>
<polyline clip-path="url(#clip682)" style="stroke:#000000; stroke-linecap:round; stroke-linejoin:round; stroke-width:2; stroke-opacity:0.1; fill:none" points="337.134,571.071 2352.76,571.071 "></polyline>
<polyline clip-path="url(#clip682)" style="stroke:#000000; stroke-linecap:round; stroke-linejoin:round; stroke-width:2; stroke-opacity:0.1; fill:none" points="337.134,163.408 2352.76,163.408 "></polyline>
<polyline clip-path="url(#clip680)" style="stroke:#000000; stroke-linecap:round; stroke-linejoin:round; stroke-width:4; stroke-opacity:1; fill:none" points="337.134,1423.18 337.134,123.472 "></polyline>
<polyline clip-path="url(#clip680)" style="stroke:#000000; stroke-linecap:round; stroke-linejoin:round; stroke-width:4; stroke-opacity:1; fill:none" points="337.134,1386.4 356.032,1386.4 "></polyline>
<polyline clip-path="url(#clip680)" style="stroke:#000000; stroke-linecap:round; stroke-linejoin:round; stroke-width:4; stroke-opacity:1; fill:none" points="337.134,978.734 356.032,978.734 "></polyline>
<polyline clip-path="url(#clip680)" style="stroke:#000000; stroke-linecap:round; stroke-linejoin:round; stroke-width:4; stroke-opacity:1; fill:none" points="337.134,571.071 356.032,571.071 "></polyline>
<polyline clip-path="url(#clip680)" style="stroke:#000000; stroke-linecap:round; stroke-linejoin:round; stroke-width:4; stroke-opacity:1; fill:none" points="337.134,163.408 356.032,163.408 "></polyline>
<path clip-path="url(#clip680)" d="M289.19 1372.2 Q285.579 1372.2 283.75 1375.76 Q281.944 1379.3 281.944 1386.43 Q281.944 1393.54 283.75 1397.1 Q285.579 1400.64 289.19 1400.64 Q292.824 1400.64 294.63 1397.1 Q296.458 1393.54 296.458 1386.43 Q296.458 1379.3 294.63 1375.76 Q292.824 1372.2 289.19 1372.2 M289.19 1368.49 Q295 1368.49 298.055 1373.1 Q301.134 1377.68 301.134 1386.43 Q301.134 1395.16 298.055 1399.76 Q295 1404.35 289.19 1404.35 Q283.38 1404.35 280.301 1399.76 Q277.245 1395.16 277.245 1386.43 Q277.245 1377.68 280.301 1373.1 Q283.38 1368.49 289.19 1368.49 Z" fill="#000000" fill-rule="nonzero" fill-opacity="1"></path><path clip-path="url(#clip680)" d="M116.668 998.526 L124.306 998.526 L124.306 972.16 L115.996 973.827 L115.996 969.568 L124.26 967.901 L128.936 967.901 L128.936 998.526 L136.575 998.526 L136.575 1002.46 L116.668 1002.46 L116.668 998.526 Z" fill="#000000" fill-rule="nonzero" fill-opacity="1"></path><path clip-path="url(#clip680)" d="M146.019 996.582 L150.903 996.582 L150.903 1002.46 L146.019 1002.46 L146.019 996.582 Z" fill="#000000" fill-rule="nonzero" fill-opacity="1"></path><path clip-path="url(#clip680)" d="M171.089 970.98 Q167.477 970.98 165.649 974.545 Q163.843 978.086 163.843 985.216 Q163.843 992.322 165.649 995.887 Q167.477 999.429 171.089 999.429 Q174.723 999.429 176.528 995.887 Q178.357 992.322 178.357 985.216 Q178.357 978.086 176.528 974.545 Q174.723 970.98 171.089 970.98 M171.089 967.276 Q176.899 967.276 179.954 971.883 Q183.033 976.466 183.033 985.216 Q183.033 993.943 179.954 998.549 Q176.899 1003.13 171.089 1003.13 Q165.278 1003.13 162.2 998.549 Q159.144 993.943 159.144 985.216 Q159.144 976.466 162.2 971.883 Q165.278 967.276 171.089 967.276 Z" fill="#000000" fill-rule="nonzero" fill-opacity="1"></path><path clip-path="url(#clip680)" d="M219.422 976.998 L208.843 987.623 L219.422 998.202 L216.667 1001 L206.042 990.378 L195.417 1001 L192.686 998.202 L203.241 987.623 L192.686 976.998 L195.417 974.197 L206.042 984.822 L216.667 974.197 L219.422 976.998 Z" fill="#000000" fill-rule="nonzero" fill-opacity="1"></path><path clip-path="url(#clip680)" d="M231.783 998.526 L239.422 998.526 L239.422 972.16 L231.111 973.827 L231.111 969.568 L239.375 967.901 L244.051 967.901 L244.051 998.526 L251.69 998.526 L251.69 1002.46 L231.783 1002.46 L231.783 998.526 Z" fill="#000000" fill-rule="nonzero" fill-opacity="1"></path><path clip-path="url(#clip680)" d="M271.134 970.98 Q267.523 970.98 265.695 974.545 Q263.889 978.086 263.889 985.216 Q263.889 992.322 265.695 995.887 Q267.523 999.429 271.134 999.429 Q274.769 999.429 276.574 995.887 Q278.403 992.322 278.403 985.216 Q278.403 978.086 276.574 974.545 Q274.769 970.98 271.134 970.98 M271.134 967.276 Q276.944 967.276 280 971.883 Q283.079 976.466 283.079 985.216 Q283.079 993.943 280 998.549 Q276.944 1003.13 271.134 1003.13 Q265.324 1003.13 262.245 998.549 Q259.19 993.943 259.19 985.216 Q259.19 976.466 262.245 971.883 Q265.324 967.276 271.134 967.276 Z" fill="#000000" fill-rule="nonzero" fill-opacity="1"></path><path clip-path="url(#clip680)" d="M283.079 946.971 L301.134 946.971 L301.134 948.588 L290.94 975.051 L286.972 975.051 L296.564 950.168 L283.079 950.168 L283.079 946.971 Z" fill="#000000" fill-rule="nonzero" fill-opacity="1"></path><path clip-path="url(#clip680)" d="M119.885 590.863 L136.204 590.863 L136.204 594.798 L114.26 594.798 L114.26 590.863 Q116.922 588.109 121.505 583.479 Q126.112 578.826 127.292 577.484 Q129.538 574.961 130.417 573.224 Q131.32 571.465 131.32 569.775 Q131.32 567.021 129.376 565.285 Q127.455 563.549 124.353 563.549 Q122.154 563.549 119.7 564.312 Q117.269 565.076 114.492 566.627 L114.492 561.905 Q117.316 560.771 119.769 560.192 Q122.223 559.613 124.26 559.613 Q129.63 559.613 132.825 562.299 Q136.019 564.984 136.019 569.474 Q136.019 571.604 135.209 573.525 Q134.422 575.424 132.316 578.016 Q131.737 578.687 128.635 581.905 Q125.533 585.099 119.885 590.863 Z" fill="#000000" fill-rule="nonzero" fill-opacity="1"></path><path clip-path="url(#clip680)" d="M146.019 588.919 L150.903 588.919 L150.903 594.798 L146.019 594.798 L146.019 588.919 Z" fill="#000000" fill-rule="nonzero" fill-opacity="1"></path><path clip-path="url(#clip680)" d="M171.089 563.317 Q167.477 563.317 165.649 566.882 Q163.843 570.424 163.843 577.553 Q163.843 584.66 165.649 588.224 Q167.477 591.766 171.089 591.766 Q174.723 591.766 176.528 588.224 Q178.357 584.66 178.357 577.553 Q178.357 570.424 176.528 566.882 Q174.723 563.317 171.089 563.317 M171.089 559.613 Q176.899 559.613 179.954 564.22 Q183.033 568.803 183.033 577.553 Q183.033 586.28 179.954 590.886 Q176.899 595.47 171.089 595.47 Q165.278 595.47 162.2 590.886 Q159.144 586.28 159.144 577.553 Q159.144 568.803 162.2 564.22 Q165.278 559.613 171.089 559.613 Z" fill="#000000" fill-rule="nonzero" fill-opacity="1"></path><path clip-path="url(#clip680)" d="M219.422 569.336 L208.843 579.961 L219.422 590.539 L216.667 593.34 L206.042 582.715 L195.417 593.34 L192.686 590.539 L203.241 579.961 L192.686 569.336 L195.417 566.535 L206.042 577.16 L216.667 566.535 L219.422 569.336 Z" fill="#000000" fill-rule="nonzero" fill-opacity="1"></path><path clip-path="url(#clip680)" d="M231.783 590.863 L239.422 590.863 L239.422 564.498 L231.111 566.164 L231.111 561.905 L239.375 560.238 L244.051 560.238 L244.051 590.863 L251.69 590.863 L251.69 594.798 L231.783 594.798 L231.783 590.863 Z" fill="#000000" fill-rule="nonzero" fill-opacity="1"></path><path clip-path="url(#clip680)" d="M271.134 563.317 Q267.523 563.317 265.695 566.882 Q263.889 570.424 263.889 577.553 Q263.889 584.66 265.695 588.224 Q267.523 591.766 271.134 591.766 Q274.769 591.766 276.574 588.224 Q278.403 584.66 278.403 577.553 Q278.403 570.424 276.574 566.882 Q274.769 563.317 271.134 563.317 M271.134 559.613 Q276.944 559.613 280 564.22 Q283.079 568.803 283.079 577.553 Q283.079 586.28 280 590.886 Q276.944 595.47 271.134 595.47 Q265.324 595.47 262.245 590.886 Q259.19 586.28 259.19 577.553 Q259.19 568.803 262.245 564.22 Q265.324 559.613 271.134 559.613 Z" fill="#000000" fill-rule="nonzero" fill-opacity="1"></path><path clip-path="url(#clip680)" d="M283.079 539.308 L301.134 539.308 L301.134 540.925 L290.94 567.388 L286.972 567.388 L296.564 542.505 L283.079 542.505 L283.079 539.308 Z" fill="#000000" fill-rule="nonzero" fill-opacity="1"></path><path clip-path="url(#clip680)" d="M130.024 168.502 Q133.38 169.219 135.255 171.488 Q137.154 173.756 137.154 177.089 Q137.154 182.205 133.635 185.006 Q130.117 187.807 123.635 187.807 Q121.459 187.807 119.144 187.367 Q116.853 186.95 114.399 186.094 L114.399 181.58 Q116.343 182.714 118.658 183.293 Q120.973 183.872 123.496 183.872 Q127.894 183.872 130.186 182.136 Q132.501 180.4 132.501 177.089 Q132.501 174.034 130.348 172.321 Q128.218 170.585 124.399 170.585 L120.371 170.585 L120.371 166.742 L124.584 166.742 Q128.033 166.742 129.862 165.377 Q131.691 163.988 131.691 161.395 Q131.691 158.733 129.792 157.321 Q127.917 155.886 124.399 155.886 Q122.478 155.886 120.279 156.302 Q118.08 156.719 115.441 157.599 L115.441 153.432 Q118.103 152.691 120.418 152.321 Q122.755 151.951 124.816 151.951 Q130.14 151.951 133.242 154.381 Q136.343 156.789 136.343 160.909 Q136.343 163.779 134.7 165.77 Q133.056 167.738 130.024 168.502 Z" fill="#000000" fill-rule="nonzero" fill-opacity="1"></path><path clip-path="url(#clip680)" d="M146.019 181.256 L150.903 181.256 L150.903 187.136 L146.019 187.136 L146.019 181.256 Z" fill="#000000" fill-rule="nonzero" fill-opacity="1"></path><path clip-path="url(#clip680)" d="M171.089 155.654 Q167.477 155.654 165.649 159.219 Q163.843 162.761 163.843 169.89 Q163.843 176.997 165.649 180.562 Q167.477 184.103 171.089 184.103 Q174.723 184.103 176.528 180.562 Q178.357 176.997 178.357 169.89 Q178.357 162.761 176.528 159.219 Q174.723 155.654 171.089 155.654 M171.089 151.951 Q176.899 151.951 179.954 156.557 Q183.033 161.14 183.033 169.89 Q183.033 178.617 179.954 183.224 Q176.899 187.807 171.089 187.807 Q165.278 187.807 162.2 183.224 Q159.144 178.617 159.144 169.89 Q159.144 161.14 162.2 156.557 Q165.278 151.951 171.089 151.951 Z" fill="#000000" fill-rule="nonzero" fill-opacity="1"></path><path clip-path="url(#clip680)" d="M219.422 161.673 L208.843 172.298 L219.422 182.876 L216.667 185.677 L206.042 175.052 L195.417 185.677 L192.686 182.876 L203.241 172.298 L192.686 161.673 L195.417 158.872 L206.042 169.497 L216.667 158.872 L219.422 161.673 Z" fill="#000000" fill-rule="nonzero" fill-opacity="1"></path><path clip-path="url(#clip680)" d="M231.783 183.2 L239.422 183.2 L239.422 156.835 L231.111 158.502 L231.111 154.242 L239.375 152.576 L244.051 152.576 L244.051 183.2 L251.69 183.2 L251.69 187.136 L231.783 187.136 L231.783 183.2 Z" fill="#000000" fill-rule="nonzero" fill-opacity="1"></path><path clip-path="url(#clip680)" d="M271.134 155.654 Q267.523 155.654 265.695 159.219 Q263.889 162.761 263.889 169.89 Q263.889 176.997 265.695 180.562 Q267.523 184.103 271.134 184.103 Q274.769 184.103 276.574 180.562 Q278.403 176.997 278.403 169.89 Q278.403 162.761 276.574 159.219 Q274.769 155.654 271.134 155.654 M271.134 151.951 Q276.944 151.951 280 156.557 Q283.079 161.14 283.079 169.89 Q283.079 178.617 280 183.224 Q276.944 187.807 271.134 187.807 Q265.324 187.807 262.245 183.224 Q259.19 178.617 259.19 169.89 Q259.19 161.14 262.245 156.557 Q265.324 151.951 271.134 151.951 Z" fill="#000000" fill-rule="nonzero" fill-opacity="1"></path><path clip-path="url(#clip680)" d="M283.079 131.645 L301.134 131.645 L301.134 133.263 L290.94 159.725 L286.972 159.725 L296.564 134.843 L283.079 134.843 L283.079 131.645 Z" fill="#000000" fill-rule="nonzero" fill-opacity="1"></path><path clip-path="url(#clip680)" d="M16.4842 1110.17 L16.4842 1101.51 L56.238 1080.44 L16.4842 1080.44 L16.4842 1074.2 L64.0042 1074.2 L64.0042 1082.86 L24.2503 1103.93 L64.0042 1103.93 L64.0042 1110.17 L16.4842 1110.17 Z" fill="#000000" fill-rule="nonzero" fill-opacity="1"></path><path clip-path="url(#clip680)" d="M49.9359 1062.27 L28.3562 1062.27 L28.3562 1056.41 L49.7131 1056.41 Q54.7739 1056.41 57.3202 1054.44 Q59.8346 1052.46 59.8346 1048.52 Q59.8346 1043.77 56.8109 1041.04 Q53.7872 1038.27 48.5673 1038.27 L28.3562 1038.27 L28.3562 1032.41 L64.0042 1032.41 L64.0042 1038.27 L58.5296 1038.27 Q61.7762 1040.4 63.3676 1043.23 Q64.9272 1046.03 64.9272 1049.76 Q64.9272 1055.9 61.1078 1059.08 Q57.2883 1062.27 49.9359 1062.27 M27.4968 1047.53 L27.4968 1047.53 Z" fill="#000000" fill-rule="nonzero" fill-opacity="1"></path><path clip-path="url(#clip680)" d="M35.1993 992.593 Q31.2526 990.397 29.3747 987.341 Q27.4968 984.286 27.4968 980.148 Q27.4968 974.578 31.4117 971.554 Q35.2948 968.53 42.4881 968.53 L64.0042 968.53 L64.0042 974.419 L42.679 974.419 Q37.5546 974.419 35.072 976.233 Q32.5894 978.047 32.5894 981.771 Q32.5894 986.323 35.6131 988.964 Q38.6368 991.606 43.8567 991.606 L64.0042 991.606 L64.0042 997.494 L42.679 997.494 Q37.5228 997.494 35.072 999.309 Q32.5894 1001.12 32.5894 1004.91 Q32.5894 1009.4 35.6449 1012.04 Q38.6686 1014.68 43.8567 1014.68 L64.0042 1014.68 L64.0042 1020.57 L28.3562 1020.57 L28.3562 1014.68 L33.8944 1014.68 Q30.616 1012.68 29.0564 1009.88 Q27.4968 1007.07 27.4968 1003.22 Q27.4968 999.34 29.4702 996.635 Q31.4436 993.898 35.1993 992.593 Z" fill="#000000" fill-rule="nonzero" fill-opacity="1"></path><path clip-path="url(#clip680)" d="M46.212 931.259 Q39.7508 931.259 36.0905 933.933 Q32.3984 936.575 32.3984 941.221 Q32.3984 945.868 36.0905 948.542 Q39.7508 951.184 46.212 951.184 Q52.6732 951.184 56.3653 948.542 Q60.0256 945.868 60.0256 941.221 Q60.0256 936.575 56.3653 933.933 Q52.6732 931.259 46.212 931.259 M33.7671 951.184 Q30.5842 949.338 29.0564 946.537 Q27.4968 943.704 27.4968 939.789 Q27.4968 933.296 32.6531 929.254 Q37.8093 925.18 46.212 925.18 Q54.6147 925.18 59.771 929.254 Q64.9272 933.296 64.9272 939.789 Q64.9272 943.704 63.3994 946.537 Q61.8398 949.338 58.657 951.184 L64.0042 951.184 L64.0042 957.072 L14.479 957.072 L14.479 951.184 L33.7671 951.184 Z" fill="#000000" fill-rule="nonzero" fill-opacity="1"></path><path clip-path="url(#clip680)" d="M44.7161 884.98 L47.5806 884.98 L47.5806 911.907 Q53.6281 911.525 56.8109 908.279 Q59.9619 905.001 59.9619 899.176 Q59.9619 895.802 59.1344 892.651 Q58.3069 889.468 56.6518 886.349 L62.1899 886.349 Q63.5267 889.5 64.227 892.81 Q64.9272 896.12 64.9272 899.526 Q64.9272 908.056 59.9619 913.053 Q54.9967 918.018 46.5303 918.018 Q37.7774 918.018 32.6531 913.308 Q27.4968 908.565 27.4968 900.545 Q27.4968 893.351 32.1438 889.182 Q36.7589 884.98 44.7161 884.98 M42.9973 890.837 Q38.1912 890.901 35.3266 893.542 Q32.4621 896.152 32.4621 900.481 Q32.4621 905.383 35.2312 908.343 Q38.0002 911.271 43.0292 911.716 L42.9973 890.837 Z" fill="#000000" fill-rule="nonzero" fill-opacity="1"></path><path clip-path="url(#clip680)" d="M33.8307 854.712 Q33.2578 855.698 33.0032 856.876 Q32.7167 858.022 32.7167 859.422 Q32.7167 864.387 35.9632 867.061 Q39.1779 869.703 45.2253 869.703 L64.0042 869.703 L64.0042 875.591 L28.3562 875.591 L28.3562 869.703 L33.8944 869.703 Q30.6479 867.857 29.0883 864.897 Q27.4968 861.937 27.4968 857.703 Q27.4968 857.099 27.5923 856.367 Q27.656 855.635 27.8151 854.743 L33.8307 854.712 Z" fill="#000000" fill-rule="nonzero" fill-opacity="1"></path><path clip-path="url(#clip680)" d="M32.4621 814.035 Q32.4621 818.745 36.1542 821.483 Q39.8145 824.22 46.212 824.22 Q52.6095 824.22 56.3017 821.514 Q59.9619 818.777 59.9619 814.035 Q59.9619 809.356 56.2698 806.619 Q52.5777 803.881 46.212 803.881 Q39.8781 803.881 36.186 806.619 Q32.4621 809.356 32.4621 814.035 M27.4968 814.035 Q27.4968 806.396 32.4621 802.035 Q37.4273 797.675 46.212 797.675 Q54.9649 797.675 59.9619 802.035 Q64.9272 806.396 64.9272 814.035 Q64.9272 821.705 59.9619 826.066 Q54.9649 830.395 46.212 830.395 Q37.4273 830.395 32.4621 826.066 Q27.4968 821.705 27.4968 814.035 Z" fill="#000000" fill-rule="nonzero" fill-opacity="1"></path><path clip-path="url(#clip680)" d="M14.479 769.92 L19.3487 769.92 L19.3487 775.522 Q19.3487 778.673 20.6219 779.914 Q21.895 781.124 25.2052 781.124 L28.3562 781.124 L28.3562 771.48 L32.9077 771.48 L32.9077 781.124 L64.0042 781.124 L64.0042 787.012 L32.9077 787.012 L32.9077 792.614 L28.3562 792.614 L28.3562 787.012 L25.8736 787.012 Q19.9216 787.012 17.2162 784.243 Q14.479 781.474 14.479 775.458 L14.479 769.92 Z" fill="#000000" fill-rule="nonzero" fill-opacity="1"></path><path clip-path="url(#clip680)" d="M28.3562 744.298 L28.3562 738.442 L64.0042 738.442 L64.0042 744.298 L28.3562 744.298 M14.479 744.298 L14.479 738.442 L21.895 738.442 L21.895 744.298 L14.479 744.298 Z" fill="#000000" fill-rule="nonzero" fill-opacity="1"></path><path clip-path="url(#clip680)" d="M42.4881 696.556 L64.0042 696.556 L64.0042 702.412 L42.679 702.412 Q37.6183 702.412 35.1038 704.385 Q32.5894 706.359 32.5894 710.305 Q32.5894 715.048 35.6131 717.785 Q38.6368 720.522 43.8567 720.522 L64.0042 720.522 L64.0042 726.411 L28.3562 726.411 L28.3562 720.522 L33.8944 720.522 Q30.6797 718.422 29.0883 715.589 Q27.4968 712.724 27.4968 709.001 Q27.4968 702.858 31.3163 699.707 Q35.1038 696.556 42.4881 696.556 Z" fill="#000000" fill-rule="nonzero" fill-opacity="1"></path><path clip-path="url(#clip680)" d="M14.479 666.828 L19.3487 666.828 L19.3487 672.43 Q19.3487 675.581 20.6219 676.822 Q21.895 678.031 25.2052 678.031 L28.3562 678.031 L28.3562 668.387 L32.9077 668.387 L32.9077 678.031 L64.0042 678.031 L64.0042 683.92 L32.9077 683.92 L32.9077 689.521 L28.3562 689.521 L28.3562 683.92 L25.8736 683.92 Q19.9216 683.92 17.2162 681.151 Q14.479 678.381 14.479 672.366 L14.479 666.828 Z" fill="#000000" fill-rule="nonzero" fill-opacity="1"></path><path clip-path="url(#clip680)" d="M44.7161 631.434 L47.5806 631.434 L47.5806 658.361 Q53.6281 657.979 56.8109 654.733 Q59.9619 651.455 59.9619 645.63 Q59.9619 642.256 59.1344 639.105 Q58.3069 635.922 56.6518 632.803 L62.1899 632.803 Q63.5267 635.954 64.227 639.264 Q64.9272 642.574 64.9272 645.98 Q64.9272 654.51 59.9619 659.507 Q54.9967 664.472 46.5303 664.472 Q37.7774 664.472 32.6531 659.762 Q27.4968 655.019 27.4968 646.999 Q27.4968 639.805 32.1438 635.636 Q36.7589 631.434 44.7161 631.434 M42.9973 637.291 Q38.1912 637.354 35.3266 639.996 Q32.4621 642.606 32.4621 646.935 Q32.4621 651.836 35.2312 654.797 Q38.0002 657.725 43.0292 658.17 L42.9973 637.291 Z" fill="#000000" fill-rule="nonzero" fill-opacity="1"></path><path clip-path="url(#clip680)" d="M29.7248 596.168 L35.1993 596.168 Q33.8307 598.651 33.1623 601.165 Q32.4621 603.648 32.4621 606.194 Q32.4621 611.892 36.0905 615.043 Q39.6872 618.194 46.212 618.194 Q52.7369 618.194 56.3653 615.043 Q59.9619 611.892 59.9619 606.194 Q59.9619 603.648 59.2935 601.165 Q58.5933 598.651 57.2247 596.168 L62.6355 596.168 Q63.7814 598.619 64.3543 601.261 Q64.9272 603.871 64.9272 606.831 Q64.9272 614.884 59.8664 619.626 Q54.8057 624.368 46.212 624.368 Q37.491 624.368 32.4939 619.594 Q27.4968 614.788 27.4968 606.449 Q27.4968 603.744 28.0697 601.165 Q28.6108 598.587 29.7248 596.168 Z" fill="#000000" fill-rule="nonzero" fill-opacity="1"></path><path clip-path="url(#clip680)" d="M18.2347 580.19 L28.3562 580.19 L28.3562 568.127 L32.9077 568.127 L32.9077 580.19 L52.2594 580.19 Q56.6199 580.19 57.8613 579.013 Q59.1026 577.803 59.1026 574.143 L59.1026 568.127 L64.0042 568.127 L64.0042 574.143 Q64.0042 580.923 61.4897 583.501 Q58.9434 586.079 52.2594 586.079 L32.9077 586.079 L32.9077 590.376 L28.3562 590.376 L28.3562 586.079 L18.2347 586.079 L18.2347 580.19 Z" fill="#000000" fill-rule="nonzero" fill-opacity="1"></path><path clip-path="url(#clip680)" d="M28.3562 560.425 L28.3562 554.568 L64.0042 554.568 L64.0042 560.425 L28.3562 560.425 M14.479 560.425 L14.479 554.568 L21.895 554.568 L21.895 560.425 L14.479 560.425 Z" fill="#000000" fill-rule="nonzero" fill-opacity="1"></path><path clip-path="url(#clip680)" d="M32.4621 528.501 Q32.4621 533.212 36.1542 535.949 Q39.8145 538.686 46.212 538.686 Q52.6095 538.686 56.3017 535.981 Q59.9619 533.243 59.9619 528.501 Q59.9619 523.822 56.2698 521.085 Q52.5777 518.348 46.212 518.348 Q39.8781 518.348 36.186 521.085 Q32.4621 523.822 32.4621 528.501 M27.4968 528.501 Q27.4968 520.862 32.4621 516.502 Q37.4273 512.141 46.212 512.141 Q54.9649 512.141 59.9619 516.502 Q64.9272 520.862 64.9272 528.501 Q64.9272 536.172 59.9619 540.532 Q54.9649 544.861 46.212 544.861 Q37.4273 544.861 32.4621 540.532 Q27.4968 536.172 27.4968 528.501 Z" fill="#000000" fill-rule="nonzero" fill-opacity="1"></path><path clip-path="url(#clip680)" d="M42.4881 472.801 L64.0042 472.801 L64.0042 478.657 L42.679 478.657 Q37.6183 478.657 35.1038 480.631 Q32.5894 482.604 32.5894 486.551 Q32.5894 491.293 35.6131 494.031 Q38.6368 496.768 43.8567 496.768 L64.0042 496.768 L64.0042 502.656 L28.3562 502.656 L28.3562 496.768 L33.8944 496.768 Q30.6797 494.667 29.0883 491.834 Q27.4968 488.97 27.4968 485.246 Q27.4968 479.103 31.3163 475.952 Q35.1038 472.801 42.4881 472.801 Z" fill="#000000" fill-rule="nonzero" fill-opacity="1"></path><path clip-path="url(#clip680)" d="M29.4065 438.394 L34.9447 438.394 Q33.6716 440.877 33.035 443.551 Q32.3984 446.224 32.3984 449.089 Q32.3984 453.449 33.7352 455.645 Q35.072 457.81 37.7456 457.81 Q39.7826 457.81 40.9603 456.25 Q42.1061 454.691 43.1565 449.98 L43.6021 447.975 Q44.9389 441.736 47.3897 439.126 Q49.8086 436.485 54.1691 436.485 Q59.1344 436.485 62.0308 440.431 Q64.9272 444.346 64.9272 451.221 Q64.9272 454.086 64.3543 457.205 Q63.8132 460.292 62.6992 463.73 L56.6518 463.73 Q58.3387 460.483 59.198 457.332 Q60.0256 454.181 60.0256 451.094 Q60.0256 446.956 58.6251 444.728 Q57.1929 442.5 54.6147 442.5 Q52.2276 442.5 50.9545 444.123 Q49.6813 445.715 48.5037 451.158 L48.0262 453.195 Q46.8804 458.637 44.5251 461.056 Q42.138 463.475 38.0002 463.475 Q32.9713 463.475 30.2341 459.91 Q27.4968 456.346 27.4968 449.789 Q27.4968 446.542 27.9743 443.678 Q28.4517 440.813 29.4065 438.394 Z" fill="#000000" fill-rule="nonzero" fill-opacity="1"></path><path clip-path="url(#clip680)" d="M519.715 20.1573 L508.616 50.2555 L530.855 50.2555 L519.715 20.1573 M515.097 12.096 L524.374 12.096 L547.423 72.576 L538.916 72.576 L533.407 57.061 L506.145 57.061 L500.635 72.576 L492.007 72.576 L515.097 12.096 Z" fill="#000000" fill-rule="nonzero" fill-opacity="1"></path><path clip-path="url(#clip680)" d="M587.122 28.9478 L587.122 35.9153 Q583.962 34.1734 580.762 33.3227 Q577.602 32.4315 574.362 32.4315 Q567.111 32.4315 563.1 37.0496 Q559.09 41.6271 559.09 49.9314 Q559.09 58.2358 563.1 62.8538 Q567.111 67.4314 574.362 67.4314 Q577.602 67.4314 580.762 66.5807 Q583.962 65.6895 587.122 63.9476 L587.122 70.8341 Q584.003 72.2924 580.641 73.0216 Q577.319 73.7508 573.552 73.7508 Q563.303 73.7508 557.267 67.3098 Q551.231 60.8689 551.231 49.9314 Q551.231 38.832 557.307 32.472 Q563.424 26.1121 574.038 26.1121 Q577.481 26.1121 580.762 26.8413 Q584.043 27.5299 587.122 28.9478 Z" fill="#000000" fill-rule="nonzero" fill-opacity="1"></path><path clip-path="url(#clip680)" d="M607.458 14.324 L607.458 27.2059 L622.811 27.2059 L622.811 32.9987 L607.458 32.9987 L607.458 57.6282 Q607.458 63.1779 608.956 64.7578 Q610.496 66.3376 615.154 66.3376 L622.811 66.3376 L622.811 72.576 L615.154 72.576 Q606.526 72.576 603.245 69.3758 Q599.963 66.1351 599.963 57.6282 L599.963 32.9987 L594.495 32.9987 L594.495 27.2059 L599.963 27.2059 L599.963 14.324 L607.458 14.324 Z" fill="#000000" fill-rule="nonzero" fill-opacity="1"></path><path clip-path="url(#clip680)" d="M631.844 54.671 L631.844 27.2059 L639.298 27.2059 L639.298 54.3874 Q639.298 60.8284 641.809 64.0691 Q644.321 67.2693 649.344 67.2693 Q655.38 67.2693 658.864 63.421 Q662.388 59.5726 662.388 52.9291 L662.388 27.2059 L669.842 27.2059 L669.842 72.576 L662.388 72.576 L662.388 65.6084 Q659.674 69.7404 656.069 71.7658 Q652.504 73.7508 647.764 73.7508 Q639.946 73.7508 635.895 68.8897 Q631.844 64.0286 631.844 54.671 M650.6 26.1121 L650.6 26.1121 Z" fill="#000000" fill-rule="nonzero" fill-opacity="1"></path><path clip-path="url(#clip680)" d="M705.814 49.7694 Q696.78 49.7694 693.296 51.8354 Q689.813 53.9013 689.813 58.8839 Q689.813 62.8538 692.405 65.2034 Q695.038 67.5124 699.535 67.5124 Q705.733 67.5124 709.459 63.1374 Q713.227 58.7219 713.227 51.4303 L713.227 49.7694 L705.814 49.7694 M720.68 46.6907 L720.68 72.576 L713.227 72.576 L713.227 65.6895 Q710.675 69.8214 706.867 71.8063 Q703.059 73.7508 697.55 73.7508 Q690.582 73.7508 686.45 69.8619 Q682.359 65.9325 682.359 59.3701 Q682.359 51.7138 687.463 47.825 Q692.608 43.9361 702.775 43.9361 L713.227 43.9361 L713.227 43.2069 Q713.227 38.0623 709.824 35.2672 Q706.462 32.4315 700.345 32.4315 Q696.456 32.4315 692.77 33.3632 Q689.083 34.295 685.681 36.1584 L685.681 29.2718 Q689.772 27.692 693.62 26.9223 Q697.469 26.1121 701.115 26.1121 Q710.958 26.1121 715.819 31.2163 Q720.68 36.3204 720.68 46.6907 Z" fill="#000000" fill-rule="nonzero" fill-opacity="1"></path><path clip-path="url(#clip680)" d="M736.033 9.54393 L743.487 9.54393 L743.487 72.576 L736.033 72.576 L736.033 9.54393 Z" fill="#000000" fill-rule="nonzero" fill-opacity="1"></path><path clip-path="url(#clip680)" d="M780.107 27.2059 L788.006 27.2059 L802.185 65.2844 L816.363 27.2059 L824.262 27.2059 L807.248 72.576 L797.121 72.576 L780.107 27.2059 Z" fill="#000000" fill-rule="nonzero" fill-opacity="1"></path><path clip-path="url(#clip680)" d="M863.475 28.5427 L863.475 35.5912 Q860.315 33.9709 856.912 33.1607 Q853.51 32.3505 849.864 32.3505 Q844.314 32.3505 841.519 34.0519 Q838.764 35.7533 838.764 39.156 Q838.764 41.7486 840.749 43.2475 Q842.734 44.7058 848.73 46.0426 L851.282 46.6097 Q859.221 48.3111 862.543 51.4303 Q865.905 54.509 865.905 60.0587 Q865.905 66.3781 860.882 70.0644 Q855.9 73.7508 847.15 73.7508 Q843.504 73.7508 839.534 73.0216 Q835.605 72.3329 831.23 70.9151 L831.23 63.2184 Q835.362 65.3654 839.372 66.4591 Q843.382 67.5124 847.312 67.5124 Q852.578 67.5124 855.414 65.73 Q858.249 63.9071 858.249 60.6258 Q858.249 57.5877 856.183 55.9673 Q854.158 54.3469 847.231 52.8481 L844.638 52.2405 Q837.711 50.7821 834.632 47.7845 Q831.554 44.7463 831.554 39.4801 Q831.554 33.0797 836.091 29.5959 Q840.628 26.1121 848.973 26.1121 Q853.104 26.1121 856.75 26.7198 Q860.396 27.3274 863.475 28.5427 Z" fill="#000000" fill-rule="nonzero" fill-opacity="1"></path><path clip-path="url(#clip680)" d="M904.47 12.096 L942.71 12.096 L942.71 18.9825 L912.653 18.9825 L912.653 36.8875 L941.455 36.8875 L941.455 43.7741 L912.653 43.7741 L912.653 65.6895 L943.44 65.6895 L943.44 72.576 L904.47 72.576 L904.47 12.096 Z" fill="#000000" fill-rule="nonzero" fill-opacity="1"></path><path clip-path="url(#clip680)" d="M985.488 28.5427 L985.488 35.5912 Q982.328 33.9709 978.926 33.1607 Q975.523 32.3505 971.877 32.3505 Q966.327 32.3505 963.532 34.0519 Q960.778 35.7533 960.778 39.156 Q960.778 41.7486 962.762 43.2475 Q964.747 44.7058 970.743 46.0426 L973.295 46.6097 Q981.235 48.3111 984.556 51.4303 Q987.919 54.509 987.919 60.0587 Q987.919 66.3781 982.895 70.0644 Q977.913 73.7508 969.163 73.7508 Q965.517 73.7508 961.547 73.0216 Q957.618 72.3329 953.243 70.9151 L953.243 63.2184 Q957.375 65.3654 961.385 66.4591 Q965.396 67.5124 969.325 67.5124 Q974.591 67.5124 977.427 65.73 Q980.262 63.9071 980.262 60.6258 Q980.262 57.5877 978.196 55.9673 Q976.171 54.3469 969.244 52.8481 L966.651 52.2405 Q959.724 50.7821 956.646 47.7845 Q953.567 44.7463 953.567 39.4801 Q953.567 33.0797 958.104 29.5959 Q962.641 26.1121 970.986 26.1121 Q975.118 26.1121 978.764 26.7198 Q982.409 27.3274 985.488 28.5427 Z" fill="#000000" fill-rule="nonzero" fill-opacity="1"></path><path clip-path="url(#clip680)" d="M1007.16 14.324 L1007.16 27.2059 L1022.51 27.2059 L1022.51 32.9987 L1007.16 32.9987 L1007.16 57.6282 Q1007.16 63.1779 1008.66 64.7578 Q1010.2 66.3376 1014.86 66.3376 L1022.51 66.3376 L1022.51 72.576 L1014.86 72.576 Q1006.23 72.576 1002.95 69.3758 Q999.666 66.1351 999.666 57.6282 L999.666 32.9987 L994.197 32.9987 L994.197 27.2059 L999.666 27.2059 L999.666 14.324 L1007.16 14.324 Z" fill="#000000" fill-rule="nonzero" fill-opacity="1"></path><path clip-path="url(#clip680)" d="M1032.32 27.2059 L1039.77 27.2059 L1039.77 72.576 L1032.32 72.576 L1032.32 27.2059 M1032.32 9.54393 L1039.77 9.54393 L1039.77 18.9825 L1032.32 18.9825 L1032.32 9.54393 Z" fill="#000000" fill-rule="nonzero" fill-opacity="1"></path><path clip-path="url(#clip680)" d="M1090.69 35.9153 Q1093.49 30.8922 1097.37 28.5022 Q1101.26 26.1121 1106.53 26.1121 Q1113.62 26.1121 1117.47 31.0947 Q1121.31 36.0368 1121.31 45.1919 L1121.31 72.576 L1113.82 72.576 L1113.82 45.4349 Q1113.82 38.913 1111.51 35.7533 Q1109.2 32.5936 1104.46 32.5936 Q1098.67 32.5936 1095.31 36.4419 Q1091.95 40.2903 1091.95 46.9338 L1091.95 72.576 L1084.45 72.576 L1084.45 45.4349 Q1084.45 38.8725 1082.14 35.7533 Q1079.83 32.5936 1075.01 32.5936 Q1069.3 32.5936 1065.94 36.4824 Q1062.58 40.3308 1062.58 46.9338 L1062.58 72.576 L1055.08 72.576 L1055.08 27.2059 L1062.58 27.2059 L1062.58 34.2544 Q1065.13 30.082 1068.69 28.0971 Q1072.26 26.1121 1077.16 26.1121 Q1082.1 26.1121 1085.55 28.6237 Q1089.03 31.1352 1090.69 35.9153 Z" fill="#000000" fill-rule="nonzero" fill-opacity="1"></path><path clip-path="url(#clip680)" d="M1156.8 49.7694 Q1147.77 49.7694 1144.28 51.8354 Q1140.8 53.9013 1140.8 58.8839 Q1140.8 62.8538 1143.39 65.2034 Q1146.03 67.5124 1150.52 67.5124 Q1156.72 67.5124 1160.45 63.1374 Q1164.21 58.7219 1164.21 51.4303 L1164.21 49.7694 L1156.8 49.7694 M1171.67 46.6907 L1171.67 72.576 L1164.21 72.576 L1164.21 65.6895 Q1161.66 69.8214 1157.85 71.8063 Q1154.05 73.7508 1148.54 73.7508 Q1141.57 73.7508 1137.44 69.8619 Q1133.35 65.9325 1133.35 59.3701 Q1133.35 51.7138 1138.45 47.825 Q1143.59 43.9361 1153.76 43.9361 L1164.21 43.9361 L1164.21 43.2069 Q1164.21 38.0623 1160.81 35.2672 Q1157.45 32.4315 1151.33 32.4315 Q1147.44 32.4315 1143.76 33.3632 Q1140.07 34.295 1136.67 36.1584 L1136.67 29.2718 Q1140.76 27.692 1144.61 26.9223 Q1148.46 26.1121 1152.1 26.1121 Q1161.95 26.1121 1166.81 31.2163 Q1171.67 36.3204 1171.67 46.6907 Z" fill="#000000" fill-rule="nonzero" fill-opacity="1"></path><path clip-path="url(#clip680)" d="M1194.39 14.324 L1194.39 27.2059 L1209.75 27.2059 L1209.75 32.9987 L1194.39 32.9987 L1194.39 57.6282 Q1194.39 63.1779 1195.89 64.7578 Q1197.43 66.3376 1202.09 66.3376 L1209.75 66.3376 L1209.75 72.576 L1202.09 72.576 Q1193.46 72.576 1190.18 69.3758 Q1186.9 66.1351 1186.9 57.6282 L1186.9 32.9987 L1181.43 32.9987 L1181.43 27.2059 L1186.9 27.2059 L1186.9 14.324 L1194.39 14.324 Z" fill="#000000" fill-rule="nonzero" fill-opacity="1"></path><path clip-path="url(#clip680)" d="M1258.36 48.0275 L1258.36 51.6733 L1224.09 51.6733 Q1224.57 59.3701 1228.7 63.421 Q1232.88 67.4314 1240.29 67.4314 Q1244.58 67.4314 1248.59 66.3781 Q1252.65 65.3249 1256.62 63.2184 L1256.62 70.267 Q1252.6 71.9684 1248.39 72.8596 Q1244.18 73.7508 1239.84 73.7508 Q1228.99 73.7508 1222.63 67.4314 Q1216.31 61.1119 1216.31 50.3365 Q1216.31 39.1965 1222.3 32.6746 Q1228.34 26.1121 1238.55 26.1121 Q1247.7 26.1121 1253.01 32.0264 Q1258.36 37.9003 1258.36 48.0275 M1250.9 45.84 Q1250.82 39.7232 1247.46 36.0774 Q1244.14 32.4315 1238.63 32.4315 Q1232.39 32.4315 1228.62 35.9558 Q1224.9 39.4801 1224.33 45.8805 L1250.9 45.84 Z" fill="#000000" fill-rule="nonzero" fill-opacity="1"></path><path clip-path="url(#clip680)" d="M1300.45 34.0924 L1300.45 9.54393 L1307.9 9.54393 L1307.9 72.576 L1300.45 72.576 L1300.45 65.7705 Q1298.1 69.8214 1294.49 71.8063 Q1290.93 73.7508 1285.9 73.7508 Q1277.68 73.7508 1272.49 67.1883 Q1267.35 60.6258 1267.35 49.9314 Q1267.35 39.2371 1272.49 32.6746 Q1277.68 26.1121 1285.9 26.1121 Q1290.93 26.1121 1294.49 28.0971 Q1298.1 30.0415 1300.45 34.0924 M1275.05 49.9314 Q1275.05 58.1548 1278.41 62.8538 Q1281.81 67.5124 1287.73 67.5124 Q1293.64 67.5124 1297.04 62.8538 Q1300.45 58.1548 1300.45 49.9314 Q1300.45 41.7081 1297.04 37.0496 Q1293.64 32.3505 1287.73 32.3505 Q1281.81 32.3505 1278.41 37.0496 Q1275.05 41.7081 1275.05 49.9314 Z" fill="#000000" fill-rule="nonzero" fill-opacity="1"></path><path clip-path="url(#clip680)" d="M1387.34 45.1919 L1387.34 72.576 L1379.88 72.576 L1379.88 45.4349 Q1379.88 38.994 1377.37 35.7938 Q1374.86 32.5936 1369.84 32.5936 Q1363.8 32.5936 1360.32 36.4419 Q1356.83 40.2903 1356.83 46.9338 L1356.83 72.576 L1349.34 72.576 L1349.34 27.2059 L1356.83 27.2059 L1356.83 34.2544 Q1359.51 30.163 1363.11 28.1376 Q1366.76 26.1121 1371.5 26.1121 Q1379.32 26.1121 1383.33 30.9732 Q1387.34 35.7938 1387.34 45.1919 Z" fill="#000000" fill-rule="nonzero" fill-opacity="1"></path><path clip-path="url(#clip680)" d="M1401.43 54.671 L1401.43 27.2059 L1408.89 27.2059 L1408.89 54.3874 Q1408.89 60.8284 1411.4 64.0691 Q1413.91 67.2693 1418.93 67.2693 Q1424.97 67.2693 1428.45 63.421 Q1431.98 59.5726 1431.98 52.9291 L1431.98 27.2059 L1439.43 27.2059 L1439.43 72.576 L1431.98 72.576 L1431.98 65.6084 Q1429.26 69.7404 1425.66 71.7658 Q1422.09 73.7508 1417.35 73.7508 Q1409.54 73.7508 1405.49 68.8897 Q1401.43 64.0286 1401.43 54.671 M1420.19 26.1121 L1420.19 26.1121 Z" fill="#000000" fill-rule="nonzero" fill-opacity="1"></path><path clip-path="url(#clip680)" d="M1490.11 35.9153 Q1492.9 30.8922 1496.79 28.5022 Q1500.68 26.1121 1505.95 26.1121 Q1513.04 26.1121 1516.89 31.0947 Q1520.73 36.0368 1520.73 45.1919 L1520.73 72.576 L1513.24 72.576 L1513.24 45.4349 Q1513.24 38.913 1510.93 35.7533 Q1508.62 32.5936 1503.88 32.5936 Q1498.09 32.5936 1494.73 36.4419 Q1491.36 40.2903 1491.36 46.9338 L1491.36 72.576 L1483.87 72.576 L1483.87 45.4349 Q1483.87 38.8725 1481.56 35.7533 Q1479.25 32.5936 1474.43 32.5936 Q1468.72 32.5936 1465.36 36.4824 Q1462 40.3308 1462 46.9338 L1462 72.576 L1454.5 72.576 L1454.5 27.2059 L1462 27.2059 L1462 34.2544 Q1464.55 30.082 1468.11 28.0971 Q1471.68 26.1121 1476.58 26.1121 Q1481.52 26.1121 1484.96 28.6237 Q1488.45 31.1352 1490.11 35.9153 Z" fill="#000000" fill-rule="nonzero" fill-opacity="1"></path><path clip-path="url(#clip680)" d="M1568.17 49.9314 Q1568.17 41.7081 1564.77 37.0496 Q1561.41 32.3505 1555.49 32.3505 Q1549.58 32.3505 1546.17 37.0496 Q1542.81 41.7081 1542.81 49.9314 Q1542.81 58.1548 1546.17 62.8538 Q1549.58 67.5124 1555.49 67.5124 Q1561.41 67.5124 1564.77 62.8538 Q1568.17 58.1548 1568.17 49.9314 M1542.81 34.0924 Q1545.16 30.0415 1548.73 28.0971 Q1552.33 26.1121 1557.31 26.1121 Q1565.58 26.1121 1570.72 32.6746 Q1575.91 39.2371 1575.91 49.9314 Q1575.91 60.6258 1570.72 67.1883 Q1565.58 73.7508 1557.31 73.7508 Q1552.33 73.7508 1548.73 71.8063 Q1545.16 69.8214 1542.81 65.7705 L1542.81 72.576 L1535.32 72.576 L1535.32 9.54393 L1542.81 9.54393 L1542.81 34.0924 Z" fill="#000000" fill-rule="nonzero" fill-opacity="1"></path><path clip-path="url(#clip680)" d="M1627.07 48.0275 L1627.07 51.6733 L1592.8 51.6733 Q1593.29 59.3701 1597.42 63.421 Q1601.59 67.4314 1609 67.4314 Q1613.3 67.4314 1617.31 66.3781 Q1621.36 65.3249 1625.33 63.2184 L1625.33 70.267 Q1621.32 71.9684 1617.11 72.8596 Q1612.89 73.7508 1608.56 73.7508 Q1597.7 73.7508 1591.34 67.4314 Q1585.02 61.1119 1585.02 50.3365 Q1585.02 39.1965 1591.02 32.6746 Q1597.05 26.1121 1607.26 26.1121 Q1616.42 26.1121 1621.72 32.0264 Q1627.07 37.9003 1627.07 48.0275 M1619.62 45.84 Q1619.54 39.7232 1616.17 36.0774 Q1612.85 32.4315 1607.34 32.4315 Q1601.1 32.4315 1597.34 35.9558 Q1593.61 39.4801 1593.04 45.8805 L1619.62 45.84 Z" fill="#000000" fill-rule="nonzero" fill-opacity="1"></path><path clip-path="url(#clip680)" d="M1665.59 34.1734 Q1664.34 33.4443 1662.84 33.1202 Q1661.38 32.7556 1659.6 32.7556 Q1653.28 32.7556 1649.88 36.8875 Q1646.51 40.9789 1646.51 48.6757 L1646.51 72.576 L1639.02 72.576 L1639.02 27.2059 L1646.51 27.2059 L1646.51 34.2544 Q1648.86 30.1225 1652.63 28.1376 Q1656.4 26.1121 1661.79 26.1121 Q1662.56 26.1121 1663.49 26.2337 Q1664.42 26.3147 1665.55 26.5172 L1665.59 34.1734 Z" fill="#000000" fill-rule="nonzero" fill-opacity="1"></path><path clip-path="url(#clip680)" d="M1717.36 32.4315 Q1711.37 32.4315 1707.89 37.1306 Q1704.4 41.7891 1704.4 49.9314 Q1704.4 58.0738 1707.85 62.7728 Q1711.33 67.4314 1717.36 67.4314 Q1723.32 67.4314 1726.8 62.7323 Q1730.29 58.0333 1730.29 49.9314 Q1730.29 41.8701 1726.8 37.1711 Q1723.32 32.4315 1717.36 32.4315 M1717.36 26.1121 Q1727.09 26.1121 1732.64 32.4315 Q1738.19 38.7509 1738.19 49.9314 Q1738.19 61.0714 1732.64 67.4314 Q1727.09 73.7508 1717.36 73.7508 Q1707.6 73.7508 1702.05 67.4314 Q1696.54 61.0714 1696.54 49.9314 Q1696.54 38.7509 1702.05 32.4315 Q1707.6 26.1121 1717.36 26.1121 Z" fill="#000000" fill-rule="nonzero" fill-opacity="1"></path><path clip-path="url(#clip680)" d="M1773.51 9.54393 L1773.51 15.7418 L1766.38 15.7418 Q1762.37 15.7418 1760.79 17.3622 Q1759.25 18.9825 1759.25 23.1955 L1759.25 27.2059 L1771.53 27.2059 L1771.53 32.9987 L1759.25 32.9987 L1759.25 72.576 L1751.76 72.576 L1751.76 32.9987 L1744.63 32.9987 L1744.63 27.2059 L1751.76 27.2059 L1751.76 24.0462 Q1751.76 16.471 1755.28 13.0277 Q1758.81 9.54393 1766.46 9.54393 L1773.51 9.54393 Z" fill="#000000" fill-rule="nonzero" fill-opacity="1"></path><path clip-path="url(#clip680)" d="M1806.12 27.2059 L1813.57 27.2059 L1813.57 72.576 L1806.12 72.576 L1806.12 27.2059 M1806.12 9.54393 L1813.57 9.54393 L1813.57 18.9825 L1806.12 18.9825 L1806.12 9.54393 Z" fill="#000000" fill-rule="nonzero" fill-opacity="1"></path><path clip-path="url(#clip680)" d="M1866.88 45.1919 L1866.88 72.576 L1859.43 72.576 L1859.43 45.4349 Q1859.43 38.994 1856.92 35.7938 Q1854.41 32.5936 1849.38 32.5936 Q1843.35 32.5936 1839.86 36.4419 Q1836.38 40.2903 1836.38 46.9338 L1836.38 72.576 L1828.89 72.576 L1828.89 27.2059 L1836.38 27.2059 L1836.38 34.2544 Q1839.05 30.163 1842.66 28.1376 Q1846.31 26.1121 1851.04 26.1121 Q1858.86 26.1121 1862.87 30.9732 Q1866.88 35.7938 1866.88 45.1919 Z" fill="#000000" fill-rule="nonzero" fill-opacity="1"></path><path clip-path="url(#clip680)" d="M1904.72 9.54393 L1904.72 15.7418 L1897.59 15.7418 Q1893.58 15.7418 1892 17.3622 Q1890.46 18.9825 1890.46 23.1955 L1890.46 27.2059 L1902.73 27.2059 L1902.73 32.9987 L1890.46 32.9987 L1890.46 72.576 L1882.97 72.576 L1882.97 32.9987 L1875.84 32.9987 L1875.84 27.2059 L1882.97 27.2059 L1882.97 24.0462 Q1882.97 16.471 1886.49 13.0277 Q1890.01 9.54393 1897.67 9.54393 L1904.72 9.54393 Z" fill="#000000" fill-rule="nonzero" fill-opacity="1"></path><path clip-path="url(#clip680)" d="M1949.77 48.0275 L1949.77 51.6733 L1915.49 51.6733 Q1915.98 59.3701 1920.11 63.421 Q1924.29 67.4314 1931.7 67.4314 Q1935.99 67.4314 1940 66.3781 Q1944.05 65.3249 1948.02 63.2184 L1948.02 70.267 Q1944.01 71.9684 1939.8 72.8596 Q1935.59 73.7508 1931.25 73.7508 Q1920.4 73.7508 1914.04 67.4314 Q1907.72 61.1119 1907.72 50.3365 Q1907.72 39.1965 1913.71 32.6746 Q1919.75 26.1121 1929.96 26.1121 Q1939.11 26.1121 1944.42 32.0264 Q1949.77 37.9003 1949.77 48.0275 M1942.31 45.84 Q1942.23 39.7232 1938.87 36.0774 Q1935.55 32.4315 1930.04 32.4315 Q1923.8 32.4315 1920.03 35.9558 Q1916.3 39.4801 1915.74 45.8805 L1942.31 45.84 Z" fill="#000000" fill-rule="nonzero" fill-opacity="1"></path><path clip-path="url(#clip680)" d="M1994.65 28.9478 L1994.65 35.9153 Q1991.49 34.1734 1988.29 33.3227 Q1985.13 32.4315 1981.89 32.4315 Q1974.64 32.4315 1970.63 37.0496 Q1966.62 41.6271 1966.62 49.9314 Q1966.62 58.2358 1970.63 62.8538 Q1974.64 67.4314 1981.89 67.4314 Q1985.13 67.4314 1988.29 66.5807 Q1991.49 65.6895 1994.65 63.9476 L1994.65 70.8341 Q1991.53 72.2924 1988.17 73.0216 Q1984.85 73.7508 1981.08 73.7508 Q1970.83 73.7508 1964.79 67.3098 Q1958.76 60.8689 1958.76 49.9314 Q1958.76 38.832 1964.83 32.472 Q1970.95 26.1121 1981.56 26.1121 Q1985.01 26.1121 1988.29 26.8413 Q1991.57 27.5299 1994.65 28.9478 Z" fill="#000000" fill-rule="nonzero" fill-opacity="1"></path><path clip-path="url(#clip680)" d="M2014.98 14.324 L2014.98 27.2059 L2030.34 27.2059 L2030.34 32.9987 L2014.98 32.9987 L2014.98 57.6282 Q2014.98 63.1779 2016.48 64.7578 Q2018.02 66.3376 2022.68 66.3376 L2030.34 66.3376 L2030.34 72.576 L2022.68 72.576 Q2014.05 72.576 2010.77 69.3758 Q2007.49 66.1351 2007.49 57.6282 L2007.49 32.9987 L2002.02 32.9987 L2002.02 27.2059 L2007.49 27.2059 L2007.49 14.324 L2014.98 14.324 Z" fill="#000000" fill-rule="nonzero" fill-opacity="1"></path><path clip-path="url(#clip680)" d="M2040.14 27.2059 L2047.59 27.2059 L2047.59 72.576 L2040.14 72.576 L2040.14 27.2059 M2040.14 9.54393 L2047.59 9.54393 L2047.59 18.9825 L2040.14 18.9825 L2040.14 9.54393 Z" fill="#000000" fill-rule="nonzero" fill-opacity="1"></path><path clip-path="url(#clip680)" d="M2080.77 32.4315 Q2074.78 32.4315 2071.29 37.1306 Q2067.81 41.7891 2067.81 49.9314 Q2067.81 58.0738 2071.25 62.7728 Q2074.74 67.4314 2080.77 67.4314 Q2086.73 67.4314 2090.21 62.7323 Q2093.69 58.0333 2093.69 49.9314 Q2093.69 41.8701 2090.21 37.1711 Q2086.73 32.4315 2080.77 32.4315 M2080.77 26.1121 Q2090.49 26.1121 2096.04 32.4315 Q2101.59 38.7509 2101.59 49.9314 Q2101.59 61.0714 2096.04 67.4314 Q2090.49 73.7508 2080.77 73.7508 Q2071.01 73.7508 2065.46 67.4314 Q2059.95 61.0714 2059.95 49.9314 Q2059.95 38.7509 2065.46 32.4315 Q2071.01 26.1121 2080.77 26.1121 Z" fill="#000000" fill-rule="nonzero" fill-opacity="1"></path><path clip-path="url(#clip680)" d="M2151.66 45.1919 L2151.66 72.576 L2144.21 72.576 L2144.21 45.4349 Q2144.21 38.994 2141.7 35.7938 Q2139.19 32.5936 2134.16 32.5936 Q2128.13 32.5936 2124.64 36.4419 Q2121.16 40.2903 2121.16 46.9338 L2121.16 72.576 L2113.66 72.576 L2113.66 27.2059 L2121.16 27.2059 L2121.16 34.2544 Q2123.83 30.163 2127.44 28.1376 Q2131.08 26.1121 2135.82 26.1121 Q2143.64 26.1121 2147.65 30.9732 Q2151.66 35.7938 2151.66 45.1919 Z" fill="#000000" fill-rule="nonzero" fill-opacity="1"></path><path clip-path="url(#clip680)" d="M2195.45 28.5427 L2195.45 35.5912 Q2192.29 33.9709 2188.89 33.1607 Q2185.49 32.3505 2181.84 32.3505 Q2176.29 32.3505 2173.5 34.0519 Q2170.74 35.7533 2170.74 39.156 Q2170.74 41.7486 2172.73 43.2475 Q2174.71 44.7058 2180.71 46.0426 L2183.26 46.6097 Q2191.2 48.3111 2194.52 51.4303 Q2197.88 54.509 2197.88 60.0587 Q2197.88 66.3781 2192.86 70.0644 Q2187.88 73.7508 2179.13 73.7508 Q2175.48 73.7508 2171.51 73.0216 Q2167.58 72.3329 2163.21 70.9151 L2163.21 63.2184 Q2167.34 65.3654 2171.35 66.4591 Q2175.36 67.5124 2179.29 67.5124 Q2184.56 67.5124 2187.39 65.73 Q2190.23 63.9071 2190.23 60.6258 Q2190.23 57.5877 2188.16 55.9673 Q2186.14 54.3469 2179.21 52.8481 L2176.62 52.2405 Q2169.69 50.7821 2166.61 47.7845 Q2163.53 44.7463 2163.53 39.4801 Q2163.53 33.0797 2168.07 29.5959 Q2172.61 26.1121 2180.95 26.1121 Q2185.08 26.1121 2188.73 26.7198 Q2192.37 27.3274 2195.45 28.5427 Z" fill="#000000" fill-rule="nonzero" fill-opacity="1"></path><polyline clip-path="url(#clip682)" style="stroke:#009af9; stroke-linecap:round; stroke-linejoin:round; stroke-width:4; stroke-opacity:1; fill:none" points="394.18,1386.4 453.088,1386.4 478.252,1386.4 520.14,1386.4 553.292,1386.4 563.026,1386.4 601.898,1386.4 658.496,1386.4 689.745,1386.4 753.439,1386.4 795.934,1386.4 839.082,1386.4 951.078,1386.4 994.551,1386.4 1000.02,1386.4 1016.28,1386.4 1071.74,1386.4 1085.07,1386.4 1099.62,1386.4 1194.92,1386.4 1242.45,1386.4 1242.62,1386.4 1257.34,1386.4 1332.53,1386.4 1404.78,1386.4 1504.89,1386.4 1563.81,1386.4 1579.13,1386.4 1687.89,1386.4 1721.21,1386.4 1754.21,1386.4 1785.78,1386.4 1818.53,1386.4 1902.47,1386.4 1907.93,1386.4 1972.45,1386.4 1990.71,1386.4 2004.18,1386.4 2004.75,1386.4 2023.6,1386.4 2051.53,1386.4 2096.23,1386.4 2122.65,1386.4 2144.32,1386.4 2295.71,1386.4 "></polyline>
<polyline clip-path="url(#clip682)" style="stroke:#e26f46; stroke-linecap:round; stroke-linejoin:round; stroke-width:4; stroke-opacity:1; fill:none" points="394.18,1386.39 453.088,1386.39 478.252,1386.38 520.14,1386.38 553.292,1386.37 563.026,1386.36 601.898,1386.35 658.496,1386.33 689.745,1386.31 753.439,1386.28 795.934,1386.31 839.082,1386.31 951.078,1386.28 994.551,1386.19 1000.02,1386.22 1016.28,1386.13 1071.74,1386.15 1085.07,1386.09 1099.62,1385.84 1194.92,1385.56 1242.45,1385.55 1242.62,1385.74 1257.34,1385.8 1332.53,1385.22 1404.78,1384.02 1504.89,1382.57 1563.81,1381.01 1579.13,1376.33 1687.89,1375.26 1721.21,1367.34 1754.21,1356.2 1785.78,1367.83 1818.53,1356.06 1902.47,1348.08 1907.93,1307.49 1972.45,1269.47 1990.71,1257.3 2004.18,1200.48 2004.75,1185.48 2023.6,1022.27 2051.53,765.076 2096.23,590.978 2122.65,566.295 2144.32,365.9 2295.71,160.256 "></polyline>
<path clip-path="url(#clip680)" d="M404.322 322.316 L1344.98 322.316 L1344.98 166.796 L404.322 166.796  Z" fill="#ffffff" fill-rule="evenodd" fill-opacity="1"></path>
<polyline clip-path="url(#clip680)" style="stroke:#000000; stroke-linecap:round; stroke-linejoin:round; stroke-width:4; stroke-opacity:1; fill:none" points="404.322,322.316 1344.98,322.316 1344.98,166.796 404.322,166.796 404.322,322.316 "></polyline>
<polyline clip-path="url(#clip680)" style="stroke:#009af9; stroke-linecap:round; stroke-linejoin:round; stroke-width:4; stroke-opacity:1; fill:none" points="426.717,218.636 561.092,218.636 "></polyline>
<path clip-path="url(#clip680)" d="M599.321 205.962 L592.979 223.161 L605.687 223.161 L599.321 205.962 M596.682 201.356 L601.983 201.356 L615.154 235.916 L610.293 235.916 L607.145 227.05 L591.567 227.05 L588.418 235.916 L583.488 235.916 L596.682 201.356 Z" fill="#000000" fill-rule="nonzero" fill-opacity="1"></path><path clip-path="url(#clip680)" d="M637.839 210.985 L637.839 214.967 Q636.034 213.971 634.205 213.485 Q632.4 212.976 630.548 212.976 Q626.404 212.976 624.113 215.615 Q621.821 218.231 621.821 222.976 Q621.821 227.721 624.113 230.36 Q626.404 232.976 630.548 232.976 Q632.4 232.976 634.205 232.49 Q636.034 231.981 637.839 230.985 L637.839 234.92 Q636.057 235.754 634.136 236.17 Q632.238 236.587 630.085 236.587 Q624.228 236.587 620.779 232.906 Q617.33 229.226 617.33 222.976 Q617.33 216.633 620.803 212.999 Q624.298 209.365 630.363 209.365 Q632.33 209.365 634.205 209.782 Q636.08 210.175 637.839 210.985 Z" fill="#000000" fill-rule="nonzero" fill-opacity="1"></path><path clip-path="url(#clip680)" d="M649.46 202.629 L649.46 209.99 L658.233 209.99 L658.233 213.3 L649.46 213.3 L649.46 227.374 Q649.46 230.545 650.316 231.448 Q651.196 232.351 653.858 232.351 L658.233 232.351 L658.233 235.916 L653.858 235.916 Q648.927 235.916 647.052 234.087 Q645.177 232.235 645.177 227.374 L645.177 213.3 L642.052 213.3 L642.052 209.99 L645.177 209.99 L645.177 202.629 L649.46 202.629 Z" fill="#000000" fill-rule="nonzero" fill-opacity="1"></path><path clip-path="url(#clip680)" d="M663.395 225.684 L663.395 209.99 L667.654 209.99 L667.654 225.522 Q667.654 229.203 669.089 231.055 Q670.524 232.883 673.395 232.883 Q676.844 232.883 678.835 230.684 Q680.849 228.485 680.849 224.689 L680.849 209.99 L685.108 209.99 L685.108 235.916 L680.849 235.916 L680.849 231.934 Q679.298 234.295 677.237 235.453 Q675.2 236.587 672.492 236.587 Q668.025 236.587 665.71 233.809 Q663.395 231.031 663.395 225.684 M674.112 209.365 L674.112 209.365 Z" fill="#000000" fill-rule="nonzero" fill-opacity="1"></path><path clip-path="url(#clip680)" d="M705.663 222.883 Q700.501 222.883 698.51 224.064 Q696.52 225.244 696.52 228.092 Q696.52 230.36 698.001 231.703 Q699.506 233.022 702.075 233.022 Q705.617 233.022 707.747 230.522 Q709.899 227.999 709.899 223.832 L709.899 222.883 L705.663 222.883 M714.159 221.124 L714.159 235.916 L709.899 235.916 L709.899 231.981 Q708.441 234.342 706.265 235.476 Q704.089 236.587 700.941 236.587 Q696.96 236.587 694.598 234.365 Q692.26 232.119 692.26 228.369 Q692.26 223.994 695.177 221.772 Q698.117 219.55 703.927 219.55 L709.899 219.55 L709.899 219.133 Q709.899 216.194 707.955 214.596 Q706.034 212.976 702.538 212.976 Q700.316 212.976 698.21 213.508 Q696.103 214.041 694.159 215.106 L694.159 211.17 Q696.497 210.268 698.696 209.828 Q700.895 209.365 702.978 209.365 Q708.603 209.365 711.381 212.282 Q714.159 215.198 714.159 221.124 Z" fill="#000000" fill-rule="nonzero" fill-opacity="1"></path><path clip-path="url(#clip680)" d="M722.932 199.897 L727.191 199.897 L727.191 235.916 L722.932 235.916 L722.932 199.897 Z" fill="#000000" fill-rule="nonzero" fill-opacity="1"></path><path clip-path="url(#clip680)" d="M772.723 220.268 L772.723 235.916 L768.464 235.916 L768.464 220.407 Q768.464 216.726 767.029 214.897 Q765.593 213.069 762.723 213.069 Q759.274 213.069 757.283 215.268 Q755.293 217.467 755.293 221.263 L755.293 235.916 L751.01 235.916 L751.01 209.99 L755.293 209.99 L755.293 214.018 Q756.82 211.68 758.881 210.522 Q760.964 209.365 763.672 209.365 Q768.14 209.365 770.431 212.143 Q772.723 214.897 772.723 220.268 Z" fill="#000000" fill-rule="nonzero" fill-opacity="1"></path><path clip-path="url(#clip680)" d="M780.779 225.684 L780.779 209.99 L785.038 209.99 L785.038 225.522 Q785.038 229.203 786.473 231.055 Q787.908 232.883 790.778 232.883 Q794.228 232.883 796.218 230.684 Q798.232 228.485 798.232 224.689 L798.232 209.99 L802.491 209.99 L802.491 235.916 L798.232 235.916 L798.232 231.934 Q796.681 234.295 794.621 235.453 Q792.584 236.587 789.876 236.587 Q785.408 236.587 783.093 233.809 Q780.779 231.031 780.779 225.684 M791.496 209.365 L791.496 209.365 Z" fill="#000000" fill-rule="nonzero" fill-opacity="1"></path><path clip-path="url(#clip680)" d="M831.45 214.967 Q833.047 212.096 835.269 210.731 Q837.491 209.365 840.5 209.365 Q844.551 209.365 846.75 212.212 Q848.949 215.036 848.949 220.268 L848.949 235.916 L844.667 235.916 L844.667 220.407 Q844.667 216.68 843.348 214.874 Q842.028 213.069 839.32 213.069 Q836.01 213.069 834.088 215.268 Q832.167 217.467 832.167 221.263 L832.167 235.916 L827.885 235.916 L827.885 220.407 Q827.885 216.657 826.565 214.874 Q825.246 213.069 822.491 213.069 Q819.227 213.069 817.306 215.291 Q815.385 217.49 815.385 221.263 L815.385 235.916 L811.102 235.916 L811.102 209.99 L815.385 209.99 L815.385 214.018 Q816.843 211.633 818.88 210.499 Q820.917 209.365 823.718 209.365 Q826.542 209.365 828.51 210.8 Q830.5 212.235 831.45 214.967 Z" fill="#000000" fill-rule="nonzero" fill-opacity="1"></path><path clip-path="url(#clip680)" d="M876.056 222.976 Q876.056 218.277 874.111 215.615 Q872.19 212.93 868.81 212.93 Q865.431 212.93 863.486 215.615 Q861.565 218.277 861.565 222.976 Q861.565 227.675 863.486 230.36 Q865.431 233.022 868.81 233.022 Q872.19 233.022 874.111 230.36 Q876.056 227.675 876.056 222.976 M861.565 213.925 Q862.908 211.61 864.945 210.499 Q867.005 209.365 869.852 209.365 Q874.574 209.365 877.514 213.115 Q880.477 216.865 880.477 222.976 Q880.477 229.087 877.514 232.837 Q874.574 236.587 869.852 236.587 Q867.005 236.587 864.945 235.476 Q862.908 234.342 861.565 232.027 L861.565 235.916 L857.283 235.916 L857.283 199.897 L861.565 199.897 L861.565 213.925 Z" fill="#000000" fill-rule="nonzero" fill-opacity="1"></path><path clip-path="url(#clip680)" d="M909.713 221.888 L909.713 223.971 L890.13 223.971 Q890.408 228.369 892.769 230.684 Q895.153 232.976 899.389 232.976 Q901.843 232.976 904.134 232.374 Q906.449 231.772 908.718 230.569 L908.718 234.596 Q906.426 235.568 904.019 236.078 Q901.611 236.587 899.134 236.587 Q892.931 236.587 889.296 232.976 Q885.685 229.365 885.685 223.207 Q885.685 216.842 889.111 213.115 Q892.56 209.365 898.394 209.365 Q903.625 209.365 906.657 212.745 Q909.713 216.101 909.713 221.888 M905.454 220.638 Q905.407 217.143 903.486 215.059 Q901.588 212.976 898.44 212.976 Q894.875 212.976 892.722 214.99 Q890.593 217.004 890.269 220.661 L905.454 220.638 Z" fill="#000000" fill-rule="nonzero" fill-opacity="1"></path><path clip-path="url(#clip680)" d="M931.727 213.971 Q931.009 213.555 930.153 213.37 Q929.319 213.161 928.301 213.161 Q924.69 213.161 922.745 215.522 Q920.824 217.86 920.824 222.258 L920.824 235.916 L916.542 235.916 L916.542 209.99 L920.824 209.99 L920.824 214.018 Q922.167 211.657 924.319 210.522 Q926.472 209.365 929.551 209.365 Q929.991 209.365 930.523 209.434 Q931.056 209.481 931.704 209.596 L931.727 213.971 Z" fill="#000000" fill-rule="nonzero" fill-opacity="1"></path><path clip-path="url(#clip680)" d="M961.31 212.976 Q957.884 212.976 955.893 215.661 Q953.903 218.323 953.903 222.976 Q953.903 227.629 955.87 230.314 Q957.861 232.976 961.31 232.976 Q964.713 232.976 966.703 230.291 Q968.694 227.606 968.694 222.976 Q968.694 218.37 966.703 215.684 Q964.713 212.976 961.31 212.976 M961.31 209.365 Q966.866 209.365 970.037 212.976 Q973.208 216.587 973.208 222.976 Q973.208 229.342 970.037 232.976 Q966.866 236.587 961.31 236.587 Q955.731 236.587 952.56 232.976 Q949.412 229.342 949.412 222.976 Q949.412 216.587 952.56 212.976 Q955.731 209.365 961.31 209.365 Z" fill="#000000" fill-rule="nonzero" fill-opacity="1"></path><path clip-path="url(#clip680)" d="M993.393 199.897 L993.393 203.439 L989.319 203.439 Q987.027 203.439 986.125 204.365 Q985.245 205.291 985.245 207.698 L985.245 209.99 L992.259 209.99 L992.259 213.3 L985.245 213.3 L985.245 235.916 L980.963 235.916 L980.963 213.3 L976.889 213.3 L976.889 209.99 L980.963 209.99 L980.963 208.184 Q980.963 203.856 982.977 201.888 Q984.99 199.897 989.365 199.897 L993.393 199.897 Z" fill="#000000" fill-rule="nonzero" fill-opacity="1"></path><path clip-path="url(#clip680)" d="M1012.03 209.99 L1016.29 209.99 L1016.29 235.916 L1012.03 235.916 L1012.03 209.99 M1012.03 199.897 L1016.29 199.897 L1016.29 205.291 L1012.03 205.291 L1012.03 199.897 Z" fill="#000000" fill-rule="nonzero" fill-opacity="1"></path><path clip-path="url(#clip680)" d="M1046.75 220.268 L1046.75 235.916 L1042.49 235.916 L1042.49 220.407 Q1042.49 216.726 1041.05 214.897 Q1039.62 213.069 1036.75 213.069 Q1033.3 213.069 1031.31 215.268 Q1029.32 217.467 1029.32 221.263 L1029.32 235.916 L1025.04 235.916 L1025.04 209.99 L1029.32 209.99 L1029.32 214.018 Q1030.85 211.68 1032.91 210.522 Q1034.99 209.365 1037.7 209.365 Q1042.17 209.365 1044.46 212.143 Q1046.75 214.897 1046.75 220.268 Z" fill="#000000" fill-rule="nonzero" fill-opacity="1"></path><path clip-path="url(#clip680)" d="M1068.37 199.897 L1068.37 203.439 L1064.3 203.439 Q1062 203.439 1061.1 204.365 Q1060.22 205.291 1060.22 207.698 L1060.22 209.99 L1067.24 209.99 L1067.24 213.3 L1060.22 213.3 L1060.22 235.916 L1055.94 235.916 L1055.94 213.3 L1051.87 213.3 L1051.87 209.99 L1055.94 209.99 L1055.94 208.184 Q1055.94 203.856 1057.95 201.888 Q1059.97 199.897 1064.34 199.897 L1068.37 199.897 Z" fill="#000000" fill-rule="nonzero" fill-opacity="1"></path><path clip-path="url(#clip680)" d="M1094.11 221.888 L1094.11 223.971 L1074.53 223.971 Q1074.8 228.369 1077.17 230.684 Q1079.55 232.976 1083.79 232.976 Q1086.24 232.976 1088.53 232.374 Q1090.85 231.772 1093.11 230.569 L1093.11 234.596 Q1090.82 235.568 1088.42 236.078 Q1086.01 236.587 1083.53 236.587 Q1077.33 236.587 1073.69 232.976 Q1070.08 229.365 1070.08 223.207 Q1070.08 216.842 1073.51 213.115 Q1076.96 209.365 1082.79 209.365 Q1088.02 209.365 1091.05 212.745 Q1094.11 216.101 1094.11 221.888 M1089.85 220.638 Q1089.8 217.143 1087.88 215.059 Q1085.99 212.976 1082.84 212.976 Q1079.27 212.976 1077.12 214.99 Q1074.99 217.004 1074.67 220.661 L1089.85 220.638 Z" fill="#000000" fill-rule="nonzero" fill-opacity="1"></path><path clip-path="url(#clip680)" d="M1119.76 210.985 L1119.76 214.967 Q1117.95 213.971 1116.12 213.485 Q1114.32 212.976 1112.47 212.976 Q1108.32 212.976 1106.03 215.615 Q1103.74 218.231 1103.74 222.976 Q1103.74 227.721 1106.03 230.36 Q1108.32 232.976 1112.47 232.976 Q1114.32 232.976 1116.12 232.49 Q1117.95 231.981 1119.76 230.985 L1119.76 234.92 Q1117.98 235.754 1116.05 236.17 Q1114.16 236.587 1112 236.587 Q1106.15 236.587 1102.7 232.906 Q1099.25 229.226 1099.25 222.976 Q1099.25 216.633 1102.72 212.999 Q1106.22 209.365 1112.28 209.365 Q1114.25 209.365 1116.12 209.782 Q1118 210.175 1119.76 210.985 Z" fill="#000000" fill-rule="nonzero" fill-opacity="1"></path><path clip-path="url(#clip680)" d="M1131.38 202.629 L1131.38 209.99 L1140.15 209.99 L1140.15 213.3 L1131.38 213.3 L1131.38 227.374 Q1131.38 230.545 1132.23 231.448 Q1133.11 232.351 1135.78 232.351 L1140.15 232.351 L1140.15 235.916 L1135.78 235.916 Q1130.85 235.916 1128.97 234.087 Q1127.1 232.235 1127.1 227.374 L1127.1 213.3 L1123.97 213.3 L1123.97 209.99 L1127.1 209.99 L1127.1 202.629 L1131.38 202.629 Z" fill="#000000" fill-rule="nonzero" fill-opacity="1"></path><path clip-path="url(#clip680)" d="M1145.75 209.99 L1150.01 209.99 L1150.01 235.916 L1145.75 235.916 L1145.75 209.99 M1145.75 199.897 L1150.01 199.897 L1150.01 205.291 L1145.75 205.291 L1145.75 199.897 Z" fill="#000000" fill-rule="nonzero" fill-opacity="1"></path><path clip-path="url(#clip680)" d="M1168.97 212.976 Q1165.54 212.976 1163.55 215.661 Q1161.56 218.323 1161.56 222.976 Q1161.56 227.629 1163.53 230.314 Q1165.52 232.976 1168.97 232.976 Q1172.37 232.976 1174.36 230.291 Q1176.36 227.606 1176.36 222.976 Q1176.36 218.37 1174.36 215.684 Q1172.37 212.976 1168.97 212.976 M1168.97 209.365 Q1174.53 209.365 1177.7 212.976 Q1180.87 216.587 1180.87 222.976 Q1180.87 229.342 1177.7 232.976 Q1174.53 236.587 1168.97 236.587 Q1163.39 236.587 1160.22 232.976 Q1157.07 229.342 1157.07 222.976 Q1157.07 216.587 1160.22 212.976 Q1163.39 209.365 1168.97 209.365 Z" fill="#000000" fill-rule="nonzero" fill-opacity="1"></path><path clip-path="url(#clip680)" d="M1209.48 220.268 L1209.48 235.916 L1205.22 235.916 L1205.22 220.407 Q1205.22 216.726 1203.79 214.897 Q1202.35 213.069 1199.48 213.069 Q1196.03 213.069 1194.04 215.268 Q1192.05 217.467 1192.05 221.263 L1192.05 235.916 L1187.77 235.916 L1187.77 209.99 L1192.05 209.99 L1192.05 214.018 Q1193.58 211.68 1195.64 210.522 Q1197.72 209.365 1200.43 209.365 Q1204.9 209.365 1207.19 212.143 Q1209.48 214.897 1209.48 220.268 Z" fill="#000000" fill-rule="nonzero" fill-opacity="1"></path><path clip-path="url(#clip680)" d="M1234.5 210.754 L1234.5 214.782 Q1232.7 213.856 1230.75 213.393 Q1228.81 212.93 1226.73 212.93 Q1223.55 212.93 1221.96 213.902 Q1220.38 214.874 1220.38 216.819 Q1220.38 218.3 1221.52 219.157 Q1222.65 219.99 1226.08 220.754 L1227.54 221.078 Q1232.07 222.05 1233.97 223.832 Q1235.89 225.592 1235.89 228.763 Q1235.89 232.374 1233.02 234.481 Q1230.17 236.587 1225.17 236.587 Q1223.09 236.587 1220.82 236.17 Q1218.58 235.777 1216.08 234.967 L1216.08 230.569 Q1218.44 231.795 1220.73 232.42 Q1223.02 233.022 1225.27 233.022 Q1228.28 233.022 1229.9 232.004 Q1231.52 230.962 1231.52 229.087 Q1231.52 227.351 1230.34 226.425 Q1229.18 225.499 1225.22 224.643 L1223.74 224.295 Q1219.78 223.462 1218.02 221.749 Q1216.26 220.013 1216.26 217.004 Q1216.26 213.346 1218.85 211.356 Q1221.45 209.365 1226.22 209.365 Q1228.58 209.365 1230.66 209.712 Q1232.74 210.059 1234.5 210.754 Z" fill="#000000" fill-rule="nonzero" fill-opacity="1"></path><polyline clip-path="url(#clip680)" style="stroke:#e26f46; stroke-linecap:round; stroke-linejoin:round; stroke-width:4; stroke-opacity:1; fill:none" points="426.717,270.476 561.092,270.476 "></polyline>
<path clip-path="url(#clip680)" d="M583.488 253.196 L605.34 253.196 L605.34 257.131 L588.164 257.131 L588.164 267.362 L604.622 267.362 L604.622 271.297 L588.164 271.297 L588.164 283.821 L605.756 283.821 L605.756 287.756 L583.488 287.756 L583.488 253.196 Z" fill="#000000" fill-rule="nonzero" fill-opacity="1"></path><path clip-path="url(#clip680)" d="M629.784 262.594 L629.784 266.622 Q627.978 265.696 626.034 265.233 Q624.09 264.77 622.006 264.77 Q618.835 264.77 617.238 265.742 Q615.664 266.714 615.664 268.659 Q615.664 270.14 616.798 270.997 Q617.932 271.83 621.358 272.594 L622.816 272.918 Q627.353 273.89 629.252 275.672 Q631.173 277.432 631.173 280.603 Q631.173 284.214 628.303 286.321 Q625.455 288.427 620.455 288.427 Q618.372 288.427 616.103 288.01 Q613.858 287.617 611.358 286.807 L611.358 282.409 Q613.719 283.635 616.011 284.26 Q618.303 284.862 620.548 284.862 Q623.557 284.862 625.178 283.844 Q626.798 282.802 626.798 280.927 Q626.798 279.191 625.617 278.265 Q624.46 277.339 620.502 276.483 L619.02 276.135 Q615.062 275.302 613.303 273.589 Q611.543 271.853 611.543 268.844 Q611.543 265.186 614.136 263.196 Q616.728 261.205 621.497 261.205 Q623.858 261.205 625.941 261.552 Q628.025 261.899 629.784 262.594 Z" fill="#000000" fill-rule="nonzero" fill-opacity="1"></path><path clip-path="url(#clip680)" d="M642.168 254.469 L642.168 261.83 L650.941 261.83 L650.941 265.14 L642.168 265.14 L642.168 279.214 Q642.168 282.385 643.025 283.288 Q643.904 284.191 646.566 284.191 L650.941 284.191 L650.941 287.756 L646.566 287.756 Q641.636 287.756 639.761 285.927 Q637.886 284.075 637.886 279.214 L637.886 265.14 L634.761 265.14 L634.761 261.83 L637.886 261.83 L637.886 254.469 L642.168 254.469 Z" fill="#000000" fill-rule="nonzero" fill-opacity="1"></path><path clip-path="url(#clip680)" d="M656.543 261.83 L660.802 261.83 L660.802 287.756 L656.543 287.756 L656.543 261.83 M656.543 251.737 L660.802 251.737 L660.802 257.131 L656.543 257.131 L656.543 251.737 Z" fill="#000000" fill-rule="nonzero" fill-opacity="1"></path><path clip-path="url(#clip680)" d="M689.899 266.807 Q691.497 263.936 693.719 262.571 Q695.941 261.205 698.95 261.205 Q703.001 261.205 705.2 264.052 Q707.399 266.876 707.399 272.108 L707.399 287.756 L703.117 287.756 L703.117 272.247 Q703.117 268.52 701.797 266.714 Q700.478 264.909 697.77 264.909 Q694.46 264.909 692.538 267.108 Q690.617 269.307 690.617 273.103 L690.617 287.756 L686.335 287.756 L686.335 272.247 Q686.335 268.497 685.015 266.714 Q683.696 264.909 680.941 264.909 Q677.677 264.909 675.756 267.131 Q673.835 269.33 673.835 273.103 L673.835 287.756 L669.552 287.756 L669.552 261.83 L673.835 261.83 L673.835 265.858 Q675.293 263.473 677.33 262.339 Q679.367 261.205 682.168 261.205 Q684.992 261.205 686.96 262.64 Q688.95 264.075 689.899 266.807 Z" fill="#000000" fill-rule="nonzero" fill-opacity="1"></path><path clip-path="url(#clip680)" d="M727.677 274.723 Q722.515 274.723 720.524 275.904 Q718.533 277.084 718.533 279.932 Q718.533 282.2 720.015 283.543 Q721.52 284.862 724.089 284.862 Q727.631 284.862 729.76 282.362 Q731.913 279.839 731.913 275.672 L731.913 274.723 L727.677 274.723 M736.172 272.964 L736.172 287.756 L731.913 287.756 L731.913 283.821 Q730.455 286.182 728.279 287.316 Q726.103 288.427 722.955 288.427 Q718.973 288.427 716.612 286.205 Q714.274 283.959 714.274 280.209 Q714.274 275.834 717.191 273.612 Q720.131 271.39 725.941 271.39 L731.913 271.39 L731.913 270.973 Q731.913 268.034 729.969 266.436 Q728.047 264.816 724.552 264.816 Q722.33 264.816 720.223 265.348 Q718.117 265.881 716.172 266.946 L716.172 263.01 Q718.51 262.108 720.709 261.668 Q722.908 261.205 724.992 261.205 Q730.617 261.205 733.395 264.122 Q736.172 267.038 736.172 272.964 Z" fill="#000000" fill-rule="nonzero" fill-opacity="1"></path><path clip-path="url(#clip680)" d="M749.158 254.469 L749.158 261.83 L757.931 261.83 L757.931 265.14 L749.158 265.14 L749.158 279.214 Q749.158 282.385 750.015 283.288 Q750.894 284.191 753.556 284.191 L757.931 284.191 L757.931 287.756 L753.556 287.756 Q748.626 287.756 746.751 285.927 Q744.876 284.075 744.876 279.214 L744.876 265.14 L741.751 265.14 L741.751 261.83 L744.876 261.83 L744.876 254.469 L749.158 254.469 Z" fill="#000000" fill-rule="nonzero" fill-opacity="1"></path><path clip-path="url(#clip680)" d="M785.709 273.728 L785.709 275.811 L766.126 275.811 Q766.404 280.209 768.765 282.524 Q771.149 284.816 775.385 284.816 Q777.839 284.816 780.13 284.214 Q782.445 283.612 784.714 282.409 L784.714 286.436 Q782.422 287.408 780.015 287.918 Q777.607 288.427 775.13 288.427 Q768.927 288.427 765.293 284.816 Q761.681 281.205 761.681 275.047 Q761.681 268.682 765.107 264.955 Q768.556 261.205 774.39 261.205 Q779.621 261.205 782.654 264.585 Q785.709 267.941 785.709 273.728 M781.45 272.478 Q781.404 268.983 779.482 266.899 Q777.584 264.816 774.436 264.816 Q770.871 264.816 768.718 266.83 Q766.589 268.844 766.265 272.501 L781.45 272.478 Z" fill="#000000" fill-rule="nonzero" fill-opacity="1"></path><path clip-path="url(#clip680)" d="M809.76 265.765 L809.76 251.737 L814.019 251.737 L814.019 287.756 L809.76 287.756 L809.76 283.867 Q808.417 286.182 806.357 287.316 Q804.32 288.427 801.45 288.427 Q796.751 288.427 793.788 284.677 Q790.848 280.927 790.848 274.816 Q790.848 268.705 793.788 264.955 Q796.751 261.205 801.45 261.205 Q804.32 261.205 806.357 262.339 Q808.417 263.45 809.76 265.765 M795.246 274.816 Q795.246 279.515 797.167 282.2 Q799.112 284.862 802.491 284.862 Q805.871 284.862 807.815 282.2 Q809.76 279.515 809.76 274.816 Q809.76 270.117 807.815 267.455 Q805.871 264.77 802.491 264.77 Q799.112 264.77 797.167 267.455 Q795.246 270.117 795.246 274.816 Z" fill="#000000" fill-rule="nonzero" fill-opacity="1"></path><path clip-path="url(#clip680)" d="M859.412 272.108 L859.412 287.756 L855.153 287.756 L855.153 272.247 Q855.153 268.566 853.718 266.737 Q852.283 264.909 849.412 264.909 Q845.963 264.909 843.973 267.108 Q841.982 269.307 841.982 273.103 L841.982 287.756 L837.7 287.756 L837.7 261.83 L841.982 261.83 L841.982 265.858 Q843.51 263.52 845.57 262.362 Q847.653 261.205 850.361 261.205 Q854.829 261.205 857.121 263.983 Q859.412 266.737 859.412 272.108 Z" fill="#000000" fill-rule="nonzero" fill-opacity="1"></path><path clip-path="url(#clip680)" d="M867.468 277.524 L867.468 261.83 L871.727 261.83 L871.727 277.362 Q871.727 281.043 873.162 282.895 Q874.597 284.723 877.468 284.723 Q880.917 284.723 882.908 282.524 Q884.921 280.325 884.921 276.529 L884.921 261.83 L889.181 261.83 L889.181 287.756 L884.921 287.756 L884.921 283.774 Q883.371 286.135 881.31 287.293 Q879.273 288.427 876.565 288.427 Q872.097 288.427 869.783 285.649 Q867.468 282.871 867.468 277.524 M878.185 261.205 L878.185 261.205 Z" fill="#000000" fill-rule="nonzero" fill-opacity="1"></path><path clip-path="url(#clip680)" d="M918.139 266.807 Q919.736 263.936 921.958 262.571 Q924.181 261.205 927.19 261.205 Q931.241 261.205 933.44 264.052 Q935.639 266.876 935.639 272.108 L935.639 287.756 L931.356 287.756 L931.356 272.247 Q931.356 268.52 930.037 266.714 Q928.718 264.909 926.009 264.909 Q922.699 264.909 920.778 267.108 Q918.856 269.307 918.856 273.103 L918.856 287.756 L914.574 287.756 L914.574 272.247 Q914.574 268.497 913.255 266.714 Q911.935 264.909 909.181 264.909 Q905.917 264.909 903.995 267.131 Q902.074 269.33 902.074 273.103 L902.074 287.756 L897.792 287.756 L897.792 261.83 L902.074 261.83 L902.074 265.858 Q903.533 263.473 905.57 262.339 Q907.607 261.205 910.407 261.205 Q913.232 261.205 915.199 262.64 Q917.19 264.075 918.139 266.807 Z" fill="#000000" fill-rule="nonzero" fill-opacity="1"></path><path clip-path="url(#clip680)" d="M962.745 274.816 Q962.745 270.117 960.801 267.455 Q958.879 264.77 955.5 264.77 Q952.12 264.77 950.176 267.455 Q948.254 270.117 948.254 274.816 Q948.254 279.515 950.176 282.2 Q952.12 284.862 955.5 284.862 Q958.879 284.862 960.801 282.2 Q962.745 279.515 962.745 274.816 M948.254 265.765 Q949.597 263.45 951.634 262.339 Q953.694 261.205 956.541 261.205 Q961.264 261.205 964.203 264.955 Q967.166 268.705 967.166 274.816 Q967.166 280.927 964.203 284.677 Q961.264 288.427 956.541 288.427 Q953.694 288.427 951.634 287.316 Q949.597 286.182 948.254 283.867 L948.254 287.756 L943.972 287.756 L943.972 251.737 L948.254 251.737 L948.254 265.765 Z" fill="#000000" fill-rule="nonzero" fill-opacity="1"></path><path clip-path="url(#clip680)" d="M996.402 273.728 L996.402 275.811 L976.819 275.811 Q977.097 280.209 979.458 282.524 Q981.842 284.816 986.078 284.816 Q988.532 284.816 990.824 284.214 Q993.139 283.612 995.407 282.409 L995.407 286.436 Q993.115 287.408 990.708 287.918 Q988.301 288.427 985.824 288.427 Q979.62 288.427 975.986 284.816 Q972.375 281.205 972.375 275.047 Q972.375 268.682 975.801 264.955 Q979.25 261.205 985.083 261.205 Q990.314 261.205 993.347 264.585 Q996.402 267.941 996.402 273.728 M992.143 272.478 Q992.097 268.983 990.176 266.899 Q988.277 264.816 985.129 264.816 Q981.564 264.816 979.412 266.83 Q977.282 268.844 976.958 272.501 L992.143 272.478 Z" fill="#000000" fill-rule="nonzero" fill-opacity="1"></path><path clip-path="url(#clip680)" d="M1018.42 265.811 Q1017.7 265.395 1016.84 265.21 Q1016.01 265.001 1014.99 265.001 Q1011.38 265.001 1009.43 267.362 Q1007.51 269.7 1007.51 274.098 L1007.51 287.756 L1003.23 287.756 L1003.23 261.83 L1007.51 261.83 L1007.51 265.858 Q1008.86 263.497 1011.01 262.362 Q1013.16 261.205 1016.24 261.205 Q1016.68 261.205 1017.21 261.274 Q1017.74 261.321 1018.39 261.436 L1018.42 265.811 Z" fill="#000000" fill-rule="nonzero" fill-opacity="1"></path><path clip-path="url(#clip680)" d="M1048 264.816 Q1044.57 264.816 1042.58 267.501 Q1040.59 270.163 1040.59 274.816 Q1040.59 279.469 1042.56 282.154 Q1044.55 284.816 1048 284.816 Q1051.4 284.816 1053.39 282.131 Q1055.38 279.446 1055.38 274.816 Q1055.38 270.21 1053.39 267.524 Q1051.4 264.816 1048 264.816 M1048 261.205 Q1053.55 261.205 1056.73 264.816 Q1059.9 268.427 1059.9 274.816 Q1059.9 281.182 1056.73 284.816 Q1053.55 288.427 1048 288.427 Q1042.42 288.427 1039.25 284.816 Q1036.1 281.182 1036.1 274.816 Q1036.1 268.427 1039.25 264.816 Q1042.42 261.205 1048 261.205 Z" fill="#000000" fill-rule="nonzero" fill-opacity="1"></path><path clip-path="url(#clip680)" d="M1080.08 251.737 L1080.08 255.279 L1076.01 255.279 Q1073.72 255.279 1072.81 256.205 Q1071.93 257.131 1071.93 259.538 L1071.93 261.83 L1078.95 261.83 L1078.95 265.14 L1071.93 265.14 L1071.93 287.756 L1067.65 287.756 L1067.65 265.14 L1063.58 265.14 L1063.58 261.83 L1067.65 261.83 L1067.65 260.024 Q1067.65 255.696 1069.67 253.728 Q1071.68 251.737 1076.05 251.737 L1080.08 251.737 Z" fill="#000000" fill-rule="nonzero" fill-opacity="1"></path><path clip-path="url(#clip680)" d="M1098.72 261.83 L1102.98 261.83 L1102.98 287.756 L1098.72 287.756 L1098.72 261.83 M1098.72 251.737 L1102.98 251.737 L1102.98 257.131 L1098.72 257.131 L1098.72 251.737 Z" fill="#000000" fill-rule="nonzero" fill-opacity="1"></path><path clip-path="url(#clip680)" d="M1133.44 272.108 L1133.44 287.756 L1129.18 287.756 L1129.18 272.247 Q1129.18 268.566 1127.74 266.737 Q1126.31 264.909 1123.44 264.909 Q1119.99 264.909 1118 267.108 Q1116.01 269.307 1116.01 273.103 L1116.01 287.756 L1111.73 287.756 L1111.73 261.83 L1116.01 261.83 L1116.01 265.858 Q1117.54 263.52 1119.6 262.362 Q1121.68 261.205 1124.39 261.205 Q1128.86 261.205 1131.15 263.983 Q1133.44 266.737 1133.44 272.108 Z" fill="#000000" fill-rule="nonzero" fill-opacity="1"></path><path clip-path="url(#clip680)" d="M1155.06 251.737 L1155.06 255.279 L1150.98 255.279 Q1148.69 255.279 1147.79 256.205 Q1146.91 257.131 1146.91 259.538 L1146.91 261.83 L1153.92 261.83 L1153.92 265.14 L1146.91 265.14 L1146.91 287.756 L1142.63 287.756 L1142.63 265.14 L1138.55 265.14 L1138.55 261.83 L1142.63 261.83 L1142.63 260.024 Q1142.63 255.696 1144.64 253.728 Q1146.66 251.737 1151.03 251.737 L1155.06 251.737 Z" fill="#000000" fill-rule="nonzero" fill-opacity="1"></path><path clip-path="url(#clip680)" d="M1180.8 273.728 L1180.8 275.811 L1161.22 275.811 Q1161.49 280.209 1163.86 282.524 Q1166.24 284.816 1170.48 284.816 Q1172.93 284.816 1175.22 284.214 Q1177.54 283.612 1179.8 282.409 L1179.8 286.436 Q1177.51 287.408 1175.11 287.918 Q1172.7 288.427 1170.22 288.427 Q1164.02 288.427 1160.38 284.816 Q1156.77 281.205 1156.77 275.047 Q1156.77 268.682 1160.2 264.955 Q1163.65 261.205 1169.48 261.205 Q1174.71 261.205 1177.74 264.585 Q1180.8 267.941 1180.8 273.728 M1176.54 272.478 Q1176.49 268.983 1174.57 266.899 Q1172.67 264.816 1169.53 264.816 Q1165.96 264.816 1163.81 266.83 Q1161.68 268.844 1161.36 272.501 L1176.54 272.478 Z" fill="#000000" fill-rule="nonzero" fill-opacity="1"></path><path clip-path="url(#clip680)" d="M1206.45 262.825 L1206.45 266.807 Q1204.64 265.811 1202.81 265.325 Q1201.01 264.816 1199.16 264.816 Q1195.01 264.816 1192.72 267.455 Q1190.43 270.071 1190.43 274.816 Q1190.43 279.561 1192.72 282.2 Q1195.01 284.816 1199.16 284.816 Q1201.01 284.816 1202.81 284.33 Q1204.64 283.821 1206.45 282.825 L1206.45 286.76 Q1204.67 287.594 1202.74 288.01 Q1200.85 288.427 1198.69 288.427 Q1192.84 288.427 1189.39 284.746 Q1185.94 281.066 1185.94 274.816 Q1185.94 268.473 1189.41 264.839 Q1192.91 261.205 1198.97 261.205 Q1200.94 261.205 1202.81 261.622 Q1204.69 262.015 1206.45 262.825 Z" fill="#000000" fill-rule="nonzero" fill-opacity="1"></path><path clip-path="url(#clip680)" d="M1218.07 254.469 L1218.07 261.83 L1226.84 261.83 L1226.84 265.14 L1218.07 265.14 L1218.07 279.214 Q1218.07 282.385 1218.92 283.288 Q1219.8 284.191 1222.47 284.191 L1226.84 284.191 L1226.84 287.756 L1222.47 287.756 Q1217.54 287.756 1215.66 285.927 Q1213.79 284.075 1213.79 279.214 L1213.79 265.14 L1210.66 265.14 L1210.66 261.83 L1213.79 261.83 L1213.79 254.469 L1218.07 254.469 Z" fill="#000000" fill-rule="nonzero" fill-opacity="1"></path><path clip-path="url(#clip680)" d="M1232.44 261.83 L1236.7 261.83 L1236.7 287.756 L1232.44 287.756 L1232.44 261.83 M1232.44 251.737 L1236.7 251.737 L1236.7 257.131 L1232.44 257.131 L1232.44 251.737 Z" fill="#000000" fill-rule="nonzero" fill-opacity="1"></path><path clip-path="url(#clip680)" d="M1255.66 264.816 Q1252.23 264.816 1250.24 267.501 Q1248.25 270.163 1248.25 274.816 Q1248.25 279.469 1250.22 282.154 Q1252.21 284.816 1255.66 284.816 Q1259.06 284.816 1261.05 282.131 Q1263.04 279.446 1263.04 274.816 Q1263.04 270.21 1261.05 267.524 Q1259.06 264.816 1255.66 264.816 M1255.66 261.205 Q1261.22 261.205 1264.39 264.816 Q1267.56 268.427 1267.56 274.816 Q1267.56 281.182 1264.39 284.816 Q1261.22 288.427 1255.66 288.427 Q1250.08 288.427 1246.91 284.816 Q1243.76 281.182 1243.76 274.816 Q1243.76 268.427 1246.91 264.816 Q1250.08 261.205 1255.66 261.205 Z" fill="#000000" fill-rule="nonzero" fill-opacity="1"></path><path clip-path="url(#clip680)" d="M1296.17 272.108 L1296.17 287.756 L1291.91 287.756 L1291.91 272.247 Q1291.91 268.566 1290.47 266.737 Q1289.04 264.909 1286.17 264.909 Q1282.72 264.909 1280.73 267.108 Q1278.74 269.307 1278.74 273.103 L1278.74 287.756 L1274.46 287.756 L1274.46 261.83 L1278.74 261.83 L1278.74 265.858 Q1280.27 263.52 1282.33 262.362 Q1284.41 261.205 1287.12 261.205 Q1291.59 261.205 1293.88 263.983 Q1296.17 266.737 1296.17 272.108 Z" fill="#000000" fill-rule="nonzero" fill-opacity="1"></path><path clip-path="url(#clip680)" d="M1321.19 262.594 L1321.19 266.622 Q1319.39 265.696 1317.44 265.233 Q1315.5 264.77 1313.41 264.77 Q1310.24 264.77 1308.65 265.742 Q1307.07 266.714 1307.07 268.659 Q1307.07 270.14 1308.21 270.997 Q1309.34 271.83 1312.77 272.594 L1314.22 272.918 Q1318.76 273.89 1320.66 275.672 Q1322.58 277.432 1322.58 280.603 Q1322.58 284.214 1319.71 286.321 Q1316.86 288.427 1311.86 288.427 Q1309.78 288.427 1307.51 288.01 Q1305.27 287.617 1302.77 286.807 L1302.77 282.409 Q1305.13 283.635 1307.42 284.26 Q1309.71 284.862 1311.96 284.862 Q1314.97 284.862 1316.59 283.844 Q1318.21 282.802 1318.21 280.927 Q1318.21 279.191 1317.03 278.265 Q1315.87 277.339 1311.91 276.483 L1310.43 276.135 Q1306.47 275.302 1304.71 273.589 Q1302.95 271.853 1302.95 268.844 Q1302.95 265.186 1305.54 263.196 Q1308.14 261.205 1312.91 261.205 Q1315.27 261.205 1317.35 261.552 Q1319.43 261.899 1321.19 262.594 Z" fill="#000000" fill-rule="nonzero" fill-opacity="1"></path></svg>